<svg xmlns="http://www.w3.org/2000/svg" xmlns:xlink="http://www.w3.org/1999/xlink" viewBox="0 0 197.83 194.37"><defs><style>.cls-1{fill:url(#linear-gradient);}.cls-2{fill:url(#linear-gradient-2);}</style><linearGradient id="linear-gradient" x1="-11.59" y1="130.15" x2="179.35" y2="72.29" gradientUnits="userSpaceOnUse"><stop offset="0" stop-color="#f8ac1c"/><stop offset="1" stop-color="#ffcb05"/></linearGradient><linearGradient id="linear-gradient-2" x1="-13.64" y1="123.37" x2="177.29" y2="65.51" xlink:href="#linear-gradient"/></defs><title>Asset 2</title><g id="Layer_2" data-name="Layer 2"><g id="Layer_1-2" data-name="Layer 1"><path class="cls-1" d="M188.9,65.06l-7.56,9.32a87.23,87.23,0,1,1-46.56-55.85L141,10.47A97.18,97.18,0,1,0,188.9,65.06Z"/><path class="cls-2" d="M33.1,92l56.28,61.16a5.68,5.68,0,0,0,8.58-.27l98.6-121.53a5.66,5.66,0,0,0-1-8.13L171.33,5.32a5.68,5.68,0,0,0-7.86,1.09L98.7,90.09a5.67,5.67,0,0,1-8.5.53L62.29,62.71a5.67,5.67,0,0,0-8.06,0l-21,21.46A5.67,5.67,0,0,0,33.1,92Z"/></g></g></svg>