<svg xmlns="http://www.w3.org/2000/svg" viewBox="0 0 158.37 84.51"><defs><style>.cls-1{fill:#d0a64d;fill-rule:evenodd;}</style></defs><title>Asset 3</title><g id="Layer_2" data-name="Layer 2"><g id="Layer_1-2" data-name="Layer 1"><path class="cls-1" d="M95.77,40.56s7.82,9.89,21.57,4.95c0,0-4.49-6.47-5.39-11.6,0,0,9-1.66.86-16.67,0,0-12.72,8.22-6.79,15.37C106,32.61,104.94,35.13,95.77,40.56Z"/><path class="cls-1" d="M62.6,40.56S54.78,50.45,41,45.51c0,0,4.49-6.47,5.39-11.6,0,0-9-1.66-.85-16.67,0,0,12.71,8.22,6.78,15.37C52.35,32.61,53.43,35.13,62.6,40.56Z"/><path class="cls-1" d="M158.37,17S128.84,75.3,125.78,84.51c-51.8-28.6-96.09-1.21-97-.65,34.12-31.81,93.35-12.39,93.35-12.39l9-18.22s-41.61,21.48-52-11.88C68.83,74.73,26.46,55,20.71,49.81l3.84,22.43C21.47,63,0,17,0,17c20.71,7.87,14.19,19.37,14.19,19.37C22.82,45.21,46.4,56.9,60,49.23S77.08,21.81,77.08,21.81s-6.81-4.5-5.66-9.68S79.18,0,79.18,0,85.81,7,87,12.13s-5.66,9.68-5.66,9.68,3.46,19.75,17.07,27.42,37.19-4,45.82-12.84C144.18,36.39,137.66,24.89,158.37,17Z"/></g></g></svg>