<svg xmlns="http://www.w3.org/2000/svg" viewBox="0 0 435.31 454.84"><defs><style>.cls-1{fill:#2094d2;}.cls-2{opacity:0.1;}.cls-3{fill:#ffd31d;}.cls-4{fill:#ffab2e;}.cls-5{fill:#ffbf1f;}.cls-6{fill:#fff;}.cls-7{fill:#ffef42;opacity:0.8;}.cls-8{fill:#da2d2d;}.cls-9{fill:#f75959;}.cls-10{fill:#fff083;}</style></defs><title>Asset 2</title><g id="Layer_2" data-name="Layer 2"><g id="Layer_1-2" data-name="Layer 1"><path class="cls-1" d="M426,246.86A207.7,207.7,0,0,1,273.2,447.22c-2.24.61-4.48,1.18-6.74,1.72-1.37.32-2.74.64-4.12.93l-3.3.69a210.09,210.09,0,0,1-81.5,0l-3.3-.69q-2.81-.6-5.58-1.28c-2.63-.65-5.24-1.34-7.82-2.09A207.66,207.66,0,0,1,10.6,246.86v-.26A206.71,206.71,0,0,1,40.37,139.65,209.22,209.22,0,0,1,64.8,106.94q5.34-5.85,11.12-11.29l1.18-1.11a208.77,208.77,0,0,1,51.58-35.1q4.5-2.14,9.12-4.1A207.7,207.7,0,0,1,426,243.83C426,244.84,426,245.85,426,246.86Z"/><path class="cls-2" d="M404,153.67c-2.07-1.11-4.2-2.12-6.38-3A77.52,77.52,0,0,0,368,144.49h0l.93-20.26H372A15.44,15.44,0,0,0,382.7,120q-5.47-7.1-11.54-13.68A208.44,208.44,0,0,0,327.2,70H109.38q-5.92,3.65-11.58,7.69A208.28,208.28,0,0,0,77.1,94.54l-1.18,1.11q-4.52,4.23-8.75,8.74L68.78,112a15.43,15.43,0,0,0,15.09,12.23H87l.35,7.57.58,12.69h0a77.44,77.44,0,0,0-29.58,6.13,78.29,78.29,0,0,0-38.82,35.83,207.54,207.54,0,0,0-8.33,44.64,77.5,77.5,0,0,0,5.66,21.73A77.69,77.69,0,0,0,33.56,277.6a77.84,77.84,0,0,0,55.13,22.84h14.93A135.45,135.45,0,0,0,197.45,379l-.47,2.15-.57,2.62L186,431.7h-4.73a16.41,16.41,0,0,0-16.4,15.72h-.68c1.49.41,3,.8,4.51,1.17q2.78.68,5.58,1.28l3.3.69a210.09,210.09,0,0,0,81.5,0l3.3-.69c1.38-.29,2.75-.61,4.12-.93,2.26-.54,4.5-1.11,6.74-1.72q8.48-2.33,16.67-5.33a16.41,16.41,0,0,0-15.19-10.19h-4.74L261.72,394h0l-3.26-15a135.45,135.45,0,0,0,93.83-78.56h14.92a77.84,77.84,0,0,0,55.14-22.84c.55-.55,1.08-1.11,1.61-1.67a209.53,209.53,0,0,0,2-29.07c0-1,0-2,0-3A206.67,206.67,0,0,0,404,153.67ZM88.69,271.21a48.75,48.75,0,0,1,0-97.5h.57l3.57,77.9a135.71,135.71,0,0,0,2,19.6Zm278.52,0H361a135.71,135.71,0,0,0,2.05-19.6l3.57-77.9h.56a48.75,48.75,0,1,1,0,97.5Z"/><path class="cls-3" d="M266.17,449.23c-1.37.32-2.74.63-4.12.93-1.1.24-2.19.46-3.3.68h-81.5c-1.1-.22-2.2-.44-3.29-.68q-2.82-.6-5.59-1.29l3.45-15.8,3.43-15.73,10.44-47.93,1-4.76L190.79,346h52.88l4.07,18.65,3.26,15,8.22,37.71,3.43,15.73Z"/><path class="cls-4" d="M243.67,346H190.79l-5.1,23.41a134.78,134.78,0,0,0,53,10.78h0q6.24,0,12.34-.56Z"/><path class="cls-5" d="M280.37,433.75a16.35,16.35,0,0,1-4.81,11.6,15.68,15.68,0,0,1-2.65,2.15c-2.23.62-4.48,1.19-6.74,1.73-1.37.32-2.74.63-4.12.93H174q-2.82-.6-5.59-1.29c-2.63-.64-5.23-1.34-7.82-2.08a16.38,16.38,0,0,1-6.45-13c0-.23,0-.46,0-.68a16.43,16.43,0,0,1,16.4-15.73H264a16.41,16.41,0,0,1,16.39,15.73C280.36,433.29,280.37,433.52,280.37,433.75Z"/><path class="cls-1" d="M304.65,436a205.61,205.61,0,0,1-31.74,11.54c-2.23.62-4.48,1.19-6.74,1.73-1.37.32-2.74.63-4.12.93-1.1.24-2.19.46-3.3.68a209.57,209.57,0,0,1-81.5,0c-1.1-.22-2.2-.44-3.29-.68q-2.82-.6-5.59-1.29c-2.63-.64-5.23-1.34-7.82-2.08a206.28,206.28,0,0,1-30-11.22,20.4,20.4,0,0,1,9.81-2.5H294.15A20.49,20.49,0,0,1,304.65,436Z"/><path class="cls-5" d="M428.33,177.75A77.61,77.61,0,0,0,411.63,153a77.4,77.4,0,0,0-24.78-16.7,77.52,77.52,0,0,0-29.58-6.13H77.2A78,78,0,0,0,6.13,238.46a78.66,78.66,0,0,0,4.18,8.43A77.9,77.9,0,0,0,78,286.08H356.49a78.07,78.07,0,0,0,69.18-42c1-1.85,1.85-3.73,2.66-5.66a78.1,78.1,0,0,0,0-60.71Zm-71.84,79.11H78a48.75,48.75,0,0,1,0-97.5H356.49a48.75,48.75,0,0,1,0,97.5Z"/><path class="cls-4" d="M88.6,159.36H356.49a49.19,49.19,0,0,1,9.62.95l1.35-29.41a78.47,78.47,0,0,0-10.19-.76h-270Z"/><path class="cls-4" d="M360.78,256.67c-1.41.12-2.84.19-4.29.19H94a134.31,134.31,0,0,0,8.31,29.22H352.44A134.73,134.73,0,0,0,360.78,256.67Z"/><path class="cls-4" d="M71.71,159.76a47.93,47.93,0,0,1,6.26-.4H349.75l1.34-29.23H77.2q-3.44,0-6.83.36Z"/><path class="cls-4" d="M337.92,286.08a134.27,134.27,0,0,0,7-29.22H78l-1.42,0a134.59,134.59,0,0,0,7,29.24Z"/><path class="cls-3" d="M217.23,368.11h0A135.19,135.19,0,0,1,82.11,237.26L75.58,94.83H358.89l-6.53,142.43A135.2,135.2,0,0,1,217.23,368.11Z"/><polygon class="cls-4" points="356.91 138.05 358.89 94.83 75.58 94.83 76.62 117.44 356.91 138.05"/><path class="cls-5" d="M361.31,109.87H73.16a15.43,15.43,0,0,1-15.1-12.23l-5-23.38A15.43,15.43,0,0,1,68.2,55.63H366.27a15.42,15.42,0,0,1,15.09,18.63l-4.95,23.38A15.43,15.43,0,0,1,361.31,109.87Z"/><path class="cls-6" d="M231,75.48H73.09a5.73,5.73,0,0,1-5.73-5.73h0A5.72,5.72,0,0,1,73.09,64H231a5.72,5.72,0,0,1,5.72,5.72h0A5.73,5.73,0,0,1,231,75.48Z"/><path class="cls-6" d="M257.82,73.37c4.66-6.12-2.26-13.05-8.39-8.38C244.76,71.11,251.69,78,257.82,73.37Z"/><path class="cls-3" d="M352.27,27.09a5.92,5.92,0,0,1-5.78-4.65L343.57,7.2a5.92,5.92,0,1,1,11.57-2.55l2.93,15.24A5.93,5.93,0,0,1,353.55,27,5.58,5.58,0,0,1,352.27,27.09Z"/><path class="cls-5" d="M388.39,36.3A5.92,5.92,0,0,1,383.5,27L398.33,5.21a5.93,5.93,0,0,1,9.79,6.68L393.29,33.71A5.93,5.93,0,0,1,388.39,36.3Z"/><path class="cls-3" d="M411.53,67.43a5.92,5.92,0,0,1-1-11.77l17.85-3.13a5.93,5.93,0,0,1,1.93,11.7l-17.84,3.12A5.47,5.47,0,0,1,411.53,67.43Z"/><path class="cls-7" d="M127.26,166c1.55-18.78,3.69-31.11,3.69-31.11l-37.13.57c-.75,10.75-1.18,20.91-1.32,30.54Z"/><path class="cls-7" d="M125.82,192.93h-33c6,136.32,75.24,141.77,75.24,141.77C130.94,304.55,124.7,240.45,125.82,192.93Z"/><path class="cls-6" d="M226.26,147.81l13.88,28.12a11.55,11.55,0,0,0,8.7,6.33l31,4.51a11.55,11.55,0,0,1,6.41,19.71l-22.47,21.89a11.58,11.58,0,0,0-3.32,10.23l5.3,30.92A11.55,11.55,0,0,1,249,281.7l-27.77-14.59a11.55,11.55,0,0,0-10.75,0L182.75,281.7A11.56,11.56,0,0,1,166,269.52l5.31-30.92A11.56,11.56,0,0,0,168,228.37L145.5,206.48a11.56,11.56,0,0,1,6.4-19.71l31-4.51a11.57,11.57,0,0,0,8.7-6.33l13.88-28.12A11.56,11.56,0,0,1,226.26,147.81Z"/><path class="cls-8" d="M335,163.62l-18.23-19.16a3.36,3.36,0,0,0-4.84,0l-18.8,19.34a3.36,3.36,0,0,1-5.76-2.34V56a3.79,3.79,0,0,1,3.79-3.79H337A3.79,3.79,0,0,1,340.75,56V161.31A3.35,3.35,0,0,1,335,163.62Z"/><path class="cls-9" d="M330.7,65.45H295.48A4.49,4.49,0,0,1,291,61h0a4.49,4.49,0,0,1,4.5-4.5H330.7a4.5,4.5,0,0,1,4.5,4.5h0A4.5,4.5,0,0,1,330.7,65.45Z"/><path class="cls-10" d="M7.49,199.27l-.28,0a2.77,2.77,0,0,1-2.49-3,57.28,57.28,0,0,1,7.16-22.36A71.43,71.43,0,0,1,24.18,158,78.3,78.3,0,0,1,41,145.22a2.78,2.78,0,1,1,2.57,4.92h0A74.46,74.46,0,0,0,28,162.05c-10.47,10.34-16.42,22-17.7,34.72A2.78,2.78,0,0,1,7.49,199.27Z"/><path class="cls-10" d="M367.07,265.21a2.78,2.78,0,0,1-.25-5.54,52.45,52.45,0,0,0,16.37-5c11.44-5.6,19.23-14.37,23.17-26a2.77,2.77,0,1,1,5.26,1.77,49.84,49.84,0,0,1-26.18,29.34,57.49,57.49,0,0,1-18.12,5.46Z"/><path class="cls-6" d="M135.33,160.16a24,24,0,0,0-13,13,1.1,1.1,0,0,1-2,0,23.9,23.9,0,0,0-13-13,1.1,1.1,0,0,1,0-2,23.9,23.9,0,0,0,13-13,1.1,1.1,0,0,1,2,0,24,24,0,0,0,13,13A1.09,1.09,0,0,1,135.33,160.16Z"/><path class="cls-6" d="M343.79,278.85a23.85,23.85,0,0,0-13,13,1.1,1.1,0,0,1-2,0,23.88,23.88,0,0,0-13-13,1.1,1.1,0,0,1,0-2,23.93,23.93,0,0,0,13-13,1.1,1.1,0,0,1,2,0,23.9,23.9,0,0,0,13,13A1.11,1.11,0,0,1,343.79,278.85Z"/><path class="cls-6" d="M119,129.77a42.05,42.05,0,0,0-22.82,22.82,1.94,1.94,0,0,1-3.57,0,42.05,42.05,0,0,0-22.82-22.82,1.94,1.94,0,0,1,0-3.57,42.05,42.05,0,0,0,22.82-22.82,1.94,1.94,0,0,1,3.57,0A42.05,42.05,0,0,0,119,126.2,1.94,1.94,0,0,1,119,129.77Z"/><path class="cls-6" d="M325.78,347.22A42.1,42.1,0,0,0,303,370.05a1.94,1.94,0,0,1-3.57,0,42.1,42.1,0,0,0-22.82-22.83,1.93,1.93,0,0,1,0-3.56,42.05,42.05,0,0,0,22.82-22.82,1.94,1.94,0,0,1,3.57,0,42.05,42.05,0,0,0,22.82,22.82A1.93,1.93,0,0,1,325.78,347.22Z"/></g></g></svg>