<svg xmlns="http://www.w3.org/2000/svg" viewBox="0 0 415.38 479.6"><defs><style>.cls-1{fill:#2094d2;}.cls-2{opacity:0.1;}.cls-3{fill:#da2d2d;}.cls-4{fill:#b82727;}.cls-5{fill:#ffd31d;}.cls-6{fill:#fff;}.cls-7{fill:#ffbf1f;}.cls-8{fill:#ffefab;opacity:0.5;}.cls-9{fill:#ffab2e;}</style></defs><title>Asset 1</title><g id="Layer_2" data-name="Layer 2"><g id="Layer_1-2" data-name="Layer 1"><circle class="cls-1" cx="207.69" cy="207.69" r="207.69"/><path class="cls-2" d="M379.43,324.52a153.49,153.49,0,0,0-86-129.06,27.1,27.1,0,0,0,3.45-13.28h0a27.25,27.25,0,0,0-9.1-20.35L337.28,45.39a208.26,208.26,0,0,0-33.82-22,206.53,206.53,0,0,0-63.9-15.44l-2.8,6.58h0L225.4,41.18,207.3,0a206.84,206.84,0,0,0-97,24.19l53.54,138.48a27.21,27.21,0,0,0-8.21,19.51h0a27.21,27.21,0,0,0,3.45,13.28A153.67,153.67,0,0,0,77,369.12a207.73,207.73,0,0,0,302.42-44.6Z"/><path class="cls-3" d="M323.11,35,266.73,167.51l-.86,2H152.2l.86-2L209.9,33.91,224.05.64A206.48,206.48,0,0,1,323.11,35Z"/><polygon class="cls-4" points="221.25 7.21 153.06 167.51 153.92 169.53 265.87 169.53 266.9 167.11 221.25 7.21"/><path class="cls-3" d="M267.59,169.53H153.92l-.86-2L95.73,32.73A206.6,206.6,0,0,1,195.62.34L209.9,33.91l56.83,133.6Z"/><rect class="cls-5" x="140.17" y="147.61" width="141.18" height="54.58" rx="27.29"/><path class="cls-6" d="M255.24,162.61H167.38a5.17,5.17,0,0,1-5.17-5.17h0a5.18,5.18,0,0,1,5.17-5.17h87.86a5.17,5.17,0,0,1,5.17,5.17h0A5.16,5.16,0,0,1,255.24,162.61Z"/><circle class="cls-7" cx="210.76" cy="326.18" r="153.42" transform="translate(-168.91 244.56) rotate(-45)"/><path class="cls-6" d="M70.49,333.65a5.05,5.05,0,0,1-5-4.91,143.33,143.33,0,0,1,8.19-52.17l0-.05a142.38,142.38,0,0,1,36.53-55.46,6.65,6.65,0,0,1,.65-.51,11.4,11.4,0,0,0,1-.66,77.26,77.26,0,0,1,10.33-8.62c1.21-.89,2.47-1.82,3.69-2.76l.23-.17a146.59,146.59,0,0,1,12.46-7.78l.17-.09c.85-.43,1.7-.89,2.59-1.37a56.77,56.77,0,0,1,5.52-2.75,5.05,5.05,0,1,1,3.87,9.33,48.31,48.31,0,0,0-4.55,2.28c-.9.49-1.84,1-2.82,1.5-4.39,2.42-8.08,4.85-11.41,7.13-1.28,1-2.54,1.92-3.76,2.82a66.13,66.13,0,0,0-9.09,7.53l-.09.1a13.58,13.58,0,0,1-2.14,1.68,130.8,130.8,0,0,0-41.24,99.74,5.06,5.06,0,0,1-4.91,5.19Z"/><circle class="cls-5" cx="210.76" cy="326.18" r="122.05" transform="translate(-168.91 244.56) rotate(-45)"/><path class="cls-8" d="M293.89,236.82A122.05,122.05,0,0,1,120.51,408.36,122.05,122.05,0,1,0,293.89,236.82Z"/><path class="cls-9" d="M96.87,338.21a122.06,122.06,0,0,1,218.85-74.35A122.06,122.06,0,1,0,114,400.53,121.42,121.42,0,0,1,96.87,338.21Z"/><path class="cls-6" d="M222.39,247.86,238,279.45a13,13,0,0,0,9.77,7.09l34.86,5.07a13,13,0,0,1,7.19,22.13l-25.22,24.59a13,13,0,0,0-3.74,11.48l6,34.72A13,13,0,0,1,248,398.21l-31.18-16.39a13,13,0,0,0-12.07,0l-31.18,16.39a13,13,0,0,1-18.83-13.68l6-34.72a13,13,0,0,0-3.73-11.48l-25.23-24.59a13,13,0,0,1,7.2-22.13l34.85-5.07a13,13,0,0,0,9.77-7.09l15.59-31.59A13,13,0,0,1,222.39,247.86Z"/><path class="cls-6" d="M77.21,353.79a4.73,4.73,0,1,0-4.73,4.73A4.73,4.73,0,0,0,77.21,353.79Z"/><path class="cls-6" d="M360.91,187.5a44.82,44.82,0,0,0-24.32,24.31,2.06,2.06,0,0,1-3.8,0,44.82,44.82,0,0,0-24.32-24.31,2.07,2.07,0,0,1,0-3.81,44.81,44.81,0,0,0,24.32-24.32,2.06,2.06,0,0,1,3.8,0,44.81,44.81,0,0,0,24.32,24.32A2.07,2.07,0,0,1,360.91,187.5Z"/><path class="cls-6" d="M332.18,249a23.9,23.9,0,0,0-13,13,1.1,1.1,0,0,1-2,0,23.93,23.93,0,0,0-13-13,1.09,1.09,0,0,1,0-2,23.93,23.93,0,0,0,13-13,1.1,1.1,0,0,1,2,0,23.9,23.9,0,0,0,13,13A1.1,1.1,0,0,1,332.18,249Z"/><path class="cls-6" d="M120.08,172.65a23.9,23.9,0,0,0-13,13,1.1,1.1,0,0,1-2,0,23.9,23.9,0,0,0-13-13,1.1,1.1,0,0,1,0-2,24,24,0,0,0,13-13,1.09,1.09,0,0,1,2,0,24,24,0,0,0,13,13A1.1,1.1,0,0,1,120.08,172.65Z"/><path class="cls-6" d="M91.08,121.16A42.05,42.05,0,0,0,68.26,144a1.94,1.94,0,0,1-3.57,0,42.05,42.05,0,0,0-22.82-22.82,1.94,1.94,0,0,1,0-3.57A42.05,42.05,0,0,0,64.69,94.77a1.94,1.94,0,0,1,3.57,0,42.05,42.05,0,0,0,22.82,22.82A1.94,1.94,0,0,1,91.08,121.16Z"/><path class="cls-6" d="M125.67,402.34a23.93,23.93,0,0,0-13,13,1.1,1.1,0,0,1-2,0,23.87,23.87,0,0,0-13-13,1.11,1.11,0,0,1,0-2,23.84,23.84,0,0,0,13-13,1.1,1.1,0,0,1,2,0,23.9,23.9,0,0,0,13,13A1.1,1.1,0,0,1,125.67,402.34Z"/></g></g></svg>