<svg xmlns="http://www.w3.org/2000/svg" viewBox="0 0 738.12 924.18"><defs><style>.cls-1{fill:#cae8ea;}.cls-2{fill:#a07065;}.cls-3{fill:#936560;}.cls-4{fill:#ffd2c2;}.cls-5{fill:#7c5650;}.cls-6{fill:#d89687;}.cls-7{fill:#c6877d;}.cls-8{fill:#443835;}.cls-10,.cls-13,.cls-9{fill:#fff;}.cls-10{opacity:0.26;}.cls-11{fill:#ff6861;}.cls-12{fill:#f7c263;}.cls-13{opacity:0.31;}</style></defs><title>Asset 4</title><g id="Layer_2" data-name="Layer 2"><g id="Layer_2-2" data-name="Layer 2"><path class="cls-1" d="M712.74,910.54c0,7.54-110.43,13.64-246.64,13.64s-246.63-6.1-246.63-13.64S329.89,896.9,466.1,896.9,712.74,903,712.74,910.54Z"/><path class="cls-2" d="M625.32,724.67c29.77-10.18,19,31.49,17.79,46.1a38.08,38.08,0,0,1-14.66,26.86,13.24,13.24,0,0,1-6.41,3c-2.69.27-5.32-.83-7.73-2-6-3.05-12.37-5.67-17.94-9.53-34-23.66-63.65,15.3-70.64,14.08-8.07-1.4,6.52-.4,5-8.46-3.82-20.86.11-42.48,7-62.54s16.65-39,25-58.49c4.57-10.69-4.6-69.13-2.19-61.49,6.25,19.85,17.93,49.3,20.9,54C596.86,690.72,610.46,729.75,625.32,724.67Z"/><path class="cls-2" d="M176.07,433.49c-12.16-23-31.42-21.14-38.43-19.39s-12.53,8.08-15,15-2.42,14.51-1.92,21.87A185.74,185.74,0,0,0,277.41,621.88c7.64,1.19,15.59,1.88,23-.3,11.67-3.44,20.45-13.79,24.31-25.33s3.37-24.13,1.19-36.1c-2.33-12.81-6.68-25.52-14.66-35.81-9.33-12-21.67-19.26-36.41-15.89s-26.09,2-40.22-5.19C206.8,489.19,190.24,460.34,176.07,433.49Z"/><path class="cls-3" d="M122.66,429c2.25-6.35,6.93-12.13,13.17-14.45-5.63,8.1-8.13,18.47-7.81,28.44.43,13.25,5.26,26,11.07,37.88a227.42,227.42,0,0,0,61.47,77c12.64,10.18,27.27,19.81,43.47,22.92,14,2.68,16.13,16,17,29,.18,2.88.31,5.79.31,8.69a185.67,185.67,0,0,1-140.55-167.6C120.24,443.56,120.2,436,122.66,429Z"/><path class="cls-4" d="M159.41,443.82a27.48,27.48,0,0,1,8,8.64,26.44,26.44,0,0,1,4.23,12.29,16.12,16.12,0,0,1-4.14,12.07A20,20,0,0,1,162,480.6a16,16,0,0,1-5.94,1.92c-5.28.42-9.94-3.31-13.51-7.22a38.46,38.46,0,0,1-7.54-11.24,20.3,20.3,0,0,1-1-13.32,11.94,11.94,0,0,1,1.92-3.88C141.15,440.17,152.81,439.46,159.41,443.82Z"/><path class="cls-4" d="M145.71,427.8a8.65,8.65,0,0,1,.66,3.18,8,8,0,0,1-.78,4,5,5,0,0,1-3,2.6,5.61,5.61,0,0,1-5.59-2.21,14,14,0,0,1-2.34-5.87,11.59,11.59,0,0,1-.35-3.56,4.47,4.47,0,0,1,1.57-3.12C139.36,420.1,144.39,424.77,145.71,427.8Z"/><path class="cls-4" d="M160.44,430.81a7.51,7.51,0,0,1-.17,2.75,6.81,6.81,0,0,1-1.54,3.08,4.24,4.24,0,0,1-3.06,1.45,4.76,4.76,0,0,1-4.08-3.07,12,12,0,0,1-.6-5.33,9.85,9.85,0,0,1,.52-3,3.75,3.75,0,0,1,2-2.2C157,423.07,160,428,160.44,430.81Z"/><path class="cls-4" d="M131.53,436.55a11.79,11.79,0,0,1,1.72,2.59,11.37,11.37,0,0,1,1.21,3.78,4.59,4.59,0,0,1-.67,3.32c-.95,1.19-2.71,1-4.18-.07a16.6,16.6,0,0,1-3.82-4.38,16.12,16.12,0,0,1-1.7-3,5.66,5.66,0,0,1-.4-3.29C124.61,431.89,129.49,434.32,131.53,436.55Z"/><path class="cls-5" d="M273.48,877.23c-3.84,3-7.7,6.51-9,11.23q15.86-1.68,31.64-4a13.09,13.09,0,0,0,5.1-1.48,4.49,4.49,0,0,0,2.29-4.47,6.15,6.15,0,0,0-2.1-3c-3.73-3.42-8.17-7.32-13.41-6.14C282.61,870.6,277.81,873.84,273.48,877.23Z"/><path class="cls-2" d="M577.59,388.73c8.59-24.56,27.92-25.57,35.11-24.89s13.59,6.12,17.06,12.63,4.56,14,5.15,21.34A185.74,185.74,0,0,1,505.4,590.1c-7.38,2.32-15.13,4.18-22.78,3.13-12.06-1.66-22.28-10.6-27.81-21.43s-6.92-23.36-6.55-35.52c.4-13,2.81-26.23,9.17-37.59,7.43-13.28,18.56-22.28,33.63-21.14s26.1-1.94,39-11.11C555.48,448.39,567.56,417.39,577.59,388.73Z"/><path class="cls-3" d="M629.74,376.38c-3.17-5.94-8.66-11-15.18-12.33,6.77,7.18,10.79,17.05,12,27,1.55,13.16-1.33,26.46-5.31,39.1a227.49,227.49,0,0,1-49.32,85.33c-11,11.95-24,23.65-39.58,29.13-13.45,4.74-13.57,18.21-12.45,31.15.25,2.88.55,5.77,1,8.64a185.65,185.65,0,0,0,114-186.65C634.29,390.38,633.2,382.89,629.74,376.38Z"/><path class="cls-2" d="M287.92,765.94c8.25,15.64,17.51,31.12,30.81,42.93,18.79,16.68,44.41,24.71,69.86,26.16s50.94-3.21,75.75-9.31c38.07-9.36,76.89-23.15,103.91-51.2,7.23-7.51,13.64-16.24,16-26.27s.41-20.31-1.49-30.31C570.5,653.69,558.18,589,534.47,528.08c-9.69-24.91-21.58-49.59-40.49-68.69-8.44-8.53-18.28-15.87-29.45-20.53-13.74-5.72-29-7.2-44-7.22-36.72-.06-73.83,8.45-105.77,26.58-31,17.56-68.15,50.45-73.21,87.09-6.59,47.65,0,96.94,13.92,142.53A448.79,448.79,0,0,0,287.92,765.94Z"/><path class="cls-6" d="M234.07,580.16c7.42,26.55,27.69,51.48,51.14,64.67C317.8,663.16,357.56,655,394.06,661c15.47,2.57,31.65,8.63,40.54,22.08-2.3-6.75.15-14.37,4.39-19.93s10.07-9.52,15.63-13.64c20.57-15.25,40.49-36.39,57.3-56,27.14-31.62,26.68-87-1.78-109.67-23.45-18.7-49.55-33.06-78.57-38.35-32.94-6-66.71-7.52-99.75-2.87-19.69,2.77-39.26,7.8-56.84,17.28-15.24,8.22-13.3,25.32-29.56,41.49C228.6,518.18,226.39,552.71,234.07,580.16Z"/><path class="cls-7" d="M510.14,483.91a226.55,226.55,0,0,0-28-19.25c-1.33.25-2.64.54-3.95.9,15.16,9.27,31.74,20.47,35.62,38.25,1.69,7.72.67,15.77-.88,23.49a169,169,0,0,1-35.51,74.6q-1.33-10.21-2.66-20.43a81.08,81.08,0,0,1-19.05,35.71A128.75,128.75,0,0,0,453,554.89c.66,34.56-14.52,68.91-40.09,90.76-2.23,1.9-5.17,3.81-7.82,2.57-1.78-.83-2.74-2.8-3.57-4.63l-8-17.69q-1.59,9.95-3.19,19.89A138.38,138.38,0,0,1,345,630.56c-8.68-4.71-17.52-11.2-20.16-21q2.26,9.6,4.52,19.19c-31-2.14-60.83-20.32-77.85-47.51a108.46,108.46,0,0,1-16.08-55.87c0-2.53-.06-5.42,0-8.45-7.35,18.06-7.16,42.62-1.4,63.21,7.42,26.55,27.69,51.48,51.14,64.67C317.8,663.16,357.56,655,394.06,661c15.47,2.57,31.65,8.63,40.54,22.08-2.3-6.75.15-14.37,4.39-19.93s10.07-9.52,15.63-13.64c20.57-15.25,40.49-36.39,57.3-56C539.06,562,538.6,506.61,510.14,483.91Z"/><path class="cls-5" d="M496.76,253.61a38.06,38.06,0,0,0-32.15,11.08c-4.54,4.71-7.88,10.64-13.17,14.48-4.83,3.52-11.2,5.24-14.64,10.13s-2.83,12-.48,17.64a36.43,36.43,0,0,0,27.12,21.59c9.13,1.54,18.52-.53,27.22-3.68,11-4,21.68-10,28.67-19.35C535,284.48,522.14,257.18,496.76,253.61Z"/><path class="cls-2" d="M449.24,294.21c2.36-1.16,5.06-1.36,7.66-1.73,11.32-1.63,22.79-7.69,27.3-18.2,2-4.59,2.58-9.91,5.78-13.74,4.42-5.29,12.58-6,19-3.59,9,3.39,17,11.51,21.15,23.6,3.11,9.13,2.36,26.52-5.15,37.95-12.46,18.95-26.88,19.73-35.35,20.05l-4.09-4.71a23.47,23.47,0,0,1-28.88.15c-4-3.27-6.78-7.79-9.24-12.35s-4.69-9.34-4.91-14.48S444.62,296.47,449.24,294.21Z"/><path class="cls-4" d="M505.51,322a32.69,32.69,0,0,0,9.34-20.44c.4-5.39-.69-11.13-4.18-15.25s-9.74-6.15-14.58-3.75-6.9,8-9.17,12.93c-2.65,5.72-6.31,11.23-11.65,14.59-3.85,2.42-8.4,3.62-12.14,6.21s-6.62,7.47-4.8,11.64c1.22,2.81,4.2,4.44,7.13,5.31,7.68,2.28,13.52-.71,20.84-2S500.15,327.39,505.51,322Z"/><path class="cls-5" d="M233.65,258.08a38.08,38.08,0,0,1,32.49,10.07c4.68,4.57,8.2,10.39,13.61,14.07,4.95,3.36,11.36,4.87,14.95,9.65s3.21,11.88,1,17.63a36.45,36.45,0,0,1-26.43,22.42c-9.09,1.82-18.53.05-27.33-2.82-11.12-3.64-22-9.3-29.26-18.45C196.4,290.13,208.4,262.44,233.65,258.08Z"/><path class="cls-2" d="M282.42,297.17c-2.4-1.08-5.1-1.2-7.71-1.49-11.36-1.27-23-7-27.85-17.33-2.11-4.53-2.89-9.82-6.21-13.56-4.58-5.14-12.77-5.6-19.13-3-8.93,3.66-16.67,12-20.41,24.24-2.82,9.23-1.53,26.59,6.34,37.77,13,18.55,27.49,18.88,36,18.94l3.94-4.83c8.23,6.41,21,6.07,28.87-.77,3.91-3.39,6.54-8,8.85-12.62s4.4-9.49,4.45-14.63S287.11,299.29,282.42,297.17Z"/><path class="cls-4" d="M227.05,326.71a32.68,32.68,0,0,1-10-20.14c-.57-5.37.34-11.14,3.7-15.37s9.54-6.45,14.46-4.2,7.14,7.81,9.56,12.63c2.83,5.64,6.66,11,12.1,14.22,3.93,2.3,8.51,3.35,12.33,5.83s6.86,7.26,5.17,11.49c-1.14,2.84-4.06,4.56-7,5.52-7.6,2.52-13.53-.28-20.89-1.33S232.57,331.93,227.05,326.71Z"/><path class="cls-2" d="M517.42,390.47a284.75,284.75,0,0,0-24.13-60.6c-5.22-9.55-11.14-18.82-18.76-26.59-12.89-13.13-30.23-20.83-47.68-26.64-31.14-10.36-97.69-6.12-131.85,6.86C277.8,290,261.8,300.55,250.34,315c-6.77,8.52-11.69,18.36-15.9,28.4a284.68,284.68,0,0,0-17.71,62.77c-3.23,19.2-4.78,39-.45,58s15.19,37.14,32.1,46.79a76.88,76.88,0,0,0,21.18,7.77c16.66,3.75,33.9,3.91,51,4.06s88.65-3.57,105.75-5.5,34.09-3.88,50.27-9.34A76.17,76.17,0,0,0,496.82,498c15.82-11.35,24.74-30.53,27.07-49.86S522.62,409.23,517.42,390.47Z"/><path class="cls-4" d="M452.87,424.54c-1.35-10.38-5.07-21-13-27.76-5.06-4.3-11.44-6.73-17.83-8.54-16.06-4.55-95.09-.44-110.59,5.76-6.17,2.46-12.26,5.54-16.85,10.34-7.22,7.57-9.82,18.5-10.09,29-.28,11.31,2.71,24,12.31,30,6.09,3.78,13.61,4.12,20.56,5.85a50.7,50.7,0,0,1,16,7.15c4.11,2.77,8,5.87,11.87,8.92,15,11.7,43,8.41,52.58-2.74a92,92,0,0,1,10.87-10.1,50.75,50.75,0,0,1,15.2-8.77c6.74-2.45,14.19-3.56,19.85-8C452.67,448.68,454.32,435.75,452.87,424.54Z"/><path class="cls-8" d="M327.64,384.67c-5.66.3-17.37,2.87-21.93,6.23-6.57,4.85-6.87,16.08-.55,21.27a19.13,19.13,0,0,0,8.52,3.69c7.09,1.41,14.4.43,21.63.42s14.94,1.17,20.3,6c2.45,2.2,4.26,5,6.75,7.2s6.08,3.58,9.07,2.19,4.1-4.61,5.92-7.18c3.82-5.39,10.49-8.33,17-9.12,26-3.13,38.53-8.57,38-19.82-.46-8.78-14.27-15.64-31.93-13.06C378.31,385.74,345.41,383.75,327.64,384.67Z"/><path class="cls-5" d="M281.1,336.71c.72,7,4.7,13.13,8.94,18.7,2.62,3.44,5.51,6.87,9.4,8.77s9,1.91,12.12-1.09a13.49,13.49,0,0,0,3.21-5.95,39.37,39.37,0,0,0-2-27.9c-1.66-3.53-4-6.94-7.43-8.81A16.45,16.45,0,0,0,281.1,336.71Z"/><path class="cls-8" d="M290.4,345.06c-.79,4.28.64,8.67,2.52,12.59,1.33,2.79,3,5.55,5.53,7.29a17.12,17.12,0,0,0,5.21,2.19,14.67,14.67,0,0,0,5.53.68c4-.45,7.29-3.76,8.58-7.57s.86-8-.26-11.9c-1.17-4-3.18-8-6.52-10.53C304.34,332.75,292,336.47,290.4,345.06Z"/><path class="cls-9" d="M295.11,343.28a11.33,11.33,0,0,0-.29,9.68,5.26,5.26,0,0,0,3.15,2.72,2.34,2.34,0,0,0,1,.09,2.11,2.11,0,0,0,1.22-.76c1.82-2.15.09-5.62,1.27-8.18a14.09,14.09,0,0,1,1.8-2.44,3.35,3.35,0,0,0,.8-2.82,2.77,2.77,0,0,0-2.07-1.74C299.39,339.22,296.43,341.13,295.11,343.28Z"/><path class="cls-5" d="M415.41,315.56c-3.32,6.35-3.4,13.87-2.92,21,.3,4.42.84,9,3.08,12.81s6.62,6.71,11,5.91a13.92,13.92,0,0,0,6.1-3.27,40.35,40.35,0,0,0,14-25c.58-4,.51-8.2-1.37-11.73A16.85,16.85,0,0,0,415.41,315.56Z"/><path class="cls-8" d="M418.64,327.94c-3.09,3.22-4.34,7.77-4.95,12.19-.44,3.13-.59,6.42.61,9.35a17.75,17.75,0,0,0,3.21,4.81,15.24,15.24,0,0,0,4.34,3.71c3.68,1.87,8.36.9,11.61-1.63s5.27-6.37,6.5-10.31c1.28-4.11,1.79-8.62.37-12.69C437.51,325.29,424.84,321.49,418.64,327.94Z"/><path class="cls-9" d="M423.67,329.07a10.2,10.2,0,0,0-4.17,4,9.8,9.8,0,0,0-1.53,4.08,5.33,5.33,0,0,0,1.15,4.1,2.3,2.3,0,0,0,.79.63,2.18,2.18,0,0,0,1.47,0c2.76-.81,3.25-4.75,5.7-6.27a14.58,14.58,0,0,1,2.92-1.08,3.38,3.38,0,0,0,2.27-1.95,2.82,2.82,0,0,0-.78-2.65C429.63,328,426,328,423.67,329.07Z"/><path class="cls-10" d="M309.26,404.5a5.8,5.8,0,0,0,2.51,1.33,6.6,6.6,0,0,0,5.22-1.5,52.26,52.26,0,0,0,3.8-3.79c5.63-5.41,14.63-6.72,22.87-6.68s16.65,1.08,24.61-.9a3.12,3.12,0,0,0,2.14-1.26c.52-1.07-.6-2.2-1.76-2.74-4.44-2.07-9.84-.51-14.85.1-6.15.76-12.36,0-18.54-.43s-12.58-.49-18.36,1.57C311.35,392.17,303.23,399.24,309.26,404.5Z"/><path class="cls-5" d="M271.75,321.44a5.78,5.78,0,0,0,5.41-.49,30.51,30.51,0,0,0,4.39-3.56,25.74,25.74,0,0,1,18.14-6,6.42,6.42,0,0,0,1.91-.05c1.92-.46,2.81-2.93,2.12-4.78a6.93,6.93,0,0,0-4.32-3.76c-6.1-2.27-12.87.21-18.76,3C277.34,307.34,263.93,317.39,271.75,321.44Z"/><path class="cls-5" d="M420.45,298.93a5.8,5.8,0,0,0,4.5,3,31.47,31.47,0,0,0,5.66,0,25.7,25.7,0,0,1,17.85,6.8A6.07,6.07,0,0,0,450,310c1.78.85,4-.5,4.67-2.36a7,7,0,0,0-1-5.65c-3.29-5.61-10.11-8-16.43-9.54C433.69,291.53,417,290.85,420.45,298.93Z"/><path class="cls-2" d="M357.4,263.41a15.28,15.28,0,0,0-3.62-14,31.51,31.51,0,0,1,16.81,10.87c.09-3.54,2.57-6.57,5.29-8.83a33.27,33.27,0,0,1,19.81-7.61,24.07,24.07,0,0,0-5.78,23.88,13.24,13.24,0,0,1,11.27-3.62c-2.9.44-4.12,4.29-3.08,7s3.47,4.68,5.61,6.7,4.19,4.59,4,7.52c-.21,3.81-4,6.37-7.55,7.73-12.33,4.71-26.35,2.39-38.58-2.59a50.55,50.55,0,0,1-14.49-8.44c-1.5-1.32-3-3-3-5,0-3.35,5.5-3.71,7.65-5.32A15.24,15.24,0,0,0,357.4,263.41Z"/><path class="cls-2" d="M324.39,855.24c5.37,13.63,11.33,28,23.32,36.46a38.12,38.12,0,0,0,30.05,5.86,13,13,0,0,0,6.4-3c1.93-1.89,2.76-4.61,3.36-7.25,1.52-6.6,3.54-13.14,4.11-19.89,3.52-41.31,52.4-39.23,55.93-45.39,4.07-7.12-4.47,4.76-9.74-1.52-13.63-16.25-32.77-27-52.61-34.52s-40.64-12.07-61-18.1c-11.14-3.3-42.45-47.68-41.18-39.77,1.61,10.07,9.35,40.47,11.1,45.79C303.2,801.38,313.8,828.32,324.39,855.24Z"/><path class="cls-2" d="M316.18,851.24A88.15,88.15,0,0,0,293,864.61c-4.91,3.92-9.61,8.56-12.47,14.66s-3.57,14-.56,19.9a10.16,10.16,0,0,0,3.27,4,12.38,12.38,0,0,0,5.59,1.58c28.74,3.26,58.24,4.84,86.12-4.38,4-1.31,8.17-3.08,10.52-7.07,3.47-5.87,1.48-13.92-1.38-20.17-5.85-12.81-14.74-23.36-24.19-32.74a54.3,54.3,0,0,0-10.8-8.85c-7.36-4.22-14.09-2.28-15.86,7.44C331.77,847.12,322.07,849,316.18,851.24Z"/><path class="cls-3" d="M517.12,389a202.76,202.76,0,0,1-.77,41.36c-1.56,12.84-4.53,25.92-12.07,36.42-8.28,11.54-21.4,18.87-35,22.79s-28,4.76-42.13,5.57l-89.75,5.15c-27.07,1.55-54.93,3-80.61-5.72-18.58-6.31-31.54-17-40.55-31.29l.18.83c4.33,19,15.19,37.14,32.1,46.78a76.56,76.56,0,0,0,21.18,7.77c16.66,3.75,33.9,3.92,51,4.07s88.64-3.57,105.75-5.51,34.09-3.88,50.27-9.33A76.47,76.47,0,0,0,496.92,498c15.82-11.35,24.74-30.54,27.07-49.87s-1.27-38.9-6.47-57.65C517.39,390,517.25,389.51,517.12,389Z"/><path class="cls-3" d="M473.52,824.56C511.35,813.49,545,798.94,575.73,767c-12,8.47-24,17-36.73,24.24A254.43,254.43,0,0,1,470,817.71a344.62,344.62,0,0,1-74.8,8.38c-14.11.12-28.12-.75-42.19-1.71,3,.93,5.52,2.51,8.5,3.32,4,1.08,8.06,1.88,12.11,2.63a200,200,0,0,0,24,2.94,217.67,217.67,0,0,0,48.91-2.55A231.31,231.31,0,0,0,473.52,824.56Z"/><path class="cls-4" d="M595.59,396.46A27.44,27.44,0,0,0,589,406.2,26.53,26.53,0,0,0,586.6,419a16.19,16.19,0,0,0,5.89,11.33,20.27,20.27,0,0,0,6,2.92,16.06,16.06,0,0,0,6.16,1c5.28-.38,9.33-4.76,12.28-9.15a38.46,38.46,0,0,0,5.78-12.25,20.26,20.26,0,0,0-1-13.31,11.86,11.86,0,0,0-2.47-3.55C613.1,390.14,601.48,391.17,595.59,396.46Z"/><path class="cls-4" d="M606.76,378.59a8.83,8.83,0,0,0-.19,3.24,8.12,8.12,0,0,0,1.37,3.82,5.06,5.06,0,0,0,3.37,2.12,5.59,5.59,0,0,0,5.2-3,14,14,0,0,0,1.45-6.14,11.6,11.6,0,0,0-.19-3.58,4.44,4.44,0,0,0-2-2.86C611.89,370,607.61,375.39,606.76,378.59Z"/><path class="cls-4" d="M592.64,383.75a7.6,7.6,0,0,0,.58,2.7,6.87,6.87,0,0,0,2,2.82,4.26,4.26,0,0,0,3.24,1A4.73,4.73,0,0,0,602,386.6a12,12,0,0,0-.2-5.36,10,10,0,0,0-1-2.88,3.77,3.77,0,0,0-2.29-1.89C594.92,375.59,592.62,380.94,592.64,383.75Z"/><path class="cls-4" d="M622.08,385.13a11.75,11.75,0,0,0-1.31,2.82,11.27,11.27,0,0,0-.64,3.92,4.67,4.67,0,0,0,1.16,3.18c1.12,1,2.83.54,4.12-.69a16.48,16.48,0,0,0,3.13-4.91,16.26,16.26,0,0,0,1.23-3.25,5.68,5.68,0,0,0-.1-3.31C628.24,379.49,623.77,382.62,622.08,385.13Z"/><path class="cls-5" d="M293.85,903.56c-3.55,3.34-7.07,7.19-7.88,12q15.63-3.12,31.14-6.84a13,13,0,0,0,4.95-1.93,4.5,4.5,0,0,0,1.86-4.67,6.1,6.1,0,0,0-2.37-2.82c-4-3.07-8.8-6.54-13.91-4.89C302.34,896.13,297.85,899.79,293.85,903.56Z"/><path class="cls-5" d="M267,896.65c-3.55,3.34-7.07,7.2-7.89,12q15.65-3.13,31.15-6.84a13,13,0,0,0,4.94-1.94,4.48,4.48,0,0,0,1.87-4.66,6.11,6.11,0,0,0-2.37-2.82c-4-3.07-8.81-6.55-13.91-4.9C275.43,889.22,271,892.89,267,896.65Z"/><path class="cls-5" d="M679.34,704.37c4.76-1,9.93-1.76,14.35.28q-11.4,11.13-23.23,21.83a13.17,13.17,0,0,1-4.4,3,4.49,4.49,0,0,1-4.9-1.1,6.19,6.19,0,0,1-1-3.54c-.25-5.06-.42-11,3.82-14.25C668.41,707.18,674,705.55,679.34,704.37Z"/><path class="cls-2" d="M632.08,720.66a88,88,0,0,1,25.07-9.29c6.16-1.28,12.73-2,19.26-.25s13,6.15,15.67,12.26a10.27,10.27,0,0,1,1,5.06,12.36,12.36,0,0,1-2.35,5.31c-15.83,24.2-33.44,47.93-58.33,63.5-3.54,2.22-7.59,4.33-12.16,3.59-6.73-1.08-11.66-7.75-14.65-13.93-6.13-12.69-8.58-26.25-9.77-39.53a54.75,54.75,0,0,1,.08-14c1.45-8.36,7.24-12.3,15.86-7.46C619,730,626.58,723.75,632.08,720.66Z"/><path class="cls-5" d="M686.61,736.86c4.84-.6,10-.85,14.27,1.59q-12.37,10-25.14,19.62a13.07,13.07,0,0,1-4.65,2.57,4.5,4.5,0,0,1-4.78-1.54,6.16,6.16,0,0,1-.66-3.63c.21-5.05.58-11,5.11-13.83C675.47,738.65,681.16,737.54,686.61,736.86Z"/><path class="cls-5" d="M698.46,711.74c4.84-.6,10.06-.85,14.28,1.59q-12.39,10-25.14,19.62a13.15,13.15,0,0,1-4.65,2.57,4.49,4.49,0,0,1-4.78-1.54,6.16,6.16,0,0,1-.66-3.63c.21-5.05.58-11,5.11-13.83C687.33,713.53,693,712.42,698.46,711.74Z"/><path class="cls-8" d="M330.19,432c.72.4,20,13.85,39.42,13a65.23,65.23,0,0,0,38.44-15.07s.59,47.16-37.43,47.24C335.7,477.16,330.19,432,330.19,432Z"/><path class="cls-11" d="M370.43,477.09c16.42,0,25.63-8.86,30.81-18.87a22.87,22.87,0,0,0-10.57-4.15c-8.2-1-16.47,2.15-23.18,7-5.2-2.88-11.2-4.57-17.1-3.91a18.25,18.25,0,0,0-9.55,3.72C346.92,469.69,356.25,477.12,370.43,477.09Z"/><path class="cls-12" d="M302.48,282.22l53.27-158,71.53,153.39s-17.43,22.49-62.42,24.26C325,303.43,302.48,282.22,302.48,282.22Z"/><path class="cls-11" d="M343.23,162.47c8.91-1.88,17.41-6.38,25-12.1l-4.5-9.66c-1,.53-2,1-3,1.48A55,55,0,0,1,348.8,146Z"/><path class="cls-11" d="M384,184.31c-10.52,5.89-22.66,9.48-34.4,12.7-6.17,1.68-12.66,3.34-18.93,2.62l-7.9,23.44a169,169,0,0,0,68-24.19Z"/><path class="cls-11" d="M408.55,236.89a222.31,222.31,0,0,1-33.87,15.55c-20.32,7.11-42.67,10.1-63.51,5.13l-8.36,24.8a66.94,66.94,0,0,0,13.8,9.17c35.11-7.38,69.27-20.1,99-39.59Z"/><path class="cls-13" d="M343.6,181.19A270.49,270.49,0,0,1,325.66,242c-2.52,5.89-5.27,11.77-6.44,18.07-.59,3.22-.74,6.66.61,9.64s4.5,5.33,7.74,4.85c2.86-.41,5-2.8,6.56-5.25,6.76-10.71,6.39-24.23,8.9-36.63,2.55-12.55,8.17-24.24,11.88-36.5,1.91-6.32,4-15.11.41-21.28C350.72,167,344.55,175.61,343.6,181.19Z"/><path class="cls-3" d="M386.12,849.28c-2.08,7.11-1.25,14.69-1,22.1s-.33,15.3-4.64,21.33c-4,5.6-10.62,8.69-17.15,10.88,21-1.94,24.64-11.36,25.94-13.21,2.53-3.59,3.05-8.18,3.56-12.54a116.64,116.64,0,0,1,3.2-18,33.66,33.66,0,0,1,4.29-9.89,32.6,32.6,0,0,1,7.15-7.21c11.14-8.59,25-13,38.81-15.49a356.31,356.31,0,0,1-38.92,2.09c.3.06.61.16.88.23C398,832.14,389.18,838.81,386.12,849.28Z"/><path class="cls-3" d="M544.22,793.1c6.9-4,14.19-7.85,22.13-8.55s16.08,1.93,23.45,5.32,14.38,7.57,22,10.28c4,1.42,8.28,2.43,12.49,1.86,6-.83,11.08-4.72,15.77-8.57,8.71-7.16,17.24-14.71,23.95-23.77-7.42,5.39-14.91,10.81-23.29,14.54s-17.83,5.66-26.8,3.74c-8-1.72-15-6.33-22.42-9.89s-15.94-6.13-23.68-3.47a37.8,37.8,0,0,0-8.6,4.74l-36.5,24.4c1.24-.83,4.12-.83,5.62-1.34A20.05,20.05,0,0,0,533,800.1C536.7,797.67,540.4,795.31,544.22,793.1Z"/><polygon class="cls-12" points="550.74 190.34 544.47 181.75 533.84 182.05 540.07 173.43 536.5 163.41 546.62 166.67 555.05 160.18 555.07 170.82 563.85 176.83 553.74 180.14 550.74 190.34"/><polygon class="cls-12" points="462.93 112.14 456.89 98.86 442.53 96.31 453.28 86.47 451.27 72.02 463.96 79.21 477.07 72.83 474.16 87.12 484.28 97.62 469.79 99.27 462.93 112.14"/><polygon class="cls-12" points="174.81 223.2 170.69 225.14 169.95 229.64 166.83 226.31 162.32 227 164.52 223 162.48 218.93 166.96 219.79 170.2 216.59 170.77 221.11 174.81 223.2"/><polygon class="cls-12" points="224.02 136.83 207.61 131.72 194.09 142.35 193.88 125.16 179.59 115.59 195.88 110.08 200.56 93.54 210.84 107.32 228.02 106.66 218.09 120.7 224.02 136.83"/><polygon class="cls-12" points="102.1 347.75 95.15 351.18 94.04 358.85 88.64 353.3 81 354.61 84.61 347.75 81 340.9 88.64 342.21 94.04 336.66 95.15 344.33 102.1 347.75"/><polygon class="cls-12" points="655.69 307.8 645.37 300.57 633.56 304.97 637.25 292.92 629.41 283.05 642.01 282.83 648.98 272.33 653.08 284.25 665.22 287.63 655.15 295.21 655.69 307.8"/><path class="cls-11" d="M583.79,230.76c6.21-4.49,13.57-7.75,21.24-7.85s15.62,3.36,19.68,9.87,3.26,16-2.66,20.9-16.43,3.07-19.45-4a17.81,17.81,0,0,1-1.12-7.57c.37-14.24,7.87-28,19.33-36.48a52.56,52.56,0,0,1,40.56-9,34.36,34.36,0,0,1,13.93,5.55c10.49,7.6,13.51,22.1,12.44,35-.43,5.22-1.46,10.57-4.38,14.92s-8.06,7.53-13.26,6.84c-4.9-.66-8.9-4.62-10.75-9.2s-1.89-9.7-1.4-14.62c1.45-14.75,8.56-30.22,22.16-36.12,8.91-3.88,19.34-3,28.43.43,9.62,3.63,18.28,10.21,23.52,19.06,7.76,13.12,7.29,29.72,2.93,44.32a11.86,11.86,0,0,1-1.75,3.94c-3.29,4.32-10,2.88-15.11,1,6.38-2.56,11-8.66,12.63-15.33s.7-13.79-1.71-20.23c-6.95-18.54-28.56-31.72-47.33-25.41a22.62,22.62,0,0,0-10.07,6.38c-5.39,6.28-5.54,15.37-5.4,23.65.08,5,1.32,11.51,6.29,12.35,5.6.94,8.69-6.4,8.84-12.08.23-8.59-1.75-17.8-8-23.72-7.73-7.35-19.67-7.71-30.27-6.51-9.64,1.09-19.46,3.22-27.44,8.72s-13.8,15-12.58,24.64c.53,4.21,3,8.74,7.17,9.46,4.82.83,9.17-4.57,8.27-9.38s-5.71-8.19-10.58-8.62-9.66,1.58-13.73,4.29c-14.38,9.6-21.28,29.11-16.12,45.62-.79-2.54-11.59-4.69-13.79-8.29-2.31-3.78-1.35-8.56-.47-12.68A50.68,50.68,0,0,1,583.79,230.76Z"/><path class="cls-11" d="M154.5,288.26c-6.14-4.59-13.45-8-21.11-8.19s-15.67,3.12-19.83,9.56-3.51,16,2.33,20.94,16.37,3.33,19.51-3.67a18.13,18.13,0,0,0,1.24-7.56c-.15-14.24-7.44-28.13-18.76-36.78A52.59,52.59,0,0,0,77.47,253a34.56,34.56,0,0,0-14,5.33c-10.61,7.43-13.86,21.88-13,34.81.35,5.23,1.3,10.59,4.15,15s7.94,7.66,13.15,7.05c4.91-.58,9-4.48,10.89-9s2-9.66,1.64-14.59c-1.23-14.77-8.09-30.35-21.6-36.47-8.85-4-19.29-3.31-28.44,0-9.67,3.49-18.43,9.92-23.81,18.69-8,13-7.76,29.61-3.62,44.27a11.89,11.89,0,0,0,1.69,4c3.22,4.37,10,3,15.09,1.26-6.34-2.66-10.82-8.84-12.39-15.53s-.49-13.8,2-20.2c7.24-18.43,29.06-31.27,47.73-24.67a22.62,22.62,0,0,1,10,6.54c5.29,6.37,5.29,15.46,5,23.73-.16,5-1.5,11.49-6.48,12.25-5.62.85-8.6-6.54-8.66-12.22-.09-8.59,2-17.77,8.35-23.59,7.84-7.23,19.78-7.4,30.36-6,9.62,1.24,19.41,3.52,27.31,9.15s13.55,15.23,12.19,24.83c-.6,4.2-3.13,8.69-7.32,9.34-4.83.75-9.1-4.71-8.13-9.5s5.84-8.11,10.72-8.46,9.63,1.73,13.66,4.51c14.23,9.82,20.82,29.44,15.4,45.86.83-2.52,11.67-4.5,13.92-8.07,2.37-3.74,1.49-8.53.67-12.67A50.67,50.67,0,0,0,154.5,288.26Z"/><path class="cls-11" d="M313.14,96.67c-1.38-6.17-4.12-12.37-8.73-17S293.1,72,287.15,73.07,276.6,79.75,277.6,86s8.35,11.56,14,9.59a12.36,12.36,0,0,0,4.73-3.41c7.39-7.91,10.19-19.86,7.74-31.34s-9.95-22.3-19.89-29.32a31.71,31.71,0,0,0-11.45-5.42c-10.45-2.23-20,3.77-26.29,11.38-2.53,3.08-4.76,6.59-5.31,10.7a12.9,12.9,0,0,0,4.41,11.69A12,12,0,0,0,257,61.34c3.58-1.35,6.33-4.09,8.67-7,7-8.83,10.95-21.47,5.82-32.86C268.11,14,261.3,8.15,253.92,4.52,246.12.67,237.34-1,229.42.61,217.68,3,209.08,12.24,203.93,22.75a8.63,8.63,0,0,0-1,3.18c-.3,4.32,4.56,7.6,8.66,9.67a17.54,17.54,0,0,1,.5-15.89c2.54-4.61,6.95-7.87,11.86-9.88,14.14-5.81,34.35.12,42.4,14.85A19.74,19.74,0,0,1,269,34.2c-.08,6.64-4.85,11.63-9.36,16-2.74,2.67-7,5.42-10.43,2.87-3.92-2.88-1.87-8.7,1.07-11.85,4.46-4.78,10.58-8.55,17.54-8,8.64.7,16.09,7.71,21.91,14.76,5.28,6.4,10.12,13.47,12,21.26s.37,16.42-5.52,20.88c-2.57,2-6.49,2.91-9.42.78-3.37-2.46-3.14-8,0-10s7.87-1,11.06,1.73,5,6.68,6.06,10.6c3.63,13.86-2.61,28.54-14.58,34.33,1.84-.89,9.57,4.47,12.83,3.86,3.43-.65,5.4-3.81,7.07-6.56C314.12,116.84,315.33,106.47,313.14,96.67Z"/></g></g></svg>