<svg xmlns="http://www.w3.org/2000/svg" viewBox="0 0 493.27 650.78"><defs><style>.cls-1{fill:#cae8ea;}.cls-2{fill:#936560;}.cls-3{fill:#7c5650;}.cls-4{fill:#a07065;}.cls-5{fill:#d89687;}.cls-6{fill:#c6877d;}.cls-7{fill:#ffd2c2;}.cls-8{fill:#443835;}.cls-10,.cls-13,.cls-9{fill:#fff;}.cls-10{opacity:0.26;}.cls-11{fill:#6a727a;opacity:0.58;}.cls-12{fill:#231f20;}.cls-13{opacity:0.52;}.cls-14{fill:#f7e9e2;}.cls-15{fill:#685e61;}.cls-16{fill:#4c4446;}</style></defs><title>Asset 1</title><g id="Layer_2" data-name="Layer 2"><g id="Layer_2-2" data-name="Layer 2"><path class="cls-1" d="M493.27,637.14c0,7.53-110.42,13.64-246.64,13.64S0,644.67,0,637.14,110.42,623.5,246.63,623.5,493.27,629.61,493.27,637.14Z"/><path class="cls-2" d="M409.22,275.82C398.28,257.2,381,242.87,361.7,233.09c-9.35-4.75-20.14-8.56-30.17-5.52-13.72,4.14-20.94,19.81-21.17,34.14-.24,14.93,5.27,29.65,14.09,41.71s20.77,21.58,33.81,28.87c9.47,5.3,19.83,9.41,30.61,11,7.24,1.07,19,2.17,23.28-5.38,1.66-2.92,6.34-9.94,6.67-13.38.52-5.51,2.11-11.33,1.4-16.82A84.09,84.09,0,0,0,409.22,275.82Z"/><path class="cls-2" d="M22.32,272.28C34,254.13,51.91,240.51,71.54,231.53c9.54-4.36,20.47-7.73,30.38-4.29,13.54,4.7,20.11,20.65,19.76,35-.37,14.93-6.48,29.41-15.78,41.1s-21.64,20.71-35,27.46c-9.68,4.91-20.2,8.6-31,9.75-7.28.77-20.55,2.34-24.54-5.38-1.55-3-2.4-10.1-2.58-13.54-.3-5.53-3.68-12.45-2.75-17.91A84.25,84.25,0,0,1,22.32,272.28Z"/><path class="cls-3" d="M440.93,600.11c4.33,2.24,8.77,5,10.88,9.38q-15.9,1.29-31.83,2a13.08,13.08,0,0,1-5.29-.5,4.49,4.49,0,0,1-3.07-4,6.22,6.22,0,0,1,1.5-3.37c3-4,6.67-8.71,12-8.52C430.73,595.3,436,597.59,440.93,600.11Z"/><path class="cls-3" d="M59.57,611.84c-3.76,3.1-7.51,6.73-8.63,11.47q15.8-2.12,31.51-4.84a13,13,0,0,0,5.06-1.62,4.48,4.48,0,0,0,2.16-4.53,6.09,6.09,0,0,0-2.18-3c-3.83-3.32-8.38-7.09-13.57-5.77C68.51,605,63.8,608.33,59.57,611.84Z"/><path class="cls-4" d="M68.31,478.07c4,17.22,9,34.55,18.92,49.35,13.93,20.9,36.68,35.16,60.93,43s50.09,9.82,75.64,10.21c39.2.6,80.25-2.89,113.49-23.16,8.91-5.43,17.32-12.25,22.11-21.36s5.55-19.55,6.24-29.7c4.49-65.24,9-130.9,1.51-195.88-3-26.56-8.29-53.45-21.74-76.73-6-10.38-13.65-20-23.28-27.32-11.83-9-26.21-14.32-40.71-18.15-35.51-9.37-73.56-10.56-109-1.13C138,196.37,93.65,218.74,79.45,252.9,61,297.31,54.85,346.67,56.75,394.3A449.61,449.61,0,0,0,68.31,478.07Z"/><path class="cls-5" d="M65.39,304C69.21,331.34,86,358.75,107.46,375c29.86,22.5,70.36,19.68,105.72,30.56,15,4.61,30.22,12.77,37.23,27.28-1.37-7,2.07-14.22,7-19.16s11.25-8.1,17.31-11.44c22.42-12.38,45-30.67,64.24-47.84,31.12-27.72,38-82.65,12.85-108.94-20.75-21.65-44.7-39.35-72.77-48.46-31.84-10.34-65.11-16.35-98.47-16.14-19.88.13-40,2.5-58.64,9.56-16.19,6.12-16.55,23.32-34.82,37.19C68.22,241.89,61.44,275.81,65.39,304Z"/><path class="cls-6" d="M351.82,245.41a226.45,226.45,0,0,0-25.21-22.8c-1.35.07-2.69.19-4,.36,13.79,11.21,28.73,24.52,30.21,42.65.64,7.88-1.44,15.73-4,23.17A169,169,0,0,1,303.65,358l.09-20.6a80.92,80.92,0,0,1-23.64,32.85,128.66,128.66,0,0,0,5.61-62.08c-3.95,34.33-23.57,66.36-51.82,84.6-2.46,1.59-5.63,3.09-8.09,1.51-1.65-1.06-2.34-3.14-2.92-5.06q-2.79-9.3-5.57-18.6-2.91,9.64-5.81,19.28a138.41,138.41,0,0,1-42.85-21.12c-8-5.82-15.86-13.43-17.18-23.47q1,9.82,1.93,19.63c-30.49-6.26-57.59-28.25-70.84-57.46A108.64,108.64,0,0,1,74.07,250c.31-2.5.66-5.38,1.12-8.37-9.69,16.91-12.77,41.29-9.8,62.46C69.21,331.34,86,358.75,107.46,375c29.86,22.5,70.36,19.68,105.72,30.56,15,4.61,30.22,12.77,37.23,27.28-1.37-7,2.07-14.22,7-19.16s11.25-8.1,17.31-11.44c22.42-12.38,45-30.67,64.24-47.84C370.09,326.63,377,271.7,351.82,245.41Z"/><path class="cls-3" d="M350.81,15a38,38,0,0,0-32.68,9.4c-4.78,4.47-8.42,10.21-13.9,13.78-5,3.26-11.46,4.64-15.15,9.35s-3.45,11.8-1.4,17.59a36.45,36.45,0,0,0,26,23c9,2,18.52.43,27.38-2.26C352.21,82.39,363.19,77,370.65,68,387.39,47.78,376,19.85,350.81,15Z"/><path class="cls-4" d="M301.25,53c2.42-1,5.12-1.1,7.74-1.33,11.38-1,23.16-6.5,28.2-16.75,2.21-4.49,3.09-9.76,6.5-13.43,4.68-5.05,12.87-5.34,19.18-2.59,8.85,3.85,16.42,12.38,19.9,24.66,2.63,9.28,1,26.61-7.12,37.63-13.42,18.28-27.87,18.31-36.34,18.19l-3.85-4.91c-8.35,6.24-21.11,5.64-28.84-1.36-3.84-3.47-6.37-8.13-8.58-12.81s-4.21-9.57-4.15-14.72S296.52,55.05,301.25,53Z"/><path class="cls-7" d="M356,83.72a32.7,32.7,0,0,0,10.38-19.93c.68-5.37-.11-11.15-3.38-15.45s-9.4-6.64-14.37-4.5-7.3,7.66-9.82,12.43c-2.95,5.58-6.88,10.89-12.39,14-4,2.22-8.58,3.18-12.45,5.57s-7,7.12-5.4,11.38c1.07,2.87,4,4.64,6.85,5.67,7.54,2.67,13.53,0,20.91-.9S350.36,88.82,356,83.72Z"/><path class="cls-3" d="M87.83,5.75A38,38,0,0,1,119.75,17.5c4.44,4.8,7.65,10.79,12.86,14.75,4.76,3.62,11.09,5.46,14.43,10.42s2.58,12,.11,17.66a36.44,36.44,0,0,1-27.56,21c-9.16,1.34-18.5-.92-27.14-4.25C81.54,72.9,71,66.68,64.19,57.16,49,35.82,62.38,8.79,87.83,5.75Z"/><path class="cls-4" d="M134.5,47.33c-2.34-1.21-5-1.47-7.62-1.89C115.6,43.58,104.25,37.28,100,26.68c-1.88-4.63-2.38-10-5.51-13.86-4.3-5.37-12.45-6.26-18.95-4C66.41,12,58.24,20,53.88,32,50.58,41.06,51,58.46,58.24,70,70.31,89.25,84.71,90.32,93.17,90.83l4.19-4.63c7.88,6.83,20.64,7.16,28.87.74,4.07-3.18,6.94-7.64,9.49-12.15s4.89-9.24,5.21-14.38S139.07,49.68,134.5,47.33Z"/><path class="cls-7" d="M77.67,74a32.69,32.69,0,0,1-8.92-20.63c-.29-5.4.92-11.11,4.5-15.16s9.86-5.95,14.66-3.45,6.73,8.17,8.89,13.12c2.54,5.78,6.07,11.35,11.34,14.82,3.81,2.51,8.33,3.8,12,6.47s6.46,7.6,4.56,11.74c-1.29,2.78-4.29,4.34-7.25,5.15-7.72,2.12-13.5-1-20.79-2.41S82.91,79.45,77.67,74Z"/><path class="cls-4" d="M364.33,152.71a284.94,284.94,0,0,0-20.95-61.77c-4.72-9.8-10.15-19.37-17.35-27.53C313.84,49.63,296.93,41,279.8,34.33c-30.56-12-97.24-11.19-132,0-17.52,5.63-34,15.3-46.23,29.08C94.33,71.57,88.9,81.14,84.19,90.94a284.43,284.43,0,0,0-21,61.77c-4.22,19-6.8,38.74-3.46,57.92S73,248.51,89.39,259a76.39,76.39,0,0,0,20.75,8.86c16.45,4.61,33.65,5.67,50.7,6.71s88.71,1.05,105.89,0,34.25-2.1,50.69-6.71A76.26,76.26,0,0,0,338.17,259c16.39-10.51,26.29-29.21,29.63-48.39S368.55,171.72,364.33,152.71Z"/><path class="cls-2" d="M364.1,151.26a203.07,203.07,0,0,1-2.92,41.27c-2.22,12.73-5.87,25.64-13.94,35.74-8.87,11.09-22.35,17.73-36.18,20.94s-28.17,3.3-42.36,3.37l-89.9.47c-27.11.14-55,.14-80.2-9.9C80.37,235.89,68,224.58,59.73,209.8c0,.28.09.55.14.83C63.2,229.81,73.11,248.51,89.49,259a76.39,76.39,0,0,0,20.75,8.86c16.45,4.61,33.65,5.67,50.7,6.71s88.71,1.05,105.89,0,34.25-2.1,50.69-6.71A76.26,76.26,0,0,0,338.27,259c16.39-10.51,26.29-29.21,29.63-48.39s.75-38.91-3.47-57.92C364.33,152.23,364.21,151.74,364.1,151.26Z"/><path class="cls-7" d="M298.09,199.64c-.8-10.43-4-21.21-11.58-28.39-4.83-4.56-11.07-7.32-17.36-9.46-15.8-5.38-94.93-5.38-110.74,0-6.29,2.14-12.53,4.9-17.36,9.46-7.61,7.18-10.77,18-11.58,28.39-.87,11.28,1.46,24.1,10.74,30.57,5.88,4.09,13.37,4.82,20.23,6.91a50.59,50.59,0,0,1,15.63,8c4,3,7.65,6.29,11.39,9.53,14.35,12.46,42.47,10.63,52.65,0a91.92,91.92,0,0,1,11.38-9.53,50.75,50.75,0,0,1,15.64-8c6.85-2.09,14.35-2.82,20.23-6.91C296.64,223.74,299,210.92,298.09,199.64Z"/><path class="cls-8" d="M175.1,153.32c-5.66,0-17.49,2-22.21,5.08-6.82,4.51-7.7,15.71-1.67,21.22a19.27,19.27,0,0,0,8.33,4.12c7,1.78,14.35,1.19,21.57,1.55s14.86,1.94,20,7.05c2.33,2.33,4,5.26,6.36,7.55s5.89,3.88,8.94,2.66,4.34-4.4,6.29-6.87c4.09-5.19,10.91-7.77,17.5-8.22,26.13-1.78,38.93-6.55,38.93-17.82,0-8.79-13.44-16.37-31.21-14.7C225.65,157,192.9,153.32,175.1,153.32Z"/><path class="cls-3" d="M131.71,95.86c.31,6.21,3.56,11.87,7.07,17,2.17,3.17,4.57,6.35,7.93,8.22s7.91,2.11,10.82-.41a12,12,0,0,0,3.12-5.13,35.08,35.08,0,0,0-.49-24.86c-1.31-3.21-3.22-6.35-6.19-8.16A14.61,14.61,0,0,0,131.71,95.86Z"/><path class="cls-8" d="M139.57,103.7c-.89,3.76.17,7.72,1.66,11.29a15.73,15.73,0,0,0,4.57,6.72,15.39,15.39,0,0,0,4.52,2.19,13,13,0,0,0,4.88.86c3.57-.21,6.64-3,8-6.33a17.68,17.68,0,0,0,.32-10.56c-.85-3.64-2.45-7.24-5.3-9.65C152.51,93.42,141.37,96.14,139.57,103.7Z"/><path class="cls-9" d="M143.83,102.33a8.88,8.88,0,0,0-1.34,4.86,8.73,8.73,0,0,0,.64,3.72,4.71,4.71,0,0,0,2.67,2.57,2.16,2.16,0,0,0,.87.12,1.88,1.88,0,0,0,1.12-.62c1.71-1.82.34-5,1.5-7.2a12.6,12.6,0,0,1,1.71-2.09,2.93,2.93,0,0,0,.84-2.46,2.46,2.46,0,0,0-1.75-1.64C147.83,98.93,145.1,100.49,143.83,102.33Z"/><path class="cls-3" d="M264.89,86.59c-2.87,5.51-2.93,12-2.51,18.25.26,3.83.73,7.79,2.68,11.1s5.76,5.82,9.53,5.12a12,12,0,0,0,5.29-2.84A35,35,0,0,0,292,96.54c.5-3.44.44-7.11-1.2-10.18A14.62,14.62,0,0,0,264.89,86.59Z"/><path class="cls-8" d="M267.71,97.33c-2.68,2.79-3.76,6.74-4.29,10.58A15.79,15.79,0,0,0,264,116a15.36,15.36,0,0,0,2.79,4.18,13.31,13.31,0,0,0,3.77,3.21c3.19,1.62,7.25.77,10.07-1.43a17.75,17.75,0,0,0,5.63-9c1.1-3.57,1.54-7.48.31-11C284.07,95,273.08,91.73,267.71,97.33Z"/><path class="cls-9" d="M272.07,98.31a8.77,8.77,0,0,0-3.61,3.51,8.45,8.45,0,0,0-1.33,3.53,4.69,4.69,0,0,0,1,3.57,2,2,0,0,0,.69.54,1.79,1.79,0,0,0,1.27,0c2.4-.7,2.82-4.12,5-5.45a12.65,12.65,0,0,1,2.52-.93,3,3,0,0,0,2-1.7,2.45,2.45,0,0,0-.69-2.3C277.24,97.4,274.1,97.36,272.07,98.31Z"/><path class="cls-10" d="M155.72,172.16a5.77,5.77,0,0,0,2.43,1.47,6.6,6.6,0,0,0,5.3-1.23,50.45,50.45,0,0,0,4-3.59c5.89-5.11,15-5.94,23.18-5.48s16.57,1.95,24.62.38a3.1,3.1,0,0,0,2.2-1.14c.58-1-.48-2.23-1.61-2.83-4.33-2.3-9.8-1-14.83-.67-6.18.43-12.35-.65-18.49-1.4s-12.54-1.14-18.42.61C158.46,160,150,166.6,155.72,172.16Z"/><path class="cls-3" d="M122.24,77.66a5.76,5.76,0,0,0,5.42-.2,30.93,30.93,0,0,0,4.58-3.33,25.72,25.72,0,0,1,18.42-5.06,6.45,6.45,0,0,0,1.91.05c1.94-.36,3-2.78,2.37-4.66a7,7,0,0,0-4.12-4c-6-2.58-12.87-.46-18.9,2C128.55,63.87,114.64,73.21,122.24,77.66Z"/><path class="cls-3" d="M270.44,65.33a5.78,5.78,0,0,0,4.34,3.27,31.19,31.19,0,0,0,5.64.31,25.76,25.76,0,0,1,17.48,7.73,6.4,6.4,0,0,0,1.45,1.25c1.73.94,4-.3,4.78-2.13a7,7,0,0,0-.68-5.68c-3-5.78-9.68-8.49-15.91-10.38C284.05,58.64,267.36,57.08,270.44,65.33Z"/><path class="cls-4" d="M211.13,17.51a15.3,15.3,0,0,0-2.89-14.13,31.62,31.62,0,0,1,16.22,11.74c.27-3.53,2.91-6.43,5.75-8.55A33.28,33.28,0,0,1,250.39,0a24.07,24.07,0,0,0-7,23.55,13.25,13.25,0,0,1,11.45-3c-2.93.29-4.34,4.07-3.45,6.88s3.23,4.84,5.26,7,3.94,4.8,3.63,7.73c-.41,3.79-4.31,6.15-7.94,7.32-12.56,4.07-26.44,1-38.39-4.59a50.34,50.34,0,0,1-14-9.18c-1.44-1.4-2.84-3.15-2.73-5.16.18-3.34,5.68-3.41,7.91-4.91A15.17,15.17,0,0,0,211.13,17.51Z"/><path class="cls-8" d="M213.33,188.83c.1,7.81.22,15.72-1.34,23.4a36.51,36.51,0,0,1-3.66,10.82c-1.94,3.4-5.24,5.16-8.82,6.47A40.35,40.35,0,0,1,186.42,232a1.2,1.2,0,0,0,0,2.39,42.73,42.73,0,0,0,12.44-2.08c3.58-1.18,7.44-2.74,9.93-5.71s3.85-7,4.83-10.81a66.4,66.4,0,0,0,1.9-12.47c.32-4.81.27-9.63.2-14.45a1.2,1.2,0,0,0-2.39,0Z"/><path class="cls-8" d="M212.75,192q-.1,6.33-.22,12.67c-.08,4-.42,8.2.13,12.22.91,6.68,5.65,12.11,11.73,14.78a28,28,0,0,0,12.37,2.23c1.54-.06,1.54-2.45,0-2.39-8.19.31-17.28-3-20.71-11.06-1.79-4.21-1.25-9.08-1.17-13.55q.12-7.44.26-14.9a1.2,1.2,0,0,0-2.39,0Z"/><path class="cls-4" d="M109.85,588.43c5.74,13.48,12.11,27.73,24.33,35.8a38.14,38.14,0,0,0,30.19,5,13.22,13.22,0,0,0,6.32-3.2c1.88-1.95,2.63-4.69,3.16-7.34,1.33-6.65,1.69-13.49,3.55-20s5.55-12.93,11.6-16c6.34-3.2,13.86-2.15,21-2.11s15.25-1.69,18.6-8c3.87-7.22-.86-16-6.3-22.15-14.08-15.86-33.52-26.09-53.56-33s-41-10.92-61.46-16.37C96,498.12,63.47,454.62,65,462.5c1.89,10,10.48,40.2,12.37,45.46C87.15,535.18,98.5,561.82,109.85,588.43Z"/><path class="cls-4" d="M302.61,593.75c10.35,11.87,19.85,25.35,34.58,32,14,6.37,30.67,5.47,45.63,1.44,2.71-.73,5.53-1.64,7.42-3.6,3.9-4.07,2.12-10.45-.07-15.51-7.66-17.73-17.82-34.72-22.07-53.42-4.92-21.62-1.63-44.07-3.17-66.13-.41-5.8-1.36-12-5.64-16.25-3.83-3.79-9.59-5.21-15.09-6-35.76-5.15-72.14,9.53-99.66,31.48-8,6.36-15.51,13.48-20.51,22.1s-7.27,19-4.39,28.4c5.11,16.74,22.2,21.52,38.69,22C277.35,570.88,290.78,580.18,302.61,593.75Z"/><path class="cls-4" d="M101.52,584.66a88,88,0,0,0-22.77,14c-4.8,4.06-9.37,8.82-12.06,15s-3.18,14,0,19.9a10.21,10.21,0,0,0,3.38,3.87,12.43,12.43,0,0,0,5.63,1.42c28.82,2.45,58.36,3.21,86-6.79,3.93-1.42,8.09-3.31,10.33-7.36,3.3-6,1.08-14-2-20.12-6.21-12.65-15.39-22.94-25.1-32.06a54.2,54.2,0,0,0-11-8.54c-7.48-4-14.15-1.88-15.65,7.89C117,580.11,107.34,582.23,101.52,584.66Z"/><path class="cls-4" d="M418.63,592.33c4.89,3.95,9.57,8.62,12.39,14.74s3.48,14,.44,19.89a10.12,10.12,0,0,1-3.3,3.95,12.28,12.28,0,0,1-5.6,1.54c-28.76,3.08-54.56,4.48-82.37-4.91-4-1.34-8.16-3.13-10.48-7.13-3.43-5.9-1.39-13.93,1.5-20.16,5.94-12.78,14.89-23.27,24.4-32.6,3.38-3.32,8.19-13.73,14.34-6C377.41,571,411.53,586.59,418.63,592.33Z"/><path class="cls-2" d="M233,581.86c39.4-1.11,75.6-6.65,113.48-29.78-13.74,5.16-27.5,10.32-41.68,14.13a254.45,254.45,0,0,1-73.52,8.13,345.2,345.2,0,0,1-74.47-10.88c-13.68-3.47-27-7.86-40.38-12.35,2.62,1.64,4.7,3.82,7.38,5.36,3.58,2,7.32,3.87,11.05,5.62A201.39,201.39,0,0,0,157.31,571a217.57,217.57,0,0,0,48,9.94A228.67,228.67,0,0,0,233,581.86Z"/><path class="cls-2" d="M171.72,580.06c-4.88,4.53-6.68,11.5-7.13,18.15s.22,13.36-.77,19.94-4,13.34-9.88,16.55c4.24-1.39,8.43-3,12.54-4.67a18.63,18.63,0,0,0,4.68-2.55c4.15-3.4,4.82-9.36,5.51-14.69,1-7.87,3-16,8.37-21.9,4.77-5.2,11.7-7.93,18.61-9.38s14-1.77,20.94-3.08c-9.66,0-20-2.63-29.62-3.89-4.26-.56-8.45-1.79-12.28-.27S174.85,577.14,171.72,580.06Z"/><path class="cls-2" d="M290.67,584.44c5.37,4.46,9.66,10,14.22,15.32,11.56,13.39,25.63,25.32,42.53,30.54-9.95-5.69-20.05-11.5-27.93-19.81-2.46-2.59-4.67-5.4-6.88-8.2-5.36-6.79-8.51-11.06-12.21-18.88-.91-1.94-2-9.16,3.81-12-4.43-1.27-10,.39-12.95.74-7.74.92-17.83,5.14-25.3,7.39C274,578.5,284.62,579.43,290.67,584.44Z"/><path class="cls-3" d="M80.67,637.59C77.21,641,73.8,645,73.12,649.81q15.55-3.57,30.95-7.71A13.15,13.15,0,0,0,109,640a4.48,4.48,0,0,0,1.73-4.71,6.13,6.13,0,0,0-2.45-2.75c-4.11-3-9-6.3-14-4.5C88.94,629.92,84.56,633.71,80.67,637.59Z"/><path class="cls-3" d="M53.58,631.44c-3.45,3.44-6.86,7.39-7.54,12.22Q61.58,640.09,77,636a12.92,12.92,0,0,0,4.89-2.08,4.48,4.48,0,0,0,1.73-4.71,6.07,6.07,0,0,0-2.45-2.75c-4.11-3-9-6.3-14-4.5C61.86,623.77,57.48,627.56,53.58,631.44Z"/><path class="cls-3" d="M414.61,625.64c4.11,2.62,8.28,5.75,10,10.33q-15.94-.16-31.88-.94a13,13,0,0,1-5.22-1,4.48,4.48,0,0,1-2.69-4.23,6,6,0,0,1,1.8-3.21c3.39-3.77,7.44-8.07,12.76-7.39C404.89,619.91,410,622.68,414.61,625.64Z"/><path class="cls-3" d="M448.77,619.49c4.11,2.62,8.28,5.75,10,10.33q-15.94-.17-31.88-.94a13,13,0,0,1-5.22-1,4.48,4.48,0,0,1-2.69-4.23,6.09,6.09,0,0,1,1.8-3.21c3.39-3.77,7.44-8.07,12.76-7.39C439.05,613.76,444.14,616.53,448.77,619.49Z"/><circle class="cls-11" cx="285.11" cy="104.32" r="47.66" transform="translate(172.46 386.25) rotate(-88.32)"/><path class="cls-12" d="M285.43,157.73a54.19,54.19,0,1,1,54.2-54.19A54.25,54.25,0,0,1,285.43,157.73Zm0-95.32a41.13,41.13,0,1,0,41.13,41.13A41.18,41.18,0,0,0,285.43,62.41Z"/><path class="cls-13" d="M251.63,88.67c-1,2.87-1.31,6.61,1.13,8.43,2.26,1.67,5.65.56,7.57-1.5s2.86-4.82,4.18-7.31a25.18,25.18,0,0,1,18.11-12.83c1.23-.19,2.78-.55,3-1.78a2.27,2.27,0,0,0-.9-2c-4.79-4.34-14.48-1.44-19.34,1.18A29.24,29.24,0,0,0,251.63,88.67Z"/><circle class="cls-11" cx="152.05" cy="103.72" r="47.66" transform="translate(16.17 227.87) rotate(-76.72)"/><path class="cls-12" d="M154.94,157.93a54.2,54.2,0,1,1,54.2-54.2A54.25,54.25,0,0,1,154.94,157.93Zm0-95.33a41.14,41.14,0,1,0,41.14,41.13A41.18,41.18,0,0,0,154.94,62.6Z"/><path class="cls-13" d="M121.54,88.87c-1,2.87-1.3,6.61,1.14,8.42,2.26,1.68,5.65.57,7.57-1.5s2.85-4.82,4.18-7.3a25.22,25.22,0,0,1,18.11-12.84c1.23-.19,2.78-.55,3-1.78a2.26,2.26,0,0,0-.9-2c-4.8-4.34-14.48-1.45-19.35,1.17A29.34,29.34,0,0,0,121.54,88.87Z"/><path class="cls-12" d="M230.34,92.65a11.86,11.86,0,0,1,4.54,2.65,13.44,13.44,0,0,1,2.61,4.85c1.6,4.36,3.2,9.09,1.65,13.47-3-1.56-5-4.33-7.76-6.22a17.24,17.24,0,0,0-11.65-2.64,20.93,20.93,0,0,0-10.89,4.84c-1.36,1.15-2.85,2.55-4.69,2.4-5.45-.46-3.78-10.37-1.89-13.18,3.11-4.63,11-7.07,16.51-7.57A27,27,0,0,1,230.34,92.65Z"/><path class="cls-14" d="M176.93,339.27c-1.07-12.48,2.67-25,8.85-36.14a33.5,33.5,0,0,0-12.11,14.13c-3.72-4.13-6.22-10.82-10.25-14.15-1.9,4.34,2.56,14.1,4.3,18.59a89.11,89.11,0,0,0,4.2,9.24C173.05,333.08,176.74,337,176.93,339.27Z"/><path class="cls-14" d="M199.35,386.34c-1.07-12.48,2.67-25,8.85-36.14a33.54,33.54,0,0,0-12.11,14.12c-3.72-4.12-6.22-10.81-10.25-14.14-1.9,4.34,2.56,14.1,4.3,18.59a89.11,89.11,0,0,0,4.2,9.24C195.47,380.15,199.16,384.09,199.35,386.34Z"/><path class="cls-14" d="M248.67,368.26c-1.08-12.48,2.67-25,8.84-36.14a33.51,33.51,0,0,0-12.1,14.12c-3.73-4.12-6.23-10.81-10.26-14.14-1.9,4.34,2.56,14.1,4.3,18.59a87.14,87.14,0,0,0,4.21,9.24C244.79,362.07,248.47,366,248.67,368.26Z"/><path class="cls-14" d="M225.38,426.35c-.88-10.23,2.19-20.5,7.25-29.61a27.42,27.42,0,0,0-9.92,11.57c-3.05-3.38-5.1-8.86-8.4-11.59-1.56,3.56,2.1,11.55,3.53,15.23a69.5,69.5,0,0,0,3.44,7.57C222.2,421.27,225.22,424.5,225.38,426.35Z"/><path class="cls-14" d="M168.3,414.08c-.88-10.22,2.19-20.5,7.24-29.61A27.52,27.52,0,0,0,165.63,396c-3-3.37-5.1-8.86-8.4-11.58-1.56,3.55,2.09,11.55,3.52,15.23a73.37,73.37,0,0,0,3.44,7.56C165.12,409,168.14,412.24,168.3,414.08Z"/><path class="cls-14" d="M269.06,402.08c-.88-10.22,2.19-20.5,7.24-29.61a27.49,27.49,0,0,0-9.91,11.58c-3.05-3.38-5.1-8.87-8.4-11.59-1.56,3.55,2.09,11.55,3.52,15.23a73.37,73.37,0,0,0,3.44,7.56C265.88,397,268.9,400.24,269.06,402.08Z"/><path class="cls-14" d="M26.05,269.21c.54.17,31.84-27.36,31.84-27.36s43.92,3.56,77.05,19.34,81.35,47.66,81.35,47.66,25.6-28.47,60.29-38.7,99.28-28.3,99.28-28.3L407,265.21s-148.15,70.32-147.83,70.6S169.3,365.1,169.3,365.1Z"/><path class="cls-15" d="M14.51,273,21,267.47l170.36,52.41s10.48,10.54,25.64,11.33c17.29.89,24.68-11.6,24.68-11.6l170.73-56.68,4.54,4.54L267.56,334.4,170.75,352Z"/><polygon class="cls-12" points="14.51 272.98 189.61 326.53 205.43 485.05 56.64 414.08 14.51 272.98"/><polygon class="cls-12" points="416.94 267.47 242.96 326.53 232.69 484.61 379.21 409.65 416.94 267.47"/><path class="cls-16" d="M189.61,326.53A35.34,35.34,0,0,0,215,336.1c19.52-.44,28-9.57,28-9.57L232.69,484.61s-2.29,4.49-12.11,4.12-15.15-3.68-15.15-3.68Z"/><path class="cls-15" d="M198.29,318.2h36.4a22,22,0,0,1-17.51,9.54C207,328.28,198.29,318.2,198.29,318.2Z"/><path class="cls-9" d="M64.23,249.75c1.07.28,50.21,8.76,82.18,23.23s59.09,40.07,57.89,39.51S167.39,285.76,136.9,273c-18.35-7.69-86.29-18.73-86.29-18.73Z"/><path class="cls-9" d="M222.88,314.57c-.56-.82,17.92-25.84,42-33.44S371.6,248.35,371.6,248.35l8.57,4.17S279.92,278.12,267,282.83C240.58,292.41,222.88,314.57,222.88,314.57Z"/><path class="cls-9" d="M230.24,312.5s21.7-20.64,57.48-28.85S392.47,259.3,392.47,259.3l5.23,3.63s-93.78,20.3-107.63,23.54C259.16,293.68,230.24,312.5,230.24,312.5Z"/><path class="cls-9" d="M43.61,262.93s60.37,7.58,87.93,18.53,68.77,33.11,68.77,33.11-51.08-23.73-76.38-31.71c-31.39-9.9-89.24-16.41-89.24-16.41Z"/><path class="cls-4" d="M19.45,358.06c10.05,20.09,27.14,36.06,46.42,47.58,5.16,3.09,10.9,6,16.89,5.42s11.87-6,10.7-11.91a8.36,8.36,0,0,0,9.9-12.4c2.93-1.25,4.25-4.9,3.7-8s-2.56-5.81-4.74-8.13c-15.23-16.27-39.56-20.19-57.53-33.4a66.57,66.57,0,0,1-25.52-39.93A5.88,5.88,0,0,0,16.63,293C2.53,307.33,11.8,342.75,19.45,358.06Z"/><path class="cls-4" d="M409.47,355.64c-10.85,19.66-28.58,34.92-48.31,45.65-5.29,2.87-11.14,5.52-17.11,4.72s-11.61-6.49-10.21-12.34a8.35,8.35,0,0,1-9.38-12.79c-2.87-1.36-4-5.06-3.36-8.17s2.79-5.7,5.06-7.93c15.89-15.64,40.83-17.88,58.84-31,27.47-20.05,26.25-37.56,29.9-46.38C428.41,302.27,417.75,340.66,409.47,355.64Z"/></g></g></svg>