<svg xmlns="http://www.w3.org/2000/svg" viewBox="0 0 623.79 795.35"><defs><style>.cls-1{fill:#cae8ea;}.cls-2{fill:#add8d8;}.cls-3{fill:#bdedef;}.cls-4{fill:#7c5650;}.cls-5{fill:#a07065;}.cls-6{fill:#936560;}.cls-7{fill:#ffd2c2;}.cls-8{fill:#f4ad60;}.cls-9{fill:#443835;}.cls-10,.cls-12{fill:#fff;}.cls-10{opacity:0.26;}.cls-11{fill:#ff6861;}.cls-12{opacity:0.44;}</style></defs><title>Asset 3</title><g id="Layer_2" data-name="Layer 2"><g id="Layer_2-2" data-name="Layer 2"><ellipse class="cls-1" cx="377.15" cy="763.3" rx="246.63" ry="13.64"/><path class="cls-2" d="M212.89,258.64c-10.84-14.39-22.37-28.47-36.47-39.68-6.34-5-13.27-9.52-21-12-19.29-6.1-41,1.75-55.7,15.68S44,281.87,95.61,330.13c20.38,19.06,47.88,28.37,74.07,38,19.81,7.26,39.69,14.36,59.8,20.75,15.8,5,53.93,8.94,50.26-18.86-1.33-10.08-9.6-21.56-14.36-30.23q-10.85-19.69-23-38.65Q228.47,279.32,212.89,258.64Z"/><path class="cls-3" d="M112.82,325.39c-17.38-4.71-35.13-8.74-53.14-8.94-8.1-.09-16.32.63-23.91,3.44-19,7-31.32,26.56-34.35,46.57s-7.66,80.93,62.7,87.35c27.79,2.54,55.21-7,81.79-15.48,20.09-6.42,40.14-13,59.94-20.32,15.55-5.74,48.06-26.05,28.1-45.74-7.23-7.14-20.81-11.13-29.89-15q-20.64-8.91-41.85-16.43Q137.82,332.16,112.82,325.39Z"/><path class="cls-4" d="M528,679c4.87-.12,10.09.15,14,3q-13.31,8.76-27,17a13,13,0,0,1-4.88,2.1,4.48,4.48,0,0,1-4.6-2,6.18,6.18,0,0,1-.3-3.67c.71-5,1.67-10.84,6.46-13.26C516.69,679.7,522.46,679.15,528,679Z"/><path class="cls-4" d="M321.45,754.94c4.23,2.44,8.53,5.39,10.43,9.88q-15.93.54-31.88.48a13.11,13.11,0,0,1-5.26-.75,4.48,4.48,0,0,1-2.88-4.11,6,6,0,0,1,1.65-3.29c3.22-3.91,7.08-8.39,12.42-7.95C311.49,749.65,316.7,752.19,321.45,754.94Z"/><path class="cls-5" d="M184.15,459.24c-13.84,34.31-17.82,72.33-13.5,109.13,2.56,21.75,8.17,43.63,20.31,61.79,19.53,29.23,54.32,45.58,89.1,48.76s69.66-5.45,102.37-17.81c19.45-7.35,38.85-16.34,53.67-31,24-23.79,32.62-58.86,38.69-92.24C489,459.58,494,375,458.4,304c-8.61-17.19-20.06-33.78-36.67-43.26C406.32,252,388,250.17,370.3,250c-25.83-.24-52.18,2.75-75.65,13.63-16.54,7.67-32.1,19.77-42,35.4-9.45,15-7.82,32.28-13.09,48.93C227,387.77,199.69,420.72,184.15,459.24Z"/><path class="cls-5" d="M136.19,521.75c-13.21,5.41-21.4,19.5-23.07,33.67-.69,5.86-.39,12,2.06,17.37,1.9,4.16,5,7.65,8.13,11,5.14,5.42,10.66,10.66,17.34,14C155,605,174.37,601.3,184,588.44c5.27-7.07,6.81-16.57,4.87-25.1-2.23-9.77-8.83-12.37-14-19.61-5.41-7.54-4.94-15.17-14-20.29A28.94,28.94,0,0,0,136.19,521.75Z"/><path class="cls-6" d="M184,588.44c5.27-7.07,6.81-16.58,4.87-25.1-2.23-9.77-8.83-12.38-14-19.61-5.41-7.54-4.94-15.18-14-20.3A29.31,29.31,0,0,0,142,520.14a30.67,30.67,0,0,1,20.38,32.58,29.48,29.48,0,0,0-21.83-6.89c7.19.95,11.61,8.28,14.14,15.07.77,2.05,1.47,4.25,1.05,6.4-.6,3-3.41,5.28-6.43,5.92a15.4,15.4,0,0,1-9-1.28c1.16,1.25-.54,3.15-2.14,3.75-7.22,2.71-15.76-1-20.25-7.23a26.35,26.35,0,0,1-4.7-13.27l0,.23c-.69,5.86-.39,12,2.06,17.36,1.9,4.16,5,7.65,8.13,11,5.14,5.43,10.66,10.67,17.34,14C155,605,174.37,601.3,184,588.44Z"/><path class="cls-5" d="M292.8,627.18c18.56,23.23,43,41,67.42,57.9,15.43,10.67,31.57,21.74,40.61,38.18,3.44,6.24,6,13.4,11.71,17.64,4.62,3.42,10.58,4.36,16.31,4.77a120,120,0,0,0,89.73-32c4.08-3.84,8.16-8.8,7.41-14.36-.49-3.59-3-6.64-6-8.71-10.51-7.3-25.67-3.9-36.49-10.73-12.76-8-13.81-25.79-14.73-40.84-.88-14.53-3-29.15-8.33-42.69-10.72-27.1-33.57-47.59-57.78-63.83-13-8.75-26.8-16.63-41.69-21.64a122.1,122.1,0,0,0-81.51,1.88c-11.51,4.38-22.25,7.63-22.46,21.18-.24,15.45,4.4,32.15,9.64,46.54A166.06,166.06,0,0,0,292.8,627.18Z"/><path class="cls-5" d="M564.59,245.81c11.76-23.21,31-21.67,38.09-20s12.66,7.87,15.24,14.77,2.67,14.48,2.29,21.84a185.72,185.72,0,0,1-153.77,173.5c-7.62,1.33-15.54,2.15-23,.1-11.73-3.24-20.68-13.45-24.73-24.92S414.93,387,416.91,375c2.11-12.85,6.24-25.63,14-36.05,9.12-12.18,21.34-19.63,36.13-16.51s26.13,1.52,40.13-5.87C534.79,302,550.86,272.89,564.59,245.81Z"/><path class="cls-6" d="M617.91,240.46c-2.35-6.31-7.14-12-13.42-14.23,5.77,8,8.45,18.33,8.3,28.31-.2,13.25-4.82,26-10.43,38.06a227.39,227.39,0,0,1-60.16,78.07c-12.46,10.39-26.93,20.27-43.08,23.65-13.95,2.92-15.85,16.26-16.45,29.23-.13,2.89-.21,5.79-.16,8.69A185.66,185.66,0,0,0,620.2,262.29C620.58,254.93,620.49,247.36,617.91,240.46Z"/><path class="cls-7" d="M581.41,255.85a27.48,27.48,0,0,0-7.86,8.78,26.58,26.58,0,0,0-4,12.36,16.12,16.12,0,0,0,4.34,12,20.16,20.16,0,0,0,5.54,3.69,16.23,16.23,0,0,0,6,1.82c5.28.32,9.88-3.49,13.39-7.45a38.63,38.63,0,0,0,7.34-11.37,20.3,20.3,0,0,0,.76-13.33,12,12,0,0,0-2-3.85C599.61,251.89,587.94,251.38,581.41,255.85Z"/><path class="cls-7" d="M594.84,239.61a8.7,8.7,0,0,0-.61,3.19,8,8,0,0,0,.85,4,5,5,0,0,0,3.06,2.55,5.57,5.57,0,0,0,5.55-2.31,13.91,13.91,0,0,0,2.25-5.9,11.61,11.61,0,0,0,.29-3.57,4.45,4.45,0,0,0-1.62-3.09C601.06,231.8,596.11,236.55,594.84,239.61Z"/><path class="cls-7" d="M580.17,242.86a7.49,7.49,0,0,0,.21,2.75,6.87,6.87,0,0,0,1.59,3.06,4.26,4.26,0,0,0,3.08,1.39,4.72,4.72,0,0,0,4-3.14,11.83,11.83,0,0,0,.51-5.33,9.72,9.72,0,0,0-.56-3,3.81,3.81,0,0,0-2-2.17C583.5,235.07,580.51,240.07,580.17,242.86Z"/><path class="cls-7" d="M609.17,248.12a11.67,11.67,0,0,0-1.68,2.61,11.42,11.42,0,0,0-1.15,3.8,4.66,4.66,0,0,0,.73,3.31c1,1.18,2.73.92,4.18-.13a16.6,16.6,0,0,0,3.75-4.46,16,16,0,0,0,1.64-3.06,5.65,5.65,0,0,0,.35-3.3C616,243.34,611.17,245.85,609.17,248.12Z"/><path class="cls-6" d="M340.71,640.17c58.75-3.76,104.77-42.8,130.72-85.33-8.95,30.54-8.84,60.67-73,101.23-33.16,21-74.75,24.53-113.77,28.57L313,630.92c8.67-16.46-14.41-73.6-21.06-92.29C336.76,556.21,347.22,639.76,340.71,640.17Z"/><path class="cls-5" d="M165.58,580.21c1.23,29.71,10.43,58.46,20.16,86.55,6.14,17.73,12.62,36.2,10.2,54.8-.92,7.07-3.1,14.35-1,21.15,1.7,5.49,6,9.77,10.34,13.49a119.92,119.92,0,0,0,91.29,27.21c5.56-.69,11.79-2.28,14.46-7.2,1.73-3.19,1.51-7.14.33-10.57-4.16-12.1-18.4-18.32-23.1-30.22-5.53-14,4.1-29,12.26-41.64,7.88-12.25,14.83-25.28,18.51-39.37,7.36-28.2,1-58.22-8.89-85.63-5.35-14.76-11.79-29.26-20.84-42.1A122.12,122.12,0,0,0,222.45,480c-11.87-3.27-22.46-7-30.63,3.81-9.33,12.32-15.45,28.54-19.73,43.24A165.69,165.69,0,0,0,165.58,580.21Z"/><path class="cls-8" d="M423.54,256.08c-1.11-.63-2.23-1.22-3.37-1.78-13.78-2.49-28.08-2.82-42.13-2.66-25.22.29-50.71,2.06-74.75,9.68a132.87,132.87,0,0,0-33.75,16L267.06,279a84.59,84.59,0,0,0-12.57,15.39c-9.45,15-7.82,32.28-13.09,48.93-12.63,39.81-70,126.34-72.41,136.59,38.51,31,95.56,53.11,145.17,57.63,55.64,5.07,118.43-2.12,173.17-24.16,11.9-73.53,6-147.94-27.12-214C451.6,282.15,440.15,265.56,423.54,256.08Z"/><path class="cls-9" d="M425.51,468.71c23.07-3.13,46.33-7.94,67.65-17q.15-10.92-.3-21.79c-69.15,28.83-180.58,38.43-285.14-13.53l-1.56-.8c-3.71,6.46-7.43,12.81-11,18.87,12.64,7.76,26.39,13.67,40.36,18.55C296.09,474.12,362,477.31,425.51,468.71Z"/><path class="cls-9" d="M492.12,475.46C423.17,505.11,310.32,515.58,204.5,463c-6.75-3.35-12.72-8-18.71-12.64-4.15,7-7.8,13.27-10.62,18.29a107.63,107.63,0,0,0,10.36,8.24c14.33,9.88,30.39,17,46.78,22.72,60.55,21.12,126.42,24.32,190,15.71,23-3.12,46.26-7.93,67.55-17Q491.27,486.91,492.12,475.46Z"/><path class="cls-9" d="M255.32,294.28l-.61.93c-4,6.4-6.05,13.23-7.45,20.24,59.95,20.43,125,23.47,187.76,15a344.21,344.21,0,0,0,36-6.63q-3.83-9.64-8.34-19.08C404.54,319.4,329.7,320.86,255.32,294.28Z"/><path class="cls-9" d="M229.83,371.9c-3.18,6.47-6.75,13.27-10.5,20.19a242.34,242.34,0,0,0,23.81,9.63c60.56,21.12,126.42,24.32,190,15.71,19.54-2.64,39.22-6.51,57.74-13.13q-1.2-10.46-3-20.79C421.62,407.16,323.89,413.4,229.83,371.9Z"/><path class="cls-9" d="M243.76,335.74a82.15,82.15,0,0,1-2.15,8.4c-1.26,4-3,8.45-5,13.25q3.27,1.23,6.57,2.38c60.56,21.12,126.42,24.32,190,15.71,17.1-2.32,34.32-5.57,50.76-10.79q-2.42-10.05-5.5-19.95C415.94,364.6,329.06,369.07,243.76,335.74Z"/><path class="cls-4" d="M459.1,50.59a38,38,0,0,0-31.21,13.5c-4.17,5-7,11.21-12,15.45-4.56,3.87-10.77,6.06-13.83,11.2s-1.91,12.16.87,17.64a36.42,36.42,0,0,0,28.68,19.45c9.23.84,18.43-1.94,26.87-5.74,10.66-4.81,20.85-11.61,27.1-21.49C499.58,78.45,484.68,52.21,459.1,50.59Z"/><path class="cls-5" d="M414.82,94.69c2.27-1.33,4.94-1.74,7.5-2.31,11.16-2.48,22.14-9.4,25.83-20.22,1.61-4.73,1.82-10.08,4.72-14.15,4-5.6,12.09-6.94,18.7-5,9.27,2.68,17.87,10.17,22.89,21.91,3.8,8.87,4.38,26.26-2.24,38.23-11,19.85-25.3,21.72-33.72,22.7l-4.44-4.39a23.46,23.46,0,0,1-28.78,2.35c-4.25-2.95-7.36-7.25-10.15-11.6s-5.4-9-6-14.07S410.38,97.3,414.82,94.69Z"/><path class="cls-7" d="M473,118.11A32.66,32.66,0,0,0,480.79,97c0-5.41-1.53-11-5.33-14.89s-10.17-5.39-14.82-2.62S454.37,88,452.48,93.1c-2.2,5.91-5.43,11.67-10.49,15.43-3.66,2.71-8.11,4.25-11.64,7.12s-6,8-3.9,12c1.44,2.7,4.53,4.1,7.52,4.74,7.83,1.69,13.42-1.74,20.63-3.56S468.11,123.89,473,118.11Z"/><path class="cls-4" d="M197.1,75.12a38,38,0,0,1,33.16,7.56c5,4.2,9,9.73,14.65,13,5.18,3,11.69,4,15.64,8.49s4.1,11.59,2.38,17.49A36.45,36.45,0,0,1,238.28,146c-8.91,2.5-18.46,1.46-27.46-.74-11.36-2.77-22.62-7.59-30.58-16.16C162.4,109.91,172.26,81.39,197.1,75.12Z"/><path class="cls-5" d="M248.71,110.37c-2.47-.89-5.17-.8-7.8-.89-11.42-.4-23.49-5.2-29.09-15.16-2.45-4.36-3.63-9.57-7.23-13-5-4.78-13.15-4.62-19.3-1.52-8.62,4.33-15.71,13.27-18.5,25.73-2.11,9.41.5,26.62,9.2,37.18,14.42,17.5,28.85,16.72,37.3,16.14l3.56-5.13c8.7,5.77,21.4,4.46,28.73-3,3.64-3.67,5.9-8.47,7.86-13.26s3.66-9.8,3.32-14.93S253.55,112.13,248.71,110.37Z"/><path class="cls-7" d="M195.75,144.05a32.75,32.75,0,0,1-11.48-19.32c-1-5.31-.51-11.13,2.52-15.61s9-7.16,14.1-5.29,7.72,7.24,10.5,11.87c3.25,5.4,7.47,10.48,13.15,13.25,4.09,2,8.74,2.7,12.74,4.87s7.38,6.72,6,11.06c-.91,2.92-3.7,4.86-6.52,6-7.39,3.09-13.52.75-20.93.27S201.66,148.83,195.75,144.05Z"/><path class="cls-5" d="M490.15,185.47a285.1,285.1,0,0,0-28.69-58.58c-5.94-9.12-12.55-17.91-20.74-25.08C426.87,89.7,409,83.35,391.15,78.89c-31.84-8-97.87,1.35-130.94,16.9-16.65,7.83-31.81,19.52-42.13,34.76-6.1,9-10.26,19.19-13.68,29.52a284.47,284.47,0,0,0-12.88,64c-1.75,19.39-1.78,39.29,4,57.88s18,35.88,35.58,44.2a76.28,76.28,0,0,0,21.71,6.13c16.9,2.47,34.09,1.32,51.13.17S392,322.08,409,318.84s33.7-6.46,49.42-13.14a76.35,76.35,0,0,0,19.44-11.45c14.9-12.52,22.33-32.33,23.19-51.78S496.76,203.78,490.15,185.47Z"/><path class="cls-7" d="M428.37,224.37c-2.13-10.25-6.65-20.54-15.11-26.68-5.38-3.91-11.92-5.84-18.43-7.16C378.46,187.21,300,197.34,285,204.71c-6,2.93-11.8,6.46-16,11.6-6.63,8.09-8.39,19.19-7.85,29.64.58,11.3,4.53,23.71,14.56,28.94,6.36,3.31,13.88,3.07,20.95,4.27a50.48,50.48,0,0,1,16.53,5.9c4.3,2.45,8.39,5.25,12.51,8,15.83,10.52,43.48,5.11,52.22-6.74A92.67,92.67,0,0,1,388,275.4a50.76,50.76,0,0,1,14.48-9.9c6.53-2.95,13.87-4.63,19.18-9.45C430,248.45,430.68,235.44,428.37,224.37Z"/><path class="cls-9" d="M300.47,194.17c-5.62.73-17.1,4.18-21.39,7.88-6.18,5.34-5.62,16.56,1.07,21.26a19.21,19.21,0,0,0,8.79,3c7.17.87,14.39-.66,21.59-1.23s15,0,20.71,4.44c2.6,2,4.62,4.71,7.27,6.67s6.34,3.1,9.21,1.49,3.73-4.91,5.35-7.61c3.4-5.67,9.83-9.1,16.31-10.39,25.69-5.11,37.77-11.49,36.33-22.66-1.13-8.72-15.43-14.51-32.83-10.59C351.08,191.37,318.12,191.89,300.47,194.17Z"/><path class="cls-10" d="M283.66,215.34a5.88,5.88,0,0,0,2.6,1.14,6.58,6.58,0,0,0,5.09-1.9,50.19,50.19,0,0,0,3.51-4.07c5.19-5.82,14.07-7.81,22.29-8.4s16.68-.19,24.46-2.78c.84-.28,1.75-.67,2-1.41.44-1.11-.77-2.15-2-2.6-4.58-1.73-9.85.24-14.79,1.23-6.08,1.22-12.34.94-18.52,1s-12.59.48-18.19,3C284.81,202.88,277.24,210.55,283.66,215.34Z"/><path class="cls-4" d="M242.21,135.57a5.82,5.82,0,0,0,5.07-2,30.71,30.71,0,0,0,3.24-4.63,25.81,25.81,0,0,1,15.79-10.77,6.22,6.22,0,0,0,1.82-.56c1.72-1,1.89-3.6.73-5.19a7,7,0,0,0-5.19-2.42c-6.49-.5-12.32,3.74-17.22,8C243.71,120.48,233.58,133.82,242.21,135.57Z"/><path class="cls-4" d="M385.5,97.3a5.81,5.81,0,0,0,4.12,3.53,30.17,30.17,0,0,0,5.62.66,25.71,25.71,0,0,1,17,8.81,6.59,6.59,0,0,0,1.36,1.33c1.67,1.05,4.06,0,4.91-1.82a7,7,0,0,0-.32-5.72c-2.64-6-9.13-9.07-15.23-11.35C399.5,91.46,383,88.87,385.5,97.3Z"/><path class="cls-5" d="M320.9,71a15.33,15.33,0,0,0-4.68-13.65,31.61,31.61,0,0,1,17.59,9.57c-.18-3.54,2.06-6.75,4.6-9.22a33.18,33.18,0,0,1,19.18-9.09,24,24,0,0,0-3.94,24.25,13.27,13.27,0,0,1,11-4.48c-2.87.67-3.78,4.6-2.54,7.27s3.82,4.39,6.1,6.24,4.53,4.26,4.59,7.2c.08,3.81-3.48,6.65-6.93,8.28-11.93,5.64-26.09,4.39-38.66.36a50.5,50.5,0,0,1-15.09-7.31c-1.61-1.2-3.22-2.76-3.37-4.76-.24-3.34,5.2-4.12,7.22-5.88A15.32,15.32,0,0,0,320.9,71Z"/><path class="cls-6" d="M489.73,184.06a202.5,202.5,0,0,1,2.39,41.3c-.58,12.92-2.54,26.19-9.26,37.24C475.49,274.73,463,283,449.66,288s-27.51,6.88-41.58,8.77l-89.1,12c-26.87,3.61-54.54,7.18-80.8.45-19-4.88-32.74-14.5-42.83-28.11.09.27.16.54.25.81,5.76,18.6,18,35.87,35.57,44.2a76.44,76.44,0,0,0,21.72,6.13c16.9,2.47,34.09,1.32,51.13.17s88.12-10.32,105-13.56,33.69-6.47,49.41-13.14a76.53,76.53,0,0,0,19.45-11.45c14.9-12.52,22.33-32.33,23.18-51.78s-4.23-38.69-10.84-57C490.08,185,489.9,184.53,489.73,184.06Z"/><path class="cls-9" d="M306.71,242.17c.77.31,21.62,11.18,40.76,7.81a65.24,65.24,0,0,0,36.2-19.87s6.62,46.69-31.08,51.64C318,286.3,306.71,242.17,306.71,242.17Z"/><path class="cls-11" d="M352.4,281.78c16.28-2.14,24.29-12.07,28.14-22.66a22.8,22.8,0,0,0-11-2.76c-8.26.07-16.06,4.24-22.1,9.87-5.52-2.18-11.69-3.09-17.46-1.68a18.34,18.34,0,0,0-9,4.91C328.13,277.45,338.34,283.62,352.4,281.78Z"/><path class="cls-4" d="M243.42,171.27a23,23,0,0,1-.2-11.17,16.2,16.2,0,0,1,6.08-9.24,22.79,22.79,0,0,1,6.22-2.9,50.85,50.85,0,0,1,18.58-2.65,18.72,18.72,0,0,1,7.68,1.79c4.47,2.34,7,7.33,7.84,12.31a4,4,0,0,1-.16,2.48c-.78,1.56-2.93,1.62-4.67,1.57a51.56,51.56,0,0,0-16,2.35c-3.25,1-6.53,2.24-9,4.59a17.64,17.64,0,0,0-4.2,7c-.65,1.83-.82,6.56-3.25,6.1C247.69,182.59,244.42,175.19,243.42,171.27Z"/><path class="cls-9" d="M254.89,170.67a25.27,25.27,0,0,1,10.41-8.8,28.4,28.4,0,0,1,16-3.09c5.48.71,10.78,3.66,13.65,8.37a25.32,25.32,0,0,0-11.41-1.84,35,35,0,0,0-18.6,6,26.86,26.86,0,0,0-10.92,16c.22-1-.91-3.17-1.17-4.27a15.83,15.83,0,0,1-.54-4.11A16.33,16.33,0,0,1,254.89,170.67Z"/><path class="cls-4" d="M428.06,142.46a22.75,22.75,0,0,0-2.63-10.86,16.25,16.25,0,0,0-8.23-7.39,22.68,22.68,0,0,0-6.75-1.23,50.61,50.61,0,0,0-18.64,2.15,18.73,18.73,0,0,0-7,3.67c-3.73,3.4-4.94,8.88-4.46,13.9a4,4,0,0,0,.78,2.36c1.15,1.31,3.25.82,4.93.34a51.27,51.27,0,0,1,16.08-1.8c3.4.12,6.89.52,9.86,2.17a17.64,17.64,0,0,1,5.84,5.69c1.09,1.6,2.45,6.13,4.68,5.07C426.81,154.49,428.09,146.51,428.06,142.46Z"/><path class="cls-9" d="M416.82,144.79a25.17,25.17,0,0,0-12.29-5.87A28.43,28.43,0,0,0,388.24,140c-5.12,2.07-9.5,6.26-11.09,11.55a25.51,25.51,0,0,1,10.58-4.67,35,35,0,0,1,19.51,1.1,26.87,26.87,0,0,1,14.62,12.68c-.48-1,.07-3.29.05-4.42a16,16,0,0,0-.53-4.12A16.3,16.3,0,0,0,416.82,144.79Z"/><path class="cls-4" d="M301.34,783c3.41,3.48,6.77,7.48,7.39,12.32q-15.5-3.76-30.84-8.12a13.14,13.14,0,0,1-4.86-2.14,4.48,4.48,0,0,1-1.67-4.74,6.19,6.19,0,0,1,2.48-2.72c4.15-2.9,9.07-6.17,14.1-4.31C293.17,775.25,297.5,779.1,301.34,783Z"/><path class="cls-4" d="M328.15,773.27c4,2.82,8,6.14,9.47,10.79q-15.92-.91-31.79-2.44a13,13,0,0,1-5.17-1.23,4.49,4.49,0,0,1-2.49-4.36,6.1,6.1,0,0,1,1.95-3.12c3.56-3.6,7.81-7.71,13.09-6.78C318.71,767.09,323.66,770.1,328.15,773.27Z"/><path class="cls-4" d="M519.93,716.47c4.54,1.76,9.26,4,11.83,8.14q-15.66,3-31.43,5.43a13,13,0,0,1-5.31.07,4.49,4.49,0,0,1-3.48-3.61,6,6,0,0,1,1.13-3.51c2.57-4.36,5.68-9.39,11-9.78C509.26,712.8,514.8,714.5,519.93,716.47Z"/><path class="cls-4" d="M538.33,695.23c4.79.91,9.83,2.27,13.1,5.88q-14.86,5.77-29.93,11a13,13,0,0,1-5.21,1,4.48,4.48,0,0,1-4.08-2.92,6.14,6.14,0,0,1,.48-3.66c1.74-4.75,3.9-10.25,9.09-11.6C527.18,693.53,532.93,694.21,538.33,695.23Z"/><path class="cls-6" d="M208.42,749.07c-3-3.43-5.9-7.13-7.13-11.52-1.67-5.92-.08-12.19.59-18.31,2.15-19.68-5.4-39.07-13.94-56.94-3.75-7.85-7.75-15.69-11.29-23.67,2.84,9.49,6,18.88,9.23,28.21,6.14,17.73,12.62,36.2,10.2,54.8-.92,7.06-3.1,14.34-1,21.15,1.7,5.48,6,9.77,10.34,13.48a117.92,117.92,0,0,0,35.12,20.47A150.42,150.42,0,0,1,208.42,749.07Z"/><path class="cls-6" d="M484.35,736.32l-5.13,1.23c-13.43,3.24-27.15,6.49-40.92,5.27-8.86-.79-18.15-3.87-23.44-11s-5.49-16.73-8.65-25c-6-15.81-22-25.43-37.77-31.65a73.53,73.53,0,0,0-25.81-5.38c-1.42,0-2.77-.36-4.06-.37,7.25,5.42,14.67,10.64,22.1,15.78,15.43,10.67,31.57,21.74,40.61,38.17,3.44,6.25,6,13.41,11.71,17.65,4.61,3.42,10.58,4.35,16.31,4.76A119.24,119.24,0,0,0,484.35,736.32Z"/><path class="cls-5" d="M458.24,460.15c25.79,3.5,30.66,22.23,31.43,29.42s-3.28,14.54-9,19.24-12.79,7.27-19.87,9.33a185.76,185.76,0,0,1-214.35-88.35c-3.74-6.76-7.13-14-7.63-21.7-.79-12.14,5.92-23.94,15.42-31.53s21.5-11.46,33.49-13.54c12.83-2.21,26.26-2.5,38.67,1.45,14.49,4.63,25.54,13.72,27.44,28.72s7.14,25.17,18.71,36C395.37,450.45,428.16,456.07,458.24,460.15Z"/><path class="cls-6" d="M487.79,485.32c-5.68,4.7-12.79,7.27-19.87,9.33A185.73,185.73,0,0,1,253.57,406.3c-3.2-5.78-6.14-11.9-7.23-18.38-4.48,6.52-7.1,14.21-6.59,22.06s3.88,14.93,7.63,21.69A185.71,185.71,0,0,0,461.72,520c7.08-2.06,14.2-4.63,19.88-9.33s9.74-11.91,8.95-19.24a32.91,32.91,0,0,0-1.61-7.14C488.57,484.66,488.18,485,487.79,485.32Z"/><path class="cls-9" d="M291,125.67c18,3.84,37,10.52,47.11,25.89.93-8.68,5.59-16.62,11.55-23s13.22-11.38,20.41-16.32c8.07-5.54,16.19-11.09,25.11-15.11s18.77-6.44,28.49-5.38C419.08,79.24,410,68.6,399,61.1s-23.89-12-37-14.05c-14.4-2.29-29.14-1.8-43.57.29C300.64,49.92,282.9,55.08,268,65.19c-11.32,7.7-20.86,18.49-26,31.24-1.21,3-2.9,6.79-3,10-.14,3.47,1.45,4.13,4.48,5.78A92.13,92.13,0,0,0,265,120.21C273.57,122.38,282.31,123.83,291,125.67Z"/><path class="cls-9" d="M391.66,58.08A142.35,142.35,0,0,0,415.2,8.46a21.76,21.76,0,0,0,9.2,1,149.64,149.64,0,0,1-14.65,51.27A32.81,32.81,0,0,1,404.5,69a18.54,18.54,0,0,1-11.26,5.62c-2.89.33-6.06-.13-8.16-2.14C378.94,66.59,388.76,62,391.66,58.08Z"/><path class="cls-9" d="M403,10.24c-1.6,7.38,3.17,15.24,10,18.41a13.34,13.34,0,0,0,9.59,1A18,18,0,0,0,428,26.44c3.09-2.4,6.18-5.17,7.36-8.9a12.24,12.24,0,0,0-3.73-12.42C423.47-2.15,405.8-2.71,403,10.24Z"/><path class="cls-9" d="M271.5,76.41A142.45,142.45,0,0,1,243.75,29a21.79,21.79,0,0,1-9.08,1.8,149.5,149.5,0,0,0,19,49.81,32.6,32.6,0,0,0,5.95,7.73A18.47,18.47,0,0,0,271.34,93c2.91.08,6-.66,8-2.84C284.9,83.8,274.72,80.05,271.5,76.41Z"/><path class="cls-9" d="M256.08,29.73c2.23,7.21-1.84,15.45-8.39,19.2a13.28,13.28,0,0,1-9.47,1.8A18,18,0,0,1,232.6,48c-3.28-2.12-6.6-4.61-8.1-8.23a12.25,12.25,0,0,1,2.65-12.69C234.6,19.16,252.16,17.07,256.08,29.73Z"/><path class="cls-12" d="M21.64,363.85c-.08,4.38.77,8.94,3.4,12.44s7.33,5.65,11.52,4.38c3.88-1.17,6.43-4.81,8.43-8.34,4.89-8.61,8.83-18.5,17.21-23.79,11.21-7.08,25.71-3.28,39-3.51,3.57-.06,8-1.21,8.62-4.74.53-3.19-2.62-5.71-5.53-7.11-10.65-5.14-22.83-5.81-34.64-6.38-11.65-.57-22.05.3-31.3,7.78S21.84,351.3,21.64,363.85Z"/><path class="cls-12" d="M122.64,347c1.89,2.44,5.32,2.88,8.37,3.41a49.59,49.59,0,0,1,10,2.83c2.95,1.18,5.8,2.65,8.81,3.66a31.16,31.16,0,0,0,11.86,1.53,3.93,3.93,0,0,0,1.69-.37c1.71-.92,1.45-3.52.44-5.19-2.19-3.56-6.32-5.35-10.2-6.92a120.46,120.46,0,0,0-22.37-7C126.66,338,117.36,340.15,122.64,347Z"/><path class="cls-12" d="M98.19,282.79c6-2.27,10-7.91,12.72-13.66,3.55-7.36,5.7-15.42,10.15-22.27a38.83,38.83,0,0,1,23.56-16.47c2.46-.57,5-.92,7.21-2.24s3.77-4,2.93-6.38a7.12,7.12,0,0,0-2.76-3.15c-9.68-7-23.3-6.7-34-1.49S99.13,231.79,93,242C88.23,250.14,72.83,292.49,98.19,282.79Z"/></g></g></svg>