<svg xmlns="http://www.w3.org/2000/svg" viewBox="0 0 510.71 569.57"><defs><style>.cls-1{fill:#cae8ea;}.cls-2{fill:#936560;}.cls-3{fill:#a07065;}.cls-4{fill:#d89687;}.cls-5{fill:#c6877d;}.cls-6{fill:#7c5650;}.cls-7{fill:#ffd2c2;}.cls-8{fill:#443835;}.cls-12,.cls-9{fill:#fff;}.cls-9{opacity:0.26;}.cls-10{fill:#ff6861;}.cls-11{fill:#ed5d5d;}</style></defs><title>Asset 2</title><g id="Layer_2" data-name="Layer 2"><g id="Layer_2-2" data-name="Layer 2"><path class="cls-1" d="M508.41,555.92c0,7.54-110.43,13.65-246.64,13.65S15.14,563.46,15.14,555.92s110.42-13.64,246.63-13.64S508.41,548.39,508.41,555.92Z"/><path class="cls-2" d="M373.79,260.55c-1.76-5.66-2.83-11.82-1.06-17.47s7.08-10.54,13-10.13a15.38,15.38,0,0,1,7.15,2.7,42.17,42.17,0,0,1,10.47,10.26,76,76,0,0,1,15.06,49.27c-.25,4.73-1,9.62-3.68,13.53s-7.69,6.55-12.23,5.18c-3.46-1-5.93-4.1-7.74-7.23-3.86-6.66-3.33-14.58-7.19-20.79C382.3,277.42,376.83,270.28,373.79,260.55Z"/><path class="cls-2" d="M90.14,259a50.38,50.38,0,0,1,10.76-13.66,27.29,27.29,0,0,1,15.76-6.82,4.6,4.6,0,0,1,2.33.31c1.29.63,1.81,2.16,2.09,3.57,2,10.21-2.51,20.47-7,29.83-3.77,7.79-7.79,15.72-14.23,21.49-3.12,2.79-6.76,5-9.47,8.21-1.59,1.88-3,4.19-5.33,5a5.19,5.19,0,0,1-5.31-1.35c-2.3-2.48-1.12-7.45-.85-10.49A89.33,89.33,0,0,1,90.14,259Z"/><path class="cls-3" d="M104.74,452.92c4,15.77,9,31.63,18.91,45.18,13.94,19.13,36.69,32.19,60.94,39.39s50.08,9,75.63,9.35c39.2.55,80.25-2.64,113.5-21.2,8.91-5,17.31-11.21,22.1-19.56s5.55-17.89,6.25-27.19c4.49-59.72,9-119.83,1.51-179.31-3.05-24.31-8.3-48.93-21.74-70.24a86.23,86.23,0,0,0-23.28-25c-11.84-8.26-26.21-13.11-40.71-16.62-35.51-8.58-73.57-9.66-109.06-1-34.4,8.36-78.72,28.85-92.91,60.12-18.46,40.65-24.6,85.83-22.7,129.43A378.13,378.13,0,0,0,104.74,452.92Z"/><path class="cls-4" d="M101.81,304c3.82,27.3,20.59,54.71,42.07,70.91,29.86,22.5,70.36,19.68,105.73,30.56,15,4.61,30.21,12.77,37.23,27.28-1.37-7,2.06-14.22,7-19.16s11.25-8.1,17.31-11.44c22.41-12.38,45-30.67,64.24-47.84,31.11-27.72,38-82.65,12.84-108.94-20.74-21.65-44.7-39.35-72.76-48.46-31.85-10.34-65.11-16.35-98.48-16.14-19.88.13-39.95,2.5-58.63,9.56-16.2,6.12-16.56,23.32-34.83,37.18C104.65,241.88,97.86,275.81,101.81,304Z"/><path class="cls-5" d="M388.24,245.41A225.56,225.56,0,0,0,363,222.61c-1.34.07-2.68.19-4,.36,13.8,11.21,28.74,24.52,30.21,42.65.65,7.88-1.43,15.73-4,23.17A168.94,168.94,0,0,1,340.08,358l.09-20.59a81,81,0,0,1-23.64,32.84,128.78,128.78,0,0,0,5.61-62.08c-3.95,34.33-23.57,66.36-51.83,84.6-2.45,1.59-5.62,3.09-8.09,1.51-1.64-1.06-2.34-3.14-2.91-5.06l-5.58-18.6q-2.89,9.64-5.81,19.28a138.36,138.36,0,0,1-42.84-21.12c-8-5.82-15.86-13.44-17.18-23.47l1.92,19.63c-30.48-6.26-57.59-28.25-70.83-57.46A108.45,108.45,0,0,1,110.5,250c.31-2.5.65-5.38,1.12-8.37-9.69,16.91-12.77,41.29-9.81,62.46,3.82,27.3,20.59,54.71,42.07,70.91,29.86,22.5,70.36,19.68,105.73,30.56,15,4.61,30.21,12.77,37.23,27.28-1.37-7,2.06-14.22,7-19.16s11.25-8.1,17.31-11.44c22.41-12.38,45-30.67,64.24-47.84C406.51,326.63,413.42,271.7,388.24,245.41Z"/><path class="cls-6" d="M387.24,15a38.1,38.1,0,0,0-32.69,9.4c-4.77,4.47-8.41,10.21-13.9,13.78-5,3.26-11.45,4.64-15.15,9.35s-3.45,11.8-1.39,17.59a36.44,36.44,0,0,0,26,23c9,2,18.52.43,27.38-2.26C388.64,82.39,399.61,77,407.08,68,423.82,47.78,412.4,19.85,387.24,15Z"/><path class="cls-3" d="M337.67,53c2.42-1,5.13-1.1,7.74-1.33,11.39-1,23.16-6.5,28.21-16.75,2.2-4.49,3.09-9.76,6.49-13.43,4.69-5.05,12.88-5.34,19.19-2.59,8.85,3.85,16.41,12.38,19.9,24.66,2.63,9.28,1,26.61-7.12,37.63-13.43,18.28-27.88,18.31-36.35,18.19l-3.84-4.91c-8.36,6.24-21.11,5.64-28.84-1.36-3.84-3.47-6.37-8.13-8.59-12.81s-4.2-9.57-4.15-14.72S332.94,55.05,337.67,53Z"/><path class="cls-7" d="M392.42,83.72a32.71,32.71,0,0,0,10.39-19.93c.68-5.37-.11-11.15-3.39-15.45s-9.4-6.64-14.36-4.5-7.31,7.66-9.83,12.44c-2.94,5.57-6.88,10.88-12.39,14-4,2.22-8.58,3.18-12.45,5.57s-7,7.12-5.4,11.38c1.08,2.87,4,4.64,6.85,5.67,7.55,2.67,13.54,0,20.92-.9S386.79,88.82,392.42,83.72Z"/><path class="cls-6" d="M124.26,5.75A38,38,0,0,1,156.17,17.5c4.44,4.8,7.66,10.79,12.87,14.75,4.76,3.62,11.09,5.46,14.43,10.42s2.58,12,.11,17.66a36.46,36.46,0,0,1-27.56,21c-9.16,1.34-18.5-.92-27.14-4.25C118,72.9,107.41,66.68,100.62,57.16,85.39,35.82,98.81,8.79,124.26,5.75Z"/><path class="cls-3" d="M170.92,47.33c-2.33-1.21-5-1.47-7.62-1.89-11.28-1.86-22.62-8.16-26.91-18.76-1.87-4.63-2.38-10-5.5-13.86-4.31-5.37-12.45-6.26-18.95-4C102.84,12,94.67,20,90.3,32,87,41.06,87.39,58.46,94.67,70c12.06,19.21,26.47,20.28,34.93,20.79l4.19-4.63c7.88,6.83,20.64,7.16,28.86.74,4.08-3.18,6.94-7.64,9.49-12.15s4.89-9.24,5.21-14.38S175.5,49.68,170.92,47.33Z"/><path class="cls-7" d="M114.09,74a32.73,32.73,0,0,1-8.91-20.63c-.29-5.4.92-11.11,4.5-15.16s9.86-5.95,14.65-3.45,6.73,8.17,8.9,13.12c2.53,5.78,6.07,11.35,11.34,14.82,3.8,2.51,8.33,3.8,12,6.47s6.47,7.6,4.56,11.74c-1.28,2.78-4.29,4.34-7.24,5.15-7.72,2.12-13.5-1-20.79-2.41S119.34,79.45,114.09,74Z"/><path class="cls-3" d="M400.76,152.71a284.43,284.43,0,0,0-21-61.77c-4.71-9.8-10.14-19.37-17.35-27.53C350.26,49.63,333.35,41,316.22,34.33c-30.55-12-97.23-11.19-132,0-17.52,5.63-34,15.3-46.23,29.08-7.21,8.16-12.64,17.73-17.36,27.53a284.94,284.94,0,0,0-21,61.77c-4.22,19-6.8,38.74-3.47,57.92s13.24,37.88,29.63,48.39a76.26,76.26,0,0,0,20.75,8.86c16.44,4.61,33.64,5.67,50.69,6.71s88.72,1.05,105.9,0,34.24-2.1,50.69-6.71A76.26,76.26,0,0,0,374.6,259c16.38-10.51,26.29-29.21,29.62-48.39S405,171.72,400.76,152.71Z"/><path class="cls-7" d="M334.52,183.38c-.81-10.43-4-21.22-11.58-28.4-4.83-4.55-11.07-7.31-17.36-9.45-15.8-5.39-94.94-5.39-110.74,0-6.29,2.14-12.53,4.9-17.36,9.45-7.61,7.18-10.78,18-11.58,28.4-.87,11.28,1.45,24.09,10.73,30.56,5.88,4.1,13.38,4.83,20.23,6.92a50.75,50.75,0,0,1,15.64,8c3.95,3,7.65,6.28,11.38,9.53,14.35,12.45,42.48,10.62,52.65,0a92.76,92.76,0,0,1,11.39-9.53,50.53,50.53,0,0,1,15.64-8c6.85-2.09,14.34-2.82,20.22-6.92C333.06,207.47,335.39,194.66,334.52,183.38Z"/><path class="cls-8" d="M211.53,137.06c-5.66,0-17.49,2-22.22,5.08-6.82,4.5-7.69,15.7-1.66,21.21a19.18,19.18,0,0,0,8.33,4.13c7,1.77,14.35,1.18,21.57,1.54s14.86,1.95,20,7.06c2.33,2.32,4,5.26,6.36,7.54s5.9,3.89,8.95,2.66,4.33-4.4,6.28-6.87c4.1-5.18,10.91-7.77,17.5-8.21,26.14-1.78,38.93-6.56,38.93-17.82,0-8.8-13.44-16.37-31.2-14.71C262.08,140.76,229.33,137.06,211.53,137.06Z"/><path class="cls-9" d="M192.15,155.9a5.69,5.69,0,0,0,2.43,1.46,6.57,6.57,0,0,0,5.3-1.23,50.31,50.31,0,0,0,4-3.59c5.9-5.1,15-5.94,23.18-5.47s16.58,1.94,24.63.37a3.1,3.1,0,0,0,2.2-1.14c.58-1-.49-2.23-1.61-2.83-4.33-2.3-9.8-1-14.84-.67-6.18.44-12.34-.65-18.49-1.39s-12.54-1.14-18.42.61C194.88,143.7,186.4,150.33,192.15,155.9Z"/><path class="cls-6" d="M161.26,71.48a5.79,5.79,0,0,0,5.27-1.29A30.9,30.9,0,0,0,170.34,66a25.71,25.71,0,0,1,17-8.65,6.63,6.63,0,0,0,1.88-.33c1.82-.75,2.33-3.33,1.38-5.05a7,7,0,0,0-4.84-3.07c-6.37-1.33-12.69,2.13-18.1,5.76C164.67,56.7,152.92,68.64,161.26,71.48Z"/><path class="cls-6" d="M308.26,51.87a5.82,5.82,0,0,0,3.64,4,31.86,31.86,0,0,0,5.48,1.38,25.67,25.67,0,0,1,15.7,10.9,6.62,6.62,0,0,0,1.18,1.5c1.52,1.25,4,.48,5.1-1.18a7,7,0,0,0,.42-5.71c-1.86-6.25-7.9-10.17-13.66-13.21C322.9,47.87,306.81,43.18,308.26,51.87Z"/><path class="cls-3" d="M247.56,17.51a15.33,15.33,0,0,0-2.89-14.13,31.62,31.62,0,0,1,16.22,11.74c.27-3.53,2.91-6.43,5.74-8.55A33.25,33.25,0,0,1,286.81,0a24.08,24.08,0,0,0-7,23.55,13.27,13.27,0,0,1,11.44-3c-2.92.29-4.34,4.07-3.44,6.88s3.22,4.84,5.25,7,3.95,4.8,3.63,7.73c-.41,3.79-4.3,6.15-7.93,7.32-12.56,4.07-26.44,1-38.4-4.59a50.63,50.63,0,0,1-14-9.18c-1.43-1.4-2.83-3.15-2.72-5.16.18-3.33,5.68-3.41,7.91-4.91A15.22,15.22,0,0,0,247.56,17.51Z"/><path class="cls-2" d="M400.53,151.26a203.07,203.07,0,0,1-2.92,41.27c-2.23,12.73-5.87,25.64-13.95,35.74-8.86,11.09-22.34,17.73-36.17,20.94s-28.17,3.3-42.37,3.37l-89.89.47c-27.12.14-55,.14-80.2-9.9-18.23-7.26-30.62-18.57-38.87-33.35,0,.28.08.55.13.83,3.34,19.18,13.24,37.88,29.63,48.39a76.26,76.26,0,0,0,20.75,8.86c16.44,4.61,33.64,5.67,50.69,6.71s88.72,1.05,105.9,0,34.24-2.1,50.69-6.71A76.39,76.39,0,0,0,374.7,259c16.38-10.51,26.29-29.21,29.62-48.39s.76-38.91-3.46-57.92Z"/><path class="cls-2" d="M269.39,547.94c39.41-1,75.61-6.09,113.49-27.26-13.74,4.72-27.51,9.44-41.68,12.93a277.09,277.09,0,0,1-73.52,7.44,375.15,375.15,0,0,1-74.48-9.95c-13.68-3.18-27-7.21-40.37-11.32,2.62,1.51,4.7,3.5,7.38,4.91,3.57,1.88,7.32,3.55,11,5.15A213.45,213.45,0,0,0,193.73,538a236.19,236.19,0,0,0,48,9.1A251.05,251.05,0,0,0,269.39,547.94Z"/><path class="cls-3" d="M106.4,374.15c-9-1.56-15.41-3.57-22.91-9.27-13.18-10-29.41-16.1-45.39-13.65S6.76,365.76,1.84,382.9C-2,396.44.75,411.14,5.26,424.29c9.41,27.42,26.34,51.47,48,68.16,11.78,9.08,24.81,16,37.78,22.81,42.44,22.41,86.13,45.19,133.25,48.89,7.94.63,16.2.64,23.59-2.8s13.76-11.12,14-20c.15-5.9-2.34-11.42-5.17-16.35-18.4-32.06-52.28-49-73.74-78.6-13.14-18.13-21-40.05-32.82-59.15-3.3-5.32-13.35-23.54-20.09-22.76C121.57,365.48,119.15,376.35,106.4,374.15Z"/><path class="cls-3" d="M406.49,382.94c8.83-1.36,16-8.28,23.41-13.73C443,359.61,459,354,474.5,356.67s30.26,14.87,34.69,31.79c3.5,13.38.46,27.76-4.23,40.59-9.77,26.75-26.81,50-48.3,66-11.69,8.7-24.56,15.21-37.36,21.68-41.91,21.2-85,42.74-131.11,45.47-7.76.47-15.82.33-23-3.2S252.05,547.84,252,539.13c0-5.79,2.53-11.17,5.4-16C276.06,492,309.5,476,331.07,447.38c13.23-17.55,21.36-38.93,33.32-57.46,3.34-5.16,13.54-22.86,20.1-22C392.72,369.07,394,384.87,406.49,382.94Z"/><path class="cls-8" d="M211.58,185.46c.72.4,20,13.86,39.42,13a65.23,65.23,0,0,0,38.44-15.07S290,230.51,252,230.59C217.09,230.67,211.58,185.46,211.58,185.46Z"/><path class="cls-10" d="M251.82,230.59c16.42,0,25.63-8.85,30.81-18.86a22.78,22.78,0,0,0-10.57-4.16c-8.2-1-16.47,2.15-23.18,7-5.2-2.88-11.2-4.57-17.1-3.91a18.41,18.41,0,0,0-9.55,3.72C228.31,223.19,237.64,230.62,251.82,230.59Z"/><path class="cls-2" d="M86.75,366.7c3.61,1.89,8.18,3.51,11.4,1,2.23-1.78,2.92-5,3.39-7.87a196.59,196.59,0,0,0,2.29-22.47,212.25,212.25,0,0,0,8,31.41c1.41,4.17,3,8.44,2.78,12.86s-2.67,9.09-6.74,10.11c-2.87.72-5.91-.5-8.27-2.37s-4.21-4.35-6.24-6.61a95.57,95.57,0,0,0-7.75-7.45L73.7,364.65c-4-3.58-8.07-7.19-12.75-9.72s-8.82-3.25-14.32-4c6.56-.72,17.32,1.62,19.26,2.64C73.13,357.38,79.47,362.87,86.75,366.7Z"/><path class="cls-2" d="M415.72,378.22c-3.32,2.28-7.6,4.4-11,2.22-2.35-1.52-3.33-4.6-4.06-7.45a233.64,233.64,0,0,1-5.22-24c-.77,10.83-1.53,23.52-3.89,34.07-1,4.3-2.06,8.72-1.45,13.1s3.48,8.74,7.54,9.3c2.85.39,5.68-1.16,7.79-3.28s3.67-4.79,5.42-7.27a98.27,98.27,0,0,1,6.8-8.27l10.52-11.88c3.54-4,7.13-8.05,11.43-11.08s8.25-4.22,13.53-5.54c-6.44,0-16.66,3.54-18.45,4.76C428.05,367.44,422.42,373.61,415.72,378.22Z"/><path class="cls-10" d="M377.51,323.76c-2.13-19.54-8.65-39.3-21.94-52.66-13.07-13.13-31.44-18.73-49.24-18.62-13.36.08-27.2,3.45-38.46,11.54-8.7,6.26-9.79,12.49-13.83,21.2v-.6c-4-8.7-5.13-14.94-13.83-21.19C229,255.34,215.12,252,201.75,251.89c-17.79-.11-36.17,5.49-49.23,18.62-13.3,13.36-19.82,33.11-22,52.66-1,9.46-1.13,19.16,1,28.4,2.6,11.11,8.37,21.11,15.26,29.8,17.44,22,41.75,36.06,66,48.25,13.56,6.81,41.16,19.87,41.16,19.87,13.86-6.08,27.6-12.47,41.17-19.28C319.47,418,343.78,404,361.23,382c6.89-8.69,12.66-18.68,15.26-29.8C378.64,342.92,378.54,333.22,377.51,323.76Z"/><path class="cls-11" d="M377.31,323.76c-2.13-19.54-8.65-39.3-21.95-52.66a58.47,58.47,0,0,0-11.64-9c9.22,10,16.1,22.21,18,35.6,3.7,26.28-11.89,51.16-28.23,72.07-7.34,9.4-15,18.62-24.18,26.26a116,116,0,0,1-31.58,18.39c-8.58,3.41-17.58,6-26.8,6.51-10.88.64-21.76-1.57-32.19-4.77a168.2,168.2,0,0,1-36.84-16.44,170.46,170.46,0,0,1-49.55-44.59c2.91,9.71,8.16,18.51,14.31,26.27,17.45,22,41.75,36.06,66,48.25,13.57,6.81,41.17,19.87,41.17,19.87,13.85-6.08,27.6-12.47,41.16-19.28C319.27,418,343.57,404,361,382c6.89-8.69,12.66-18.68,15.26-29.8C378.44,342.92,378.34,333.22,377.31,323.76Z"/><path class="cls-3" d="M421.05,283.47c8.41,26,6.31,57.65-5.16,77.94-12.22,21.59-32.41,28.91-51.66,33.49-7,1.67-14.44,3.07-21.48-.59s-13.47-14-12.85-24.68a23.72,23.72,0,0,1,8-16.47c4.06-3.54,8.74-5.39,13.12-8.05,18.39-11.16,30.47-37,35.2-65.54,2-12.23.24-30.19,12-26.92C408,255.39,416.86,270.51,421.05,283.47Z"/><path class="cls-2" d="M421.46,282.78c-4-12.42-12.35-26.83-21.71-30.41a78.16,78.16,0,0,1,7.6,16.58c8.42,26,6.32,57.66-5.15,77.95-12.21,21.59-32.41,28.91-51.66,33.48-5.88,1.4-12,2.61-18,.83,2.39,5.63,6.39,10.23,10.61,12.42,7,3.65,14.45,2.25,21.48.58,19.25-4.58,39.45-11.89,51.66-33.49C427.77,340.43,429.87,308.81,421.46,282.78Z"/><path class="cls-3" d="M79.2,290.13c-4.78,26.94,1.6,58,15.73,76.51,15,19.73,36,24.23,55.74,26.14,7.2.7,14.73,1.07,21.2-3.51s11.44-15.7,9.37-26.2a23.68,23.68,0,0,0-10.12-15.23c-4.51-3-9.39-4.15-14.1-6.19-19.73-8.55-35.21-32.46-43.8-60.14-3.68-11.83-4.35-29.87-15.53-25C88.32,260.54,81.58,276.73,79.2,290.13Z"/><path class="cls-2" d="M78.7,289.51c2.28-12.86,8.58-28.27,17.36-33.09a78,78,0,0,0-5.27,17.47c-4.79,26.93,1.59,58,15.73,76.51,15,19.73,36,24.23,55.74,26.14,6,.58,12.26.94,17.94-1.64-1.61,5.91-4.95,11-8.83,13.75-6.47,4.58-14,4.2-21.2,3.51-19.7-1.91-40.7-6.41-55.74-26.14C80.3,347.48,73.92,316.44,78.7,289.51Z"/><path class="cls-9" d="M149.49,307.42c-.73,2.83-1.18,6,.3,8.55,1.94,3.31,6.65,4.12,10.22,2.69s6.18-4.52,8.38-7.66c4.39-6.28,7.78-13.24,12.42-19.34s10.91-11.47,18.46-12.76c5.17-.89,10.66.19,15.59-1.58A5.52,5.52,0,0,0,218,275c1.58-3.06-2-6.24-5.26-7.4C186,258,155.93,282.35,149.49,307.42Z"/><path class="cls-6" d="M165.94,94.64c.14,6.21,3.23,12,6.6,17.19,2.08,3.23,4.4,6.47,7.71,8.43s7.85,2.32,10.82-.11a12,12,0,0,0,3.26-5.05,35,35,0,0,0,.18-24.86c-1.22-3.25-3-6.43-6-8.33A14.61,14.61,0,0,0,165.94,94.64Z"/><path class="cls-8" d="M173.59,102.69c-1,3.73,0,7.72,1.34,11.33a15.85,15.85,0,0,0,4.39,6.84,15.07,15.07,0,0,0,4.47,2.31,12.89,12.89,0,0,0,4.84,1c3.58-.11,6.73-2.81,8.14-6.1a17.83,17.83,0,0,0,.6-10.56c-.75-3.66-2.25-7.3-5-9.79C186.8,92.76,175.59,95.18,173.59,102.69Z"/><path class="cls-12" d="M177.88,101.43a8.8,8.8,0,0,0-1.47,4.82A8.62,8.62,0,0,0,177,110a4.69,4.69,0,0,0,2.6,2.64,2,2,0,0,0,.86.14,1.8,1.8,0,0,0,1.13-.58c1.76-1.78.48-5,1.7-7.16a12.23,12.23,0,0,1,1.77-2,3,3,0,0,0,.91-2.44,2.45,2.45,0,0,0-1.71-1.68C182,98.14,179.2,99.62,177.88,101.43Z"/><path class="cls-6" d="M299.32,89c-3,5.44-3.26,12-3,18.17.16,3.84.52,7.81,2.37,11.18s5.6,6,9.4,5.37a11.92,11.92,0,0,0,5.36-2.7,35,35,0,0,0,12.74-21.34c.59-3.42.63-7.09-.92-10.2A14.62,14.62,0,0,0,299.32,89Z"/><path class="cls-8" d="M301.85,99.79c-2.76,2.72-4,6.65-4.58,10.46a15.76,15.76,0,0,0,.32,8.13,15.64,15.64,0,0,0,2.68,4.25,13.2,13.2,0,0,0,3.68,3.31c3.15,1.71,7.23,1,10.11-1.15a17.83,17.83,0,0,0,5.86-8.8c1.21-3.54,1.75-7.44.61-11C318.27,97.93,307.37,94.34,301.85,99.79Z"/><path class="cls-12" d="M306.18,100.89a8.83,8.83,0,0,0-3.71,3.41,8.7,8.7,0,0,0-1.42,3.5,4.67,4.67,0,0,0,.9,3.59,2,2,0,0,0,.68.56,1.85,1.85,0,0,0,1.27.07c2.42-.64,2.93-4,5.09-5.32a13.19,13.19,0,0,1,2.55-.86,3,3,0,0,0,2-1.64,2.43,2.43,0,0,0-.62-2.32C311.37,100.12,308.24,100,306.18,100.89Z"/><path class="cls-2" d="M164.74,545.51c0,3,3,5.07,5.66,6.42,29.85,14.91,66.13,15.53,99.47,14.12,37.47-1.58,64.34-10.5,94.81-22.51,3.62-1.43,7.27-3,10.13-5.64s4.86-6.51,4.28-10.35c-.77-5.07-5.79-8.63-10.85-9.4s-3.72-19.75-8.65-18.36c-29.81,8.44-50.06,37.87-107.44,35.62-57.92-2.27-68.53-10-91.91-30.56-7.61-6.7-6.69,15.49-15.82,11.07-.54,7.49,2.28,14.91,6.47,21.14s9.69,11.43,15.15,16.59Z"/><path class="cls-6" d="M82.15,443.39a44.83,44.83,0,0,0-10.07,32.5,67.71,67.71,0,0,0,5.1,18.82,142.88,142.88,0,0,0,54.9,66.19c5,3.23,10.35,6.17,16.15,7.62,8.63,2.15,17.88.83,26.14-2.49,5.81-2.33,11.39-5.8,14.88-11,3.78-5.64,4.72-12.71,4.93-19.51,1.16-37.82-17.5-74.55-45-100.58-5.06-4.8-10.66-9.42-17.41-11.18C116,419.67,92,431.54,82.15,443.39Z"/><path class="cls-6" d="M48.48,444.28c1.66-1.31,4.06-.37,5.94.61,10.18,5.31,20.64,10.84,28,19.65,3.77,4.53,6.34,11.07,1.08,15.61-4.89,4.23-10,.47-13.88-3.26C60.36,467.9,53.2,456.23,48.48,444.28Z"/><path class="cls-6" d="M77.42,404.72c1.93-.85,4,.65,5.61,2.06,8.57,7.65,17.35,15.58,22.31,25.93,2.54,5.32,3.42,12.28-2.79,15.4-5.78,2.9-9.85-2-12.65-6.58C83.14,430.54,79.06,417.46,77.42,404.72Z"/><path class="cls-6" d="M124.81,398.05c2.11,0,3.4,2.27,4.25,4.2,4.61,10.52,9.3,21.38,9.51,32.86.1,5.89-2,12.6-8.93,12.85-6.47.23-8.13-5.93-8.78-11.25C119.28,423.91,121,410.32,124.81,398.05Z"/><path class="cls-5" d="M102.82,491.46c0,5.38,1.89,10.57,4,15.5,7.25,16.79,17.92,33,34,41.71,7.08,3.81,16.14,5.88,22.93,1.58,4.37-2.76,7-7.76,7.83-12.86s.13-10.33-1-15.39c-3.14-14.51-9.29-28.18-15.8-41.53-2.19-4.5-4.48-9-7.94-12.65C132.79,453.11,102.92,473.93,102.82,491.46Z"/><path class="cls-5" d="M96.81,443.3a13.37,13.37,0,0,0,.32,8.49c1.71,5.23,5.62,10.1,11,11.3a5.89,5.89,0,0,0,4.14-.34c1.81-1,2.52-3.27,2.67-5.34a25.2,25.2,0,0,0-1.35-9.41,18.63,18.63,0,0,0-3.06-6.24C106.53,436.86,99.14,436.66,96.81,443.3Z"/><path class="cls-5" d="M127.15,434.42a9.84,9.84,0,0,0-2,7.25,23.48,23.48,0,0,0,2.17,7.38c1.1,2.53,2.73,5.31,5.45,5.75,2.22.36,4.43-1.08,5.61-3a15.32,15.32,0,0,0,1.8-6.44c.31-2.76.49-5.65-.48-8.25C137.74,432,131,430,127.15,434.42Z"/><path class="cls-5" d="M79.59,473a15.72,15.72,0,0,0,3.53,4.31,19.82,19.82,0,0,0,9.14,5.23,5.61,5.61,0,0,0,4.23-.48c2-1.31,2.11-4.13,1.64-6.43a30,30,0,0,0-4.38-9.9,14.86,14.86,0,0,0-5-5.35C81,456.08,76.65,467.19,79.59,473Z"/><path class="cls-6" d="M397.77,431.36a44.78,44.78,0,0,0-34,.09,67.35,67.35,0,0,0-16.45,10.48,142.87,142.87,0,0,0-46.79,72.15c-1.58,5.76-2.8,11.72-2.45,17.69.52,8.88,4.53,17.31,10.16,24.2,4,4.85,8.94,9.14,14.94,10.92,6.52,1.93,13.55.72,20.09-1.11,36.45-10.18,65.94-38.95,82.6-72.92,3.07-6.26,5.8-13,5.46-20C430.52,456.64,412,437.26,397.77,431.36Z"/><path class="cls-6" d="M386.88,399.49c1.74,1.19,1.55,3.77,1.18,5.85-2,11.3-4.18,22.94-10.4,32.59-3.19,4.95-8.67,9.35-14.57,5.69-5.5-3.41-3.45-9.45-1-14.23C367.88,417.88,376.88,407.56,386.88,399.49Z"/><path class="cls-6" d="M433.27,415.32c1.39,1.58.58,4-.29,6-4.75,10.46-9.7,21.2-18.1,29-4.31,4-10.7,6.93-15.52,1.93-4.5-4.65-1-10,2.5-14C410.33,428.47,421.59,420.68,433.27,415.32Z"/><path class="cls-6" d="M453.77,458.56c.61,2-1.15,3.92-2.74,5.3-8.66,7.54-17.64,15.26-28.53,18.88-5.59,1.86-12.61,1.86-14.92-4.69-2.15-6.11,3.23-9.52,8.11-11.73C427.44,461,440.92,458.59,453.77,458.56Z"/><path class="cls-5" d="M358.05,465.43c-5.14,1.57-9.52,5-13.59,8.47-13.86,11.92-26.19,27-29.66,44.91-1.53,7.89-.8,17.15,5.33,22.36,3.94,3.34,9.49,4.34,14.61,3.63s9.9-3,14.4-5.51c12.91-7.33,24.13-17.28,34.93-27.47,3.64-3.43,7.29-7,9.7-11.36C403.6,482.6,374.81,460.3,358.05,465.43Z"/><path class="cls-5" d="M402.22,445.33a13.3,13.3,0,0,0-8,2.84c-4.48,3.18-8,8.37-7.51,13.84a6,6,0,0,0,1.56,3.86c1.51,1.43,3.87,1.42,5.9,1a25.33,25.33,0,0,0,8.57-4.11,18.55,18.55,0,0,0,5.05-4.78C411.28,452.68,409.26,445.57,402.22,445.33Z"/><path class="cls-5" d="M419.76,471.63a9.88,9.88,0,0,0-7.53.22,23.59,23.59,0,0,0-6.4,4.28c-2.09,1.81-4.26,4.18-3.86,6.92.32,2.22,2.35,3.9,4.53,4.46a15.44,15.44,0,0,0,6.69-.21c2.73-.53,5.53-1.22,7.73-2.92C425.27,481,425.12,474,419.76,471.63Z"/><path class="cls-5" d="M368.79,437.74a15.77,15.77,0,0,0-3.06,4.65,19.89,19.89,0,0,0-2.27,10.29,5.63,5.63,0,0,0,1.73,3.89c1.83,1.48,4.56.78,6.62-.35a29.88,29.88,0,0,0,8.15-7.14,14.94,14.94,0,0,0,3.6-6.39C385.31,434,373.41,433.21,368.79,437.74Z"/></g></g></svg>