<svg xmlns="http://www.w3.org/2000/svg" viewBox="0 0 380.81 380.81"><defs><style>.cls-1{fill:#1072ba;}.cls-2{fill:#fff;}.cls-3{fill:#145083;opacity:0.9;}</style></defs><title>Asset 1</title><g id="Layer_2" data-name="Layer 2"><g id="Layer_1-2" data-name="Layer 1"><path class="cls-1" d="M380.81,190.41a190,190,0,0,1-6.05,47.77c-20.66,80-92,139.57-177.7,142.5-2.2.1-4.42.13-6.66.13C85.25,380.81,0,295.56,0,190.41S85.25,0,190.4,0,380.81,85.25,380.81,190.41Z"/><path class="cls-2" d="M231,180.59H220.31a61.44,61.44,0,0,1-56.58,0H153.07A47.48,47.48,0,0,0,105.64,228v61.49H278.4V228A47.49,47.49,0,0,0,231,180.59Z"/><path class="cls-2" d="M241.88,125.85A49.86,49.86,0,1,0,192,175.72,49.92,49.92,0,0,0,241.88,125.85Z"/><path class="cls-3" d="M374.76,238.18c-20.66,80-92,139.57-177.7,142.5v-.24h-.48V380h-.49v-.48h-.49V379h-.48v-.49h-.49V378h-.49v-.49h-.48V377h-.49v-.48h-.49v-.49h-.48v-.49h-.49v-.48h-.49v-.49h-.48v-.49h-.49v-.48h-.48v-.49h-.49v-.49h-.49v-.48h-.48v-.49h-.49v-.49h-.49v-.48h-.48v-.49h-.49v-.49h-.49v-.48h-.48v-.49h-.49v-.49h-.49v-.47h-.48v-.48h-.49v-.49H183v-.49h-.48v-.48H182v-.49h-.49v-.49H181v-.48h-.49v-.49H180v-.49h-.48v-.48h-.49v-.49h-.49V362h-.48v-.48h-.49V361h-.49v-.48h-.48V360h-.49v-.49h-.49v-.48h-.48v-.49h-.49v-.49h-.49v-.48h-.48v-.49h-.49v-.49h-.48v-.48h-.49v-.49h-.49v-.49h-.47v-.48h-.49v-.49h-.48v-.49h-.49v-.48h-.48v-.49h-.49v-.49h-.49v-.48h-.48v-.49h-.49v-.49h-.49v-.48h-.48v-.49h-.49v-.49h-.49v-.48H165v-.49h-.49v-.49H164v-.48h-.48v-.49H163v-.49h-.49v-.48h-.48v-.49h-.49v-.49h-.49v-.48h-.48V344h-.49v-.49h-.49V343h-.48v-.48h-.49V342h-.49v-.49h-.48v-.48h-.49v-.49h-.49v-.48h-.48v-.49h-.49v-.49h-.49v-.48h-.48v-.49h-.49v-.49h-.49v-.48h-.48v-.49h-.49v-.49h-.48v-.48h-.49v-.49h-.49v-.49h-.48v-.48h-.49v-.49h-.49v-.49h-.48v-.48h-.49v-.49h-.49v-.49h-.48v-.48h-.49v-.49H147v-.49h-.47v-.48H146v-.49h-.49v-.49H145v-.48h-.48v-.49h-.49v-.49h-.49V327h-.48v-.49h-.49V326h-.49v-.48h-.48V325h-.49v-.49h-.49V324h-.48v-.49h-.49v-.49h-.49v-.48h-.48v-.49h-.49v-.48h-.49v-.49h-.48v-.49h-.49v-.48h-.49v-.49h-.48v-.49h-.49v-.48h-.49v-.47h-.48v-.49h-.49v-.49h-.49v-.48h-.48v-.49h-.49v-.49h-.49v-.48h-.48v-.49h-.49v-.49h-.48v-.48H130v-.49h-.49v-.49H129v-.48h-.49v-.49H128v-.49h-.48v-.48H127v-.49h-.49v-.49h-.48v-.48h-.49V309h-.49v-.49h-.48V308h-.49v-.49h-.49V307h-.48v-.48h-.49V306h-.49v-.49h-.47v-.48h-.48v-.49h-.49v-.49h-.49v-.48h-.48v-.49h-.49v-.49h-.49v-.48h-.48v-.49h-.49v-.48h-.49v-.49h-.48v-.49h-.49v-.48h-.49v-.49h-.48v-.49h-.49v-.48h-.49v-.49h-.48v-.49h-.49v-.48h-.49v-.49h-.48v-.49H112v-.48h-.49v-.49H111v-.49h-.49v-.48H110v-.49h-.49v-.49H109v-.48h-.48V292h-.49v-.49h-.49V291h-.48v-.48h-.49V290h-.49v-.49h-.48V228a47.48,47.48,0,0,1,47.44-47.42h10.65a61.81,61.81,0,0,0,18.67,6.13l-.1-.1-.48-.49-.49-.48-.47-.49c-.18-.16-.34-.33-.49-.49s-.34-.32-.48-.48-.34-.33-.49-.49-.34-.33-.49-.49l-.48-.48c-.18-.17-.33-.33-.49-.49l-7.3-7.3c-.16-.16-.32-.31-.48-.49s-.33-.3-.49-.48-.32-.31-.49-.49-.32-.31-.48-.47l-.49-.49-.49-.48-.48-.49-.49-.49-.49-.48-.48-.49c-.17-.16-.33-.32-.49-.49l-.49-.48-.48-.49c-.16-.16-.33-.32-.49-.49l-.49-.48-.48-.49-.49-.48-.49-.49-.48-.49-.49-.48c-.16-.17-.32-.33-.49-.49l-.48-.49-.49-.48c-.16-.17-.32-.33-.49-.49l-.48-.49-.49-.48-.48-.49-.49-.49a49.83,49.83,0,1,1,70.47-70.47c.16.16.34.32.49.49l.48.48.49.49.49.49.48.48.49.49c.16.16.33.32.49.49l.48.48.49.49.49.49.48.48.49.49.49.49.48.48.49.49.49.49.48.48c.17.16.33.33.49.49l.49.49.48.48.49.49.49.48c.16.17.32.31.48.49s.33.31.49.49.32.31.49.48.32.31.48.48l.49.48c.16.16.32.33.49.49l.48.48c.16.17.33.33.49.49s.32.33.49.49l.48.48c.16.17.33.33.49.49l.48.49.49.48c.16.17.33.33.49.49l.48.49.49.48c.16.17.33.33.49.49l.48.49.49.48.49.49.48.49.49.48c.16.17.33.33.49.49s.32.32.47.49a5.43,5.43,0,0,1,.48.48c.18.17.34.33.49.49a5.66,5.66,0,0,1,.49.49c.16.16.34.32.48.48l.49.49c.16.16.34.32.49.49l.48.48c.17.16.33.33.49.49l.49.49.48.48.49.49.49.49.48.48c.17.16.33.33.49.49l.49.49.48.48.49.49.49.48.48.49.49.49.49.48.48.49.49.49.49.48.48.49.49.49.49.48c.16.17.32.31.48.49s.33.31.49.49.32.31.48.48.33.31.49.47l.49.49.48.49.49.48.49.49.48.49.49.48c.16.17.33.33.49.49l.48.49.49.48.49.49.48.49.49.48.49.49.48.49.49.48.49.49.48.49.49.48c.16.16.32.33.49.49s.32.32.47.49a5.43,5.43,0,0,1,.48.48c.18.16.34.33.49.49a5.66,5.66,0,0,1,.49.49c.16.16.34.32.48.48l.49.49c.16.16.34.32.49.49l10.7,10.7c.16.16.33.31.49.49s.32.3.48.48a5.66,5.66,0,0,1,.49.49l.49.47.48.49.49.48.49.49.48.49.49.48c.16.17.32.33.49.49l.48.49.49.48c.16.16.32.33.49.49l.48.49.49.48c.16.16.32.33.49.49l.48.49.49.48.49.49.48.49.49.48.49.49.47.48c.17.17.34.33.48.49s.34.33.49.49.34.32.49.48.34.33.48.49.34.33.49.49.34.32.49.48l.48.49.49.49.49.48.48.49.49.49.48.48.49.49.49.49.48.48.49.49.49.49.48.48.49.49.49.49.48.48.49.49c.16.16.33.32.49.49l.48.48.49.49.49.49.48.48c.17.16.33.33.49.49l.49.49c.16.16.32.3.48.48a5.66,5.66,0,0,1,.49.49c.16.14.32.31.49.47l.48.49.49.48c.16.16.32.33.49.49l.48.49.49.48.49.49.48.49.49.48c.16.16.32.33.49.49l.48.49.49.48c.16.16.32.33.49.49l.48.48c.16.17.33.33.49.49l.49.49.48.48.49.49.48.49q.25.24.48.48c.17.17.34.33.48.49s.34.33.49.49a5.43,5.43,0,0,1,.48.48c.17.17.35.33.49.49s.34.32.49.49.34.32.48.48l.49.49c.16.16.33.32.49.49l.48.48.49.49.49.49.48.48.49.49c.16.16.33.32.49.49l.48.48.49.49.49.49.48.48c.17.16.33.33.49.49l.49.49.48.48.49.49.49.49.48.48c.17.16.33.33.49.49l.49.49.48.48c.17.16.33.33.49.49l.49.49c.16.16.32.3.48.48s.33.31.49.49.32.31.49.47l.48.49.49.48c.16.16.32.33.49.49l.48.48.49.49c.16.16.32.33.49.49l.48.48c.16.17.33.33.49.49l.48.49.49.48.49.49.48.49.49.48.49.49.48.49.49.48c.16.17.33.33.49.49l.48.49.49.48c.16.17.33.33.47.49a5.66,5.66,0,0,1,.49.49,5.43,5.43,0,0,1,.48.48c.18.17.34.33.49.49s.34.32.49.49.34.32.48.48.34.33.49.49l.49.49.48.48.49.49.49.49.48.48c.17.16.33.33.49.49l.49.49.48.48.49.49.49.49.48.48c.17.16.33.33.49.49l.49.49.48.48.49.49.49.48.48.49.49.49.49.48.48.49.49.49.49.48c.16.17.32.31.48.49s.33.31.49.49.32.31.48.47l.49.48c.16.17.33.33.49.49l.48.49.49.48.49.49.48.49.49.48.49.49.48.49.49.48c.16.17.33.33.49.49l.48.49.49.48c.16.17.32.33.49.49l.48.49.49.48c.16.17.32.33.49.49C373.53,236.88,374.15,237.51,374.76,238.18Z"/><path class="cls-2" d="M231,180.59H220.31a61.44,61.44,0,0,1-56.58,0H153.07A47.48,47.48,0,0,0,105.64,228v61.49H278.4V228A47.49,47.49,0,0,0,231,180.59Z"/><path class="cls-2" d="M241.88,125.85A49.86,49.86,0,1,0,192,175.72,49.92,49.92,0,0,0,241.88,125.85Z"/></g></g></svg>