<svg xmlns="http://www.w3.org/2000/svg" viewBox="0 0 105.63 139.88"><defs><style>.cls-1{fill:#d0a64d;}.cls-2{fill:#f4cc6a;}</style></defs><title>Asset 1</title><g id="Layer_2" data-name="Layer 2"><g id="Layer_1-2" data-name="Layer 1"><path class="cls-1" d="M32.07,61.19C5.11,38.27-3,17,.93,6.08,2.29,2.32,5.13.05,8.55,0A14.29,14.29,0,0,1,19,4.24c4,4,6.45,10.59,6.45,17.68H19.74c0-5.5-1.81-10.71-4.74-13.59A8.7,8.7,0,0,0,8.63,5.75C7.41,5.77,6.71,7,6.34,8c-2.63,7.31,3,26.33,29.45,48.78Z"/><path class="cls-1" d="M73.57,61.19l-3.73-4.38C96.25,34.36,101.92,15.33,99.29,8,98.92,7,98.22,5.77,97,5.75a8.65,8.65,0,0,0-6.38,2.58c-2.92,2.88-4.74,8.09-4.74,13.59H80.14c0-7.09,2.41-13.7,6.45-17.68A14.33,14.33,0,0,1,97.09,0c3.41.05,6.26,2.32,7.61,6.08C108.63,17,100.52,38.27,73.57,61.19Z"/><path class="cls-2" d="M61.54,76.83A34.56,34.56,0,0,0,65,91.89H40.68a35,35,0,0,0,0-30.12H65A34.56,34.56,0,0,0,61.54,76.83Z"/><path class="cls-1" d="M19.79,8.26v27a33,33,0,0,0,66.06,0v-27Z"/><path class="cls-2" d="M71.22,105.31a18.41,18.41,0,1,0-36.81,0Z"/><rect class="cls-1" x="17.08" y="130.68" width="71.47" height="9.2"/><rect class="cls-2" x="24.72" y="103.43" width="56.2" height="27.25"/><path class="cls-1" d="M67.58,125.6H38.05A3.64,3.64,0,0,0,34.41,122v-9.8a3.64,3.64,0,0,0,3.64-3.64H67.58a3.64,3.64,0,0,0,3.64,3.64V122A3.64,3.64,0,0,0,67.58,125.6Z"/></g></g></svg>