<svg xmlns="http://www.w3.org/2000/svg" viewBox="0 0 96.32 118.89"><defs><style>.cls-1{isolation:isolate;}.cls-2{fill:#dc2048;}.cls-3{opacity:0.1;mix-blend-mode:multiply;}</style></defs><title>Asset 2</title><g class="cls-1"><g id="Layer_2" data-name="Layer 2"><g id="Layer_1-2" data-name="Layer 1"><path class="cls-2" d="M88.41,11C83.13,2.55,71.84,3.83,64.8,9c-6.89,5.09-11.35,12.56-15.14,20.22C49.06,17.11,49.18,2,35.74.16,25.66-1.23,21.13,6.63,22.49,15.67c.86,5.71,4.16,9.79,8.07,13.48l-.14,0c-3.71.81-6.74,3.14-10.4,4.11C15.39,34.51,11,32,7.55,29.15c-3-2.52-7.34,1.78-4.32,4.32,5.76,4.85,12.1,7.38,19.59,5.4,3.7-1,6.6-3.75,10.53-3.84C35.87,35,38.11,36.35,40,38.1H57.68c3.74-1.71,7.53-3.33,11.4-4.75,4-1.48,8.23-2.5,12.23-4.07C89.68,26,93.53,19.17,88.41,11ZM38.17,27.78c-3.28-2.81-7-5.74-8.71-9.85C27.14,12.26,28.38,3.11,36.7,6.64,42.14,9,42.82,17.17,43.29,22.19c.33,3.54.31,7.19.53,10.8C42,31.17,40.14,29.47,38.17,27.78Zm35.05-2.23a141.72,141.72,0,0,0-18.47,7.18A67.24,67.24,0,0,1,64.07,18C69.25,12,79.46,6.76,84.24,16,87.43,22.2,77.18,24.35,73.22,25.55Z"/><rect class="cls-2" y="61.87" width="34.21" height="57.02"/><rect class="cls-2" x="62.11" y="61.87" width="34.21" height="57.02"/><rect class="cls-2" x="41.18" y="41.08" width="13.95" height="77.81"/><polygon class="cls-3" points="90.21 61.87 90.21 114.81 0 114.81 0 118.89 96.32 118.89 96.32 61.87 90.21 61.87"/><rect class="cls-2" y="41.23" width="34.21" height="12.43"/><rect class="cls-2" x="62.11" y="41.23" width="34.21" height="12.43"/><rect class="cls-3" y="50.39" width="96.32" height="3.26"/></g></g></g></svg>