<svg xmlns="http://www.w3.org/2000/svg" viewBox="0 0 14.71 14.71"><defs><style>.cls-1{fill:#fff;}</style></defs><title>Asset 16</title><g id="Layer_2" data-name="Layer 2"><g id="Layer_1-2" data-name="Layer 1"><path class="cls-1" d="M7.35,1.32c2,0,2.2,0,3,.05a4.06,4.06,0,0,1,1.37.25,2.16,2.16,0,0,1,.84.55,2.19,2.19,0,0,1,.55.85,3.69,3.69,0,0,1,.26,1.36c0,.78,0,1,0,3s0,2.2,0,3a3.76,3.76,0,0,1-.26,1.37,2.46,2.46,0,0,1-1.39,1.39,3.76,3.76,0,0,1-1.37.26c-.77,0-1,0-3,0s-2.19,0-3,0A3.69,3.69,0,0,1,3,13.08a2.19,2.19,0,0,1-.85-.55,2.16,2.16,0,0,1-.55-.84,4.06,4.06,0,0,1-.25-1.37c0-.77-.05-1-.05-3s0-2.19.05-3A4,4,0,0,1,1.62,3a2.19,2.19,0,0,1,.55-.85A2.19,2.19,0,0,1,3,1.62a4,4,0,0,1,1.36-.25c.78,0,1-.05,3-.05M7.35,0c-2,0-2.24,0-3,0A5.22,5.22,0,0,0,2.54.39,3.64,3.64,0,0,0,.39,2.54,5.22,5.22,0,0,0,0,4.32c0,.79,0,1,0,3s0,2.25,0,3a5.28,5.28,0,0,0,.35,1.79,3.72,3.72,0,0,0,2.15,2.15,5.24,5.24,0,0,0,1.78.34c.79,0,1,.05,3,.05s2.25,0,3-.05a5.31,5.31,0,0,0,1.79-.34,3.79,3.79,0,0,0,2.15-2.15,5.31,5.31,0,0,0,.34-1.79c0-.78.05-1,.05-3s0-2.24-.05-3a5.24,5.24,0,0,0-.34-1.78A3.72,3.72,0,0,0,12.17.39,5.28,5.28,0,0,0,10.38,0c-.78,0-1,0-3,0Z"/><path class="cls-1" d="M7.35,3.58a3.78,3.78,0,1,0,3.78,3.77A3.77,3.77,0,0,0,7.35,3.58Zm0,6.22A2.45,2.45,0,1,1,9.8,7.35,2.45,2.45,0,0,1,7.35,9.8Z"/><circle class="cls-1" cx="11.28" cy="3.43" r="0.88"/></g></g></svg>