<svg xmlns="http://www.w3.org/2000/svg" viewBox="0 0 10.76 13.97"><defs><style>.cls-1{fill:#fff;}</style></defs><title>Asset 12</title><g id="Layer_2" data-name="Layer 2"><g id="Layer_1-2" data-name="Layer 1"><path class="cls-1" d="M5.38,0A5.38,5.38,0,0,0,0,5.38a9.57,9.57,0,0,0,2.57,6.21,14.07,14.07,0,0,0,2.55,2.3.5.5,0,0,0,.26.08.53.53,0,0,0,.27-.08,14.45,14.45,0,0,0,2.55-2.3,9.55,9.55,0,0,0,2.56-6.21A5.38,5.38,0,0,0,5.38,0Zm0,7.38A2.07,2.07,0,1,1,7.45,5.31,2.07,2.07,0,0,1,5.38,7.38Z"/></g></g></svg>