<svg xmlns="http://www.w3.org/2000/svg" xmlns:xlink="http://www.w3.org/1999/xlink" viewBox="0 0 365.14 145.48"><defs><style>.cls-1{isolation:isolate;}.cls-2{fill:#414042;}.cls-3{fill:#f1f2f2;}.cls-4{fill:#e6e7e8;}.cls-5{mix-blend-mode:multiply;}.cls-6{fill:#fff;opacity:0;}.cls-7{fill:#f7f7f6;opacity:0.03;}.cls-8{fill:#f2f1f0;opacity:0.06;}.cls-9{fill:#ecebeb;opacity:0.1;}.cls-10{fill:#e8e6e6;opacity:0.13;}.cls-11{fill:#e3e1e2;opacity:0.16;}.cls-12{fill:#dedddd;opacity:0.19;}.cls-13{fill:#dad8d9;opacity:0.23;}.cls-14{fill:#d5d4d4;opacity:0.26;}.cls-15{fill:#d1d0d0;opacity:0.29;}.cls-16{fill:#cdcbcc;opacity:0.32;}.cls-17{fill:#c9c7c8;opacity:0.35;}.cls-18{fill:#c5c3c4;opacity:0.39;}.cls-19{fill:#c1bfc0;opacity:0.42;}.cls-20{fill:#bdbbbd;opacity:0.45;}.cls-21{fill:#b9b7b9;opacity:0.48;}.cls-22{fill:#b5b4b5;opacity:0.52;}.cls-23{fill:#b1b0b2;opacity:0.55;}.cls-24{fill:#adacae;opacity:0.58;}.cls-25{fill:#aaa9ab;opacity:0.61;}.cls-26{fill:#a6a5a7;opacity:0.65;}.cls-27{fill:#a2a2a4;opacity:0.68;}.cls-28{fill:#9f9ea1;opacity:0.71;}.cls-29{fill:#9b9b9d;opacity:0.74;}.cls-30{fill:#98989a;opacity:0.77;}.cls-31{fill:#949497;opacity:0.81;}.cls-32{fill:#919194;opacity:0.84;}.cls-33{fill:#8d8e91;opacity:0.87;}.cls-34{fill:#8a8b8e;opacity:0.9;}.cls-35{fill:#87888b;opacity:0.94;}.cls-36{fill:#848588;opacity:0.97;}.Graphic-Style{fill:#818285;}.cls-37{fill:url(#linear-gradient);}.cls-38{fill:url(#linear-gradient-2);}.cls-39{fill:url(#linear-gradient-3);}.cls-40{fill:url(#linear-gradient-4);}.cls-41{fill:url(#linear-gradient-5);}.cls-42{fill:url(#linear-gradient-6);}.cls-43{fill:url(#linear-gradient-7);}.cls-44{fill:url(#linear-gradient-8);}.cls-45{fill:url(#linear-gradient-9);}.cls-46{fill:url(#linear-gradient-10);}.cls-47{fill:url(#linear-gradient-11);}.cls-48{fill:url(#linear-gradient-12);}.cls-49{fill:url(#linear-gradient-13);}.cls-50{fill:url(#linear-gradient-14);}</style><linearGradient id="linear-gradient" x1="306.83" y1="53.41" x2="346.34" y2="53.41" gradientUnits="userSpaceOnUse"><stop offset="0" stop-color="#e34364"/><stop offset="1" stop-color="#dc2048"/></linearGradient><linearGradient id="linear-gradient-2" x1="308.08" y1="53.41" x2="345.08" y2="53.41" gradientUnits="userSpaceOnUse"><stop offset="0" stop-color="#dc2048"/><stop offset="1" stop-color="#e34364"/></linearGradient><linearGradient id="linear-gradient-3" x1="7.52" y1="53.41" x2="51.73" y2="53.41" xlink:href="#linear-gradient"/><linearGradient id="linear-gradient-4" x1="8.78" y1="53.41" x2="50.48" y2="53.41" xlink:href="#linear-gradient-2"/><linearGradient id="linear-gradient-5" x1="68.24" y1="53.41" x2="79.53" y2="53.41" gradientUnits="userSpaceOnUse"><stop offset="0" stop-color="#ffcb05"/><stop offset="1" stop-color="#f8ac1c"/></linearGradient><linearGradient id="linear-gradient-6" x1="69.49" y1="53.41" x2="78.27" y2="53.41" gradientUnits="userSpaceOnUse"><stop offset="0" stop-color="#f8ac1c"/><stop offset="1" stop-color="#ffcb05"/></linearGradient><linearGradient id="linear-gradient-7" x1="220.55" y1="53.41" x2="231.84" y2="53.41" gradientUnits="userSpaceOnUse"><stop offset="0" stop-color="#f47a51"/><stop offset="1" stop-color="#f15b2b"/></linearGradient><linearGradient id="linear-gradient-8" x1="221.8" y1="53.41" x2="230.58" y2="53.41" gradientUnits="userSpaceOnUse"><stop offset="0" stop-color="#f15b2b"/><stop offset="1" stop-color="#f47a51"/></linearGradient><linearGradient id="linear-gradient-9" x1="250.25" y1="53.41" x2="289.76" y2="53.41" xlink:href="#linear-gradient-5"/><linearGradient id="linear-gradient-10" x1="251.51" y1="53.41" x2="288.51" y2="53.41" xlink:href="#linear-gradient-6"/><linearGradient id="linear-gradient-11" x1="97.15" y1="53.41" x2="140.88" y2="53.41" gradientUnits="userSpaceOnUse"><stop offset="0" stop-color="#27ace3"/><stop offset="1" stop-color="#1e94d2"/></linearGradient><linearGradient id="linear-gradient-12" x1="98.4" y1="53.41" x2="139.63" y2="53.41" gradientUnits="userSpaceOnUse"><stop offset="0" stop-color="#1e94d2"/><stop offset="1" stop-color="#27ace3"/></linearGradient><linearGradient id="linear-gradient-13" x1="158.75" y1="53.41" x2="202.49" y2="53.41" xlink:href="#linear-gradient-11"/><linearGradient id="linear-gradient-14" x1="160.01" y1="53.41" x2="201.24" y2="53.41" xlink:href="#linear-gradient-12"/></defs><title>Asset 1</title><g class="cls-1"><g id="Layer_2" data-name="Layer 2"><g id="Layer_1-2" data-name="Layer 1"><path class="cls-2" d="M364.84,22.58a4.05,4.05,0,0,1-5.28,2.24c-.18-.07-.34-.15-.5-.23l-6,9.05a1.39,1.39,0,0,1-1.64.52L336.2,28.24l0,.06-2-.85-2-.8,0,0-15.06-6.31a1.35,1.35,0,0,1-.82-1.51L318.19,8.1a5.25,5.25,0,0,1-.52-.17A4.07,4.07,0,1,1,323,5.68a3.84,3.84,0,0,1-.65,1.09L326,10.1a1.36,1.36,0,0,0,1.38.27l12.74-4.51A4.07,4.07,0,1,1,344.94,8l5.95,11.93a1.36,1.36,0,0,0,1.19.75l4.94.14a3.87,3.87,0,0,1,.29-1.23,4.06,4.06,0,1,1,7.53,3Z"/><path class="cls-3" d="M325.52,89.52c-8.48,0-19.31-3-24.27-11.56a14.39,14.39,0,0,1-1.58-10.48,13.73,13.73,0,0,1,5.93-8.58l.24-.15c-4.34-4-6.53-9.31-6.53-15.74,0-11.69,7-21,18.35-24.4a33.84,33.84,0,0,1,9.49-1.32c8.36,0,19.06,3,24,11.55a14.44,14.44,0,0,1,1.57,10.48,13.74,13.74,0,0,1-5.69,8.42c4.52,4.07,6.81,9.46,6.81,16,0,11.65-7.08,21-18.48,24.36a35,35,0,0,1-9.86,1.37Z"/><path class="cls-4" d="M325.52,88.2c-8.15,0-18.52-2.87-23.2-10.93a13,13,0,0,1-1.43-9.48A12.44,12.44,0,0,1,306.25,60a12.08,12.08,0,0,1,1.92-1c-4.3-3.32-7.61-8.3-7.61-16,0-11.08,6.68-19.94,17.44-23.13a32.53,32.53,0,0,1,9.15-1.27c8,0,18.26,2.87,23,10.92A13,13,0,0,1,351.52,39a12.44,12.44,0,0,1-5.36,7.77,13.31,13.31,0,0,1-1.38.76c4.41,3.34,7.83,8.39,7.83,16.25,0,11-6.73,19.88-17.57,23.09a34.06,34.06,0,0,1-9.52,1.32Z"/><g class="cls-5"><path class="cls-6" d="M331.73,88c-7.26,0-14.81-2.54-17.85-7.78A6.12,6.12,0,0,1,315.74,72a5.48,5.48,0,0,1,7.72,1.9c1.27,1.47,8.43,3.39,14,1.22,3.37-1.32,3.82-3.26,3.82-5,0-1.91-3.16-3-9.8-4.67-7.33-1.81-18.41-4.54-18.41-16.11,0-8.12,4.81-14.39,12.86-16.78a28.6,28.6,0,0,1,14.17-.25c4.68,1.12,8.81,3.43,10.89,7a6.13,6.13,0,0,1-1.87,8.17,5.48,5.48,0,0,1-7.73-1.92c-1.16-1.41-7.91-3.3-13.2-1.29-3.38,1.28-3.84,3.28-3.84,5.07,0,2,4.21,3.19,9.7,4.54,7.38,1.82,18.52,4.57,18.52,16.24,0,8.07-4.86,14.32-13,16.74A28,28,0,0,1,331.73,88Z"/><path class="cls-7" d="M325.72,32.42a26.14,26.14,0,0,1,7.42-1,28.68,28.68,0,0,1,6.74.77c4.68,1.11,8.81,3.44,10.88,7a6.22,6.22,0,0,1,.71,4.3,5.9,5.9,0,0,1-2.58,3.85,5.34,5.34,0,0,1-2.78.87,5.55,5.55,0,0,1-4.93-2.78c-.82-1-4.4-2.22-8.29-2.17a14.67,14.67,0,0,0-4.93.87c-3.38,1.29-3.84,3.3-3.84,5.08,0,2,4.2,3.2,9.71,4.56,7.37,1.81,18.51,4.56,18.51,16.23,0,8.06-4.85,14.31-13,16.72a28.25,28.25,0,0,1-7.82,1.08c-7.29,0-14.81-2.57-17.84-7.78a6.17,6.17,0,0,1-.72-4.3,5.93,5.93,0,0,1,2.58-3.85,5.45,5.45,0,0,1,2.78-.88,5.59,5.59,0,0,1,4.93,2.77c.87,1,4.56,2.25,8.58,2.2a15.17,15.17,0,0,0,5.4-1c3.38-1.32,3.83-3.26,3.83-5,0-1.93-3.16-3-9.81-4.69-7.33-1.81-18.4-4.54-18.4-16.1C312.86,41.07,317.66,34.81,325.72,32.42Z"/><path class="cls-8" d="M325.52,32.22a26.5,26.5,0,0,1,7.42-1,29.71,29.71,0,0,1,6.74.77c4.69,1.12,8.81,3.45,10.87,7a6.19,6.19,0,0,1,.71,4.29,6,6,0,0,1-2.57,3.85,5.44,5.44,0,0,1-2.79.87A5.54,5.54,0,0,1,341,45.19c-.83-1-4.4-2.23-8.29-2.18a14.41,14.41,0,0,0-4.94.88c-3.39,1.29-3.85,3.3-3.85,5.09,0,2,4.2,3.2,9.72,4.56,7.37,1.82,18.5,4.57,18.5,16.22,0,8.06-4.85,14.3-13,16.72a27.88,27.88,0,0,1-7.82,1.07c-7.31,0-14.81-2.58-17.84-7.77a6.21,6.21,0,0,1-.71-4.3,6,6,0,0,1,2.57-3.84,5.44,5.44,0,0,1,2.79-.87,5.58,5.58,0,0,1,4.91,2.76c.88,1,4.56,2.25,8.58,2.2a15.45,15.45,0,0,0,5.42-1c3.38-1.32,3.83-3.28,3.83-5,0-1.93-3.15-3.05-9.82-4.69-7.32-1.81-18.39-4.54-18.39-16.09C312.67,40.87,317.47,34.61,325.52,32.22Z"/><path class="cls-9" d="M325.32,32a26.51,26.51,0,0,1,7.42-1,28.62,28.62,0,0,1,6.74.77c4.69,1.12,8.8,3.45,10.86,7a6.19,6.19,0,0,1,.71,4.29,5.89,5.89,0,0,1-2.57,3.83,5.34,5.34,0,0,1-2.78.87A5.55,5.55,0,0,1,340.79,45c-.82-1-4.4-2.23-8.28-2.18a14.37,14.37,0,0,0-4.95.87c-3.4,1.29-3.86,3.32-3.86,5.1,0,2,4.2,3.21,9.73,4.58,7.36,1.81,18.49,4.56,18.49,16.2,0,8-4.85,14.3-13,16.71a27.88,27.88,0,0,1-7.82,1.07c-7.34,0-14.82-2.59-17.83-7.76a6.21,6.21,0,0,1-.71-4.3,5.94,5.94,0,0,1,2.57-3.83,5.44,5.44,0,0,1,2.78-.87,5.56,5.56,0,0,1,4.9,2.76c.88,1,4.57,2.26,8.58,2.21a15.44,15.44,0,0,0,5.43-1c3.39-1.32,3.84-3.28,3.84-5,0-1.93-3.15-3-9.83-4.7-7.32-1.81-18.38-4.54-18.38-16.08C312.48,40.67,317.28,34.41,325.32,32Z"/><path class="cls-10" d="M325.12,31.83a26.5,26.5,0,0,1,7.42-1,29.64,29.64,0,0,1,6.74.77c4.7,1.12,8.8,3.46,10.85,7a6.13,6.13,0,0,1,.7,4.29,5.87,5.87,0,0,1-2.55,3.82,5.34,5.34,0,0,1-2.79.86,5.54,5.54,0,0,1-4.89-2.76c-.83-1-4.4-2.24-8.28-2.19a14.45,14.45,0,0,0-5,.88c-3.4,1.29-3.86,3.32-3.86,5.11,0,2,4.19,3.21,9.73,4.58,7.36,1.82,18.49,4.56,18.49,16.2,0,8-4.85,14.29-13,16.7a28.51,28.51,0,0,1-7.81,1.07c-7.36,0-14.82-2.61-17.82-7.76a6.15,6.15,0,0,1-.7-4.3A5.85,5.85,0,0,1,315,71.25a5.35,5.35,0,0,1,2.79-.87,5.53,5.53,0,0,1,4.88,2.75c.89,1,4.57,2.26,8.58,2.21a15.44,15.44,0,0,0,5.44-1c3.4-1.33,3.85-3.3,3.85-5,0-1.95-3.15-3.07-9.83-4.72-7.32-1.8-18.38-4.53-18.38-16.06C312.29,40.47,317.08,34.21,325.12,31.83Z"/><path class="cls-11" d="M324.92,31.63a26.51,26.51,0,0,1,7.42-1,28.56,28.56,0,0,1,6.74.77c4.71,1.12,8.8,3.46,10.84,7a6.13,6.13,0,0,1,.7,4.29,5.84,5.84,0,0,1-2.55,3.8,5.34,5.34,0,0,1-2.78.87,5.52,5.52,0,0,1-4.88-2.76c-.84-1-4.41-2.24-8.29-2.2a14.45,14.45,0,0,0-5,.88c-3.41,1.3-3.87,3.33-3.87,5.12,0,2,4.19,3.23,9.74,4.6,7.36,1.81,18.48,4.55,18.48,16.18,0,8-4.85,14.28-13,16.69a27.76,27.76,0,0,1-7.81,1.07c-7.38,0-14.82-2.62-17.81-7.75a6.07,6.07,0,0,1-.7-4.29,5.85,5.85,0,0,1,2.55-3.81,5.38,5.38,0,0,1,2.78-.87,5.55,5.55,0,0,1,4.87,2.75c.89,1,4.57,2.26,8.59,2.22a15.55,15.55,0,0,0,5.45-1c3.4-1.33,3.85-3.3,3.85-5,0-2-3.15-3.07-9.84-4.72-7.32-1.81-18.38-4.53-18.38-16.06C312.09,40.27,316.89,34,324.92,31.63Z"/><path class="cls-12" d="M324.73,31.44a26.38,26.38,0,0,1,7.41-1,29.58,29.58,0,0,1,6.74.77c4.71,1.13,8.8,3.47,10.83,7a6.11,6.11,0,0,1,.7,4.29,5.87,5.87,0,0,1-2.54,3.79,5.34,5.34,0,0,1-2.79.86,5.5,5.5,0,0,1-4.86-2.75c-.84-1-4.41-2.25-8.29-2.2a14.76,14.76,0,0,0-5,.87c-3.41,1.3-3.87,3.35-3.87,5.13,0,2,4.19,3.24,9.75,4.61,7.35,1.81,18.47,4.56,18.47,16.18,0,8-4.84,14.27-13,16.67a27.76,27.76,0,0,1-7.81,1.07c-7.41,0-14.83-2.63-17.8-7.75a6,6,0,0,1-.7-4.28,5.89,5.89,0,0,1,2.54-3.8,5.43,5.43,0,0,1,2.79-.86,5.5,5.5,0,0,1,4.85,2.74c.9,1,4.58,2.27,8.59,2.22a15.3,15.3,0,0,0,5.46-1c3.41-1.33,3.86-3.31,3.86-5,0-2-3.15-3.08-9.85-4.74C323,62.4,311.9,59.67,311.9,48.15,311.9,40.07,316.7,33.82,324.73,31.44Z"/><path class="cls-13" d="M324.53,31.24a26.38,26.38,0,0,1,7.41-1,28.44,28.44,0,0,1,6.74.77c4.72,1.12,8.79,3.47,10.82,7a6.09,6.09,0,0,1,.7,4.28A5.85,5.85,0,0,1,347.66,46,5.37,5.37,0,0,1,340,44.13c-.85-1-4.42-2.24-8.29-2.2a14.54,14.54,0,0,0-5,.88c-3.42,1.3-3.88,3.35-3.88,5.14,0,2,4.18,3.24,9.76,4.61,7.35,1.82,18.46,4.56,18.46,16.17,0,8-4.84,14.26-12.95,16.67a28,28,0,0,1-7.8,1.07c-7.43,0-14.83-2.65-17.8-7.75a6.09,6.09,0,0,1-.69-4.28,5.82,5.82,0,0,1,2.54-3.78,5.29,5.29,0,0,1,2.78-.87A5.51,5.51,0,0,1,322,72.53c.9,1,4.58,2.27,8.59,2.23a15.53,15.53,0,0,0,5.47-1c3.42-1.34,3.87-3.32,3.87-5,0-2-3.15-3.09-9.86-4.74-7.31-1.81-18.36-4.53-18.36-16C311.71,39.87,316.51,33.62,324.53,31.24Z"/><path class="cls-14" d="M324.33,31.05a26.38,26.38,0,0,1,7.41-1,29.51,29.51,0,0,1,6.74.77c4.72,1.13,8.79,3.48,10.81,7A6.09,6.09,0,0,1,350,42a5.82,5.82,0,0,1-2.54,3.77,5.37,5.37,0,0,1-2.78.86,5.5,5.5,0,0,1-4.84-2.75c-.84-1-4.41-2.25-8.28-2.21a14.79,14.79,0,0,0-5,.88c-3.43,1.31-3.89,3.37-3.89,5.15,0,2.06,4.18,3.25,9.76,4.63,7.35,1.81,18.46,4.55,18.46,16.16,0,8-4.84,14.25-12.94,16.65a27.64,27.64,0,0,1-7.8,1.07c-7.46,0-14.83-2.66-17.79-7.74a6,6,0,0,1-.69-4.28,5.85,5.85,0,0,1,2.53-3.77A5.28,5.28,0,0,1,317,69.6a5.49,5.49,0,0,1,4.83,2.73c.91,1,4.59,2.27,8.59,2.23a15.38,15.38,0,0,0,5.49-1c3.42-1.33,3.87-3.33,3.87-5,0-2-3.14-3.1-9.87-4.76-7.3-1.8-18.35-4.53-18.35-16C311.52,39.67,316.31,33.43,324.33,31.05Z"/><path class="cls-15" d="M324.13,30.85a26.38,26.38,0,0,1,7.41-1,28.44,28.44,0,0,1,6.74.77c4.73,1.13,8.79,3.48,10.8,7a6.08,6.08,0,0,1,.7,4.28,5.88,5.88,0,0,1-2.53,3.75,5.31,5.31,0,0,1-2.79.86,5.48,5.48,0,0,1-4.82-2.74c-.85-1-4.42-2.25-8.29-2.21a14.34,14.34,0,0,0-5,.88c-3.44,1.3-3.89,3.37-3.89,5.16,0,2.06,4.18,3.25,9.77,4.63,7.34,1.82,18.45,4.55,18.45,16.15,0,8-4.84,14.24-12.93,16.64a27.64,27.64,0,0,1-7.8,1.07c-7.48,0-14.84-2.67-17.78-7.73a6,6,0,0,1-.69-4.28A5.83,5.83,0,0,1,314,70.26a5.37,5.37,0,0,1,2.78-.86,5.48,5.48,0,0,1,4.81,2.73c.91,1.06,4.59,2.27,8.59,2.24a15.58,15.58,0,0,0,5.5-1c3.43-1.34,3.88-3.35,3.88-5.07,0-2-3.14-3.1-9.88-4.77-7.3-1.8-18.34-4.52-18.34-16C311.33,39.47,316.12,33.23,324.13,30.85Z"/><path class="cls-16" d="M323.94,30.66a26.26,26.26,0,0,1,7.4-1,29.39,29.39,0,0,1,6.74.77c4.73,1.14,8.78,3.49,10.79,7a6,6,0,0,1,.69,4.28A5.81,5.81,0,0,1,347,45.38a5.37,5.37,0,0,1-2.78.86,5.5,5.5,0,0,1-4.81-2.74c-.85-1-4.42-2.26-8.29-2.22a14.58,14.58,0,0,0-5,.88c-3.45,1.31-3.9,3.38-3.9,5.17,0,2.07,4.18,3.27,9.78,4.65,7.34,1.81,18.44,4.55,18.44,16.13,0,8-4.84,14.24-12.93,16.64a27.93,27.93,0,0,1-7.79,1.07c-7.5,0-14.84-2.69-17.77-7.73a6,6,0,0,1-.69-4.28,5.78,5.78,0,0,1,2.52-3.74,5.28,5.28,0,0,1,2.78-.86,5.46,5.46,0,0,1,4.8,2.72c.92,1.06,4.6,2.28,8.59,2.24a15.37,15.37,0,0,0,5.51-1c3.43-1.34,3.89-3.35,3.89-5.08,0-2-3.14-3.11-9.88-4.77-7.3-1.8-18.34-4.53-18.34-16C311.14,39.27,315.93,33,323.94,30.66Z"/><path class="cls-17" d="M323.74,30.46a26.62,26.62,0,0,1,7.4-1,29.39,29.39,0,0,1,6.74.78c4.74,1.13,8.78,3.49,10.78,6.94a6,6,0,0,1,.69,4.28,5.79,5.79,0,0,1-2.51,3.72,5.28,5.28,0,0,1-2.79.86,5.47,5.47,0,0,1-4.79-2.73c-.86-1-4.43-2.26-8.29-2.23a14.66,14.66,0,0,0-5.05.89c-3.45,1.31-3.9,3.39-3.9,5.17,0,2.08,4.17,3.28,9.78,4.66,7.34,1.81,18.43,4.55,18.43,16.13,0,8-4.82,14.22-12.91,16.62a27.57,27.57,0,0,1-7.79,1.07c-7.53,0-14.84-2.7-17.76-7.72a6,6,0,0,1-.69-4.28,5.76,5.76,0,0,1,2.52-3.73,5.28,5.28,0,0,1,2.78-.86,5.48,5.48,0,0,1,4.79,2.72c.91,1.07,4.59,2.28,8.59,2.25a15.78,15.78,0,0,0,5.51-1c3.44-1.35,3.9-3.37,3.9-5.09,0-2-3.14-3.12-9.89-4.79C322,61.32,311,58.6,311,47.12,311,39.07,315.73,32.84,323.74,30.46Z"/><path class="cls-18" d="M323.54,30.26a26.63,26.63,0,0,1,7.4-1,29.32,29.32,0,0,1,6.74.77c4.74,1.14,8.78,3.5,10.78,6.94a6,6,0,0,1,.68,4.27A5.77,5.77,0,0,1,346.63,45a5.26,5.26,0,0,1-2.78.85,5.42,5.42,0,0,1-4.78-2.72c-.87-1.06-4.43-2.27-8.29-2.23a14.44,14.44,0,0,0-5.06.88c-3.46,1.31-3.91,3.4-3.91,5.19,0,2.09,4.17,3.28,9.79,4.67C338.94,53.4,350,56.13,350,67.7c0,8-4.82,14.22-12.9,16.62a27.93,27.93,0,0,1-7.79,1.06c-7.55,0-14.85-2.71-17.75-7.71a6,6,0,0,1-.69-4.28,5.8,5.8,0,0,1,2.51-3.72,5.26,5.26,0,0,1,2.78-.85A5.45,5.45,0,0,1,321,71.53c.91,1.07,4.59,2.28,8.59,2.25a15.44,15.44,0,0,0,5.53-1c3.44-1.35,3.9-3.37,3.9-5.1,0-2-3.14-3.13-9.9-4.79-7.29-1.8-18.32-4.52-18.32-16C310.76,38.87,315.54,32.64,323.54,30.26Z"/><path class="cls-19" d="M323.34,30.07a26.68,26.68,0,0,1,7.4-1,29.26,29.26,0,0,1,6.74.78c4.75,1.14,8.78,3.5,10.77,6.92a6.07,6.07,0,0,1,.68,4.28,5.78,5.78,0,0,1-2.5,3.7,5.28,5.28,0,0,1-2.79.86,5.42,5.42,0,0,1-4.76-2.73c-.87-1-4.43-2.26-8.3-2.23a14.63,14.63,0,0,0-5.06.88c-3.47,1.32-3.92,3.42-3.92,5.2,0,2.1,4.17,3.29,9.8,4.68,7.33,1.81,18.41,4.54,18.41,16.11,0,8-4.82,14.2-12.9,16.6a27.86,27.86,0,0,1-7.78,1.07c-7.57,0-14.85-2.74-17.75-7.71a6.07,6.07,0,0,1-.68-4.28,5.78,5.78,0,0,1,2.5-3.7,5.28,5.28,0,0,1,2.79-.86,5.46,5.46,0,0,1,4.76,2.71c.92,1.08,4.6,2.29,8.59,2.26a15.64,15.64,0,0,0,5.54-1c3.45-1.35,3.91-3.38,3.91-5.1,0-2-3.14-3.14-9.91-4.81-7.29-1.8-18.31-4.52-18.31-16C310.57,38.66,315.35,32.44,323.34,30.07Z"/><path class="cls-20" d="M323.15,29.87a26.61,26.61,0,0,1,7.39-1,29.26,29.26,0,0,1,6.74.77c4.75,1.14,8.77,3.51,10.76,6.92a6.07,6.07,0,0,1,.68,4.28,5.79,5.79,0,0,1-2.5,3.69,5.26,5.26,0,0,1-2.78.85,5.44,5.44,0,0,1-4.76-2.72c-.87-1.06-4.43-2.27-8.29-2.24a14.7,14.7,0,0,0-5.08.89c-3.47,1.32-3.92,3.42-3.92,5.21,0,2.1,4.16,3.29,9.81,4.69,7.33,1.8,18.4,4.54,18.4,16.09,0,8-4.82,14.2-12.89,16.59A27.52,27.52,0,0,1,328.92,85c-7.59,0-14.84-2.75-17.73-7.71a6,6,0,0,1-.68-4.27,5.76,5.76,0,0,1,2.5-3.69,5.26,5.26,0,0,1,2.78-.85,5.44,5.44,0,0,1,4.75,2.7c.92,1.08,4.6,2.29,8.59,2.26a15.39,15.39,0,0,0,5.55-1c3.46-1.35,3.92-3.39,3.92-5.12,0-2-3.14-3.14-9.92-4.82-7.29-1.8-18.3-4.51-18.3-16C310.38,38.46,315.15,32.25,323.15,29.87Z"/><path class="cls-21" d="M323,29.68a26.61,26.61,0,0,1,7.39-1,29.19,29.19,0,0,1,6.74.78c4.76,1.14,8.77,3.51,10.75,6.91a6.07,6.07,0,0,1,.68,4.28A5.75,5.75,0,0,1,346,44.3a5.13,5.13,0,0,1-2.78.85,5.42,5.42,0,0,1-4.74-2.71c-.87-1.06-4.43-2.27-8.29-2.24a14.71,14.71,0,0,0-5.09.88c-3.48,1.32-3.94,3.43-3.94,5.22,0,2.11,4.17,3.31,9.82,4.7,7.33,1.81,18.4,4.54,18.4,16.09,0,8-4.81,14.18-12.88,16.58a27.88,27.88,0,0,1-7.79,1.06c-7.61,0-14.85-2.76-17.72-7.7a6,6,0,0,1-.68-4.27,5.77,5.77,0,0,1,2.49-3.68,5.32,5.32,0,0,1,7.52,1.85c.93,1.08,4.61,2.29,8.59,2.27a15.51,15.51,0,0,0,5.57-1c3.46-1.35,3.92-3.4,3.92-5.12,0-2-3.13-3.16-9.92-4.83-7.29-1.8-18.3-4.52-18.3-16C310.19,38.26,315,32.05,323,29.68Z"/><path class="cls-22" d="M322.75,29.48a26.61,26.61,0,0,1,7.39-1,29.19,29.19,0,0,1,6.74.77c4.76,1.15,8.77,3.52,10.74,6.91a6,6,0,0,1,.67,4.27,5.69,5.69,0,0,1-2.48,3.67,5.31,5.31,0,0,1-7.51-1.86C337.42,41.16,333.86,40,330,40a14.56,14.56,0,0,0-5.11.89c-3.48,1.32-3.94,3.44-3.94,5.23,0,2.11,4.17,3.31,9.83,4.7,7.32,1.81,18.39,4.54,18.39,16.08,0,8-4.81,14.18-12.88,16.57a27.76,27.76,0,0,1-7.78,1.07c-7.64,0-14.85-2.78-17.71-7.7a6,6,0,0,1-.68-4.27,5.72,5.72,0,0,1,2.49-3.66A5.13,5.13,0,0,1,315.4,68a5.39,5.39,0,0,1,4.72,2.69c.93,1.09,4.61,2.3,8.59,2.27a15.7,15.7,0,0,0,5.58-1c3.47-1.36,3.93-3.42,3.93-5.14,0-2-3.13-3.16-9.93-4.84C321,60.24,310,57.53,310,46.1,310,38.06,314.77,31.85,322.75,29.48Z"/><path class="cls-23" d="M322.55,29.29a26.24,26.24,0,0,1,7.39-1,29.13,29.13,0,0,1,6.74.78c4.77,1.14,8.76,3.52,10.73,6.9a6,6,0,0,1,.67,4.27,5.73,5.73,0,0,1-2.48,3.65,5.21,5.21,0,0,1-2.78.85,5.37,5.37,0,0,1-4.71-2.7c-.89-1.08-4.44-2.28-8.3-2.26a14.56,14.56,0,0,0-5.11.89c-3.49,1.33-3.95,3.45-3.95,5.24,0,2.13,4.16,3.32,9.84,4.72C337.91,52.42,349,55.14,349,66.67c0,8-4.81,14.17-12.87,16.57a27.76,27.76,0,0,1-7.78,1.06c-7.66,0-14.85-2.79-17.7-7.69a6,6,0,0,1-.68-4.27,5.73,5.73,0,0,1,2.48-3.65,5.27,5.27,0,0,1,2.79-.85,5.41,5.41,0,0,1,4.7,2.69c.94,1.09,4.62,2.3,8.59,2.28a15.5,15.5,0,0,0,5.59-1c3.48-1.36,3.94-3.42,3.94-5.15,0-2-3.13-3.16-9.94-4.85-7.28-1.79-18.28-4.51-18.28-15.93C309.81,37.86,314.57,31.65,322.55,29.29Z"/><path class="cls-24" d="M322.35,29.09a26.24,26.24,0,0,1,7.39-1,29.07,29.07,0,0,1,6.74.77c4.77,1.15,8.76,3.54,10.72,6.9a6,6,0,0,1,.67,4.27,5.73,5.73,0,0,1-2.47,3.64,5.28,5.28,0,0,1-7.48-1.85c-.89-1.08-4.45-2.29-8.3-2.26a14.76,14.76,0,0,0-5.12.88c-3.5,1.33-4,3.47-4,5.25,0,2.14,4.16,3.33,9.84,4.73,7.32,1.81,18.38,4.54,18.38,16.06,0,8-4.81,14.16-12.86,16.55a28.18,28.18,0,0,1-7.78,1.07c-7.68,0-14.85-2.81-17.7-7.69a6,6,0,0,1-.67-4.27,5.71,5.71,0,0,1,2.48-3.64,5.2,5.2,0,0,1,2.78-.84,5.37,5.37,0,0,1,4.69,2.68c.94,1.1,4.62,2.3,8.6,2.28a15.59,15.59,0,0,0,5.6-1c3.48-1.36,3.94-3.43,3.94-5.15,0-2-3.13-3.18-9.95-4.86-7.28-1.8-18.27-4.51-18.27-15.93C309.62,37.66,314.38,31.46,322.35,29.09Z"/><path class="cls-25" d="M322.16,28.9a26.12,26.12,0,0,1,7.38-1,29.07,29.07,0,0,1,6.74.78c4.78,1.15,8.76,3.54,10.71,6.89a6,6,0,0,1,.67,4.27,5.69,5.69,0,0,1-2.47,3.62,5.21,5.21,0,0,1-2.78.85,5.4,5.4,0,0,1-4.69-2.69c-.89-1.09-4.44-2.29-8.29-2.27a14.65,14.65,0,0,0-5.14.89c-3.5,1.33-4,3.47-4,5.26,0,2.14,4.16,3.33,9.85,4.74,7.32,1.8,18.37,4.53,18.37,16,0,8-4.81,14.15-12.86,16.54a27.69,27.69,0,0,1-7.77,1.07c-7.71,0-14.86-2.82-17.69-7.68a6,6,0,0,1-.67-4.27A5.73,5.73,0,0,1,312,68.3a5.26,5.26,0,0,1,2.78-.85,5.38,5.38,0,0,1,4.68,2.68c.95,1.1,4.62,2.31,8.6,2.29a15.75,15.75,0,0,0,5.61-1c3.49-1.37,3.95-3.44,3.95-5.17,0-2.06-3.13-3.18-10-4.87-7.27-1.79-18.26-4.5-18.26-15.91C309.43,37.46,314.19,31.26,322.16,28.9Z"/><path class="cls-26" d="M322,28.7a26.12,26.12,0,0,1,7.38-1,29,29,0,0,1,6.74.77c4.78,1.16,8.76,3.55,10.7,6.89a6,6,0,0,1,.67,4.27A5.69,5.69,0,0,1,345,43.23a5.26,5.26,0,0,1-2.79.84,5.36,5.36,0,0,1-4.67-2.69c-.89-1.09-4.45-2.28-8.29-2.27a14.81,14.81,0,0,0-5.15.89c-3.51,1.34-4,3.48-4,5.27,0,2.15,4.15,3.34,9.86,4.75,7.31,1.81,18.36,4.53,18.36,16,0,8-4.8,14.14-12.85,16.53a27.69,27.69,0,0,1-7.77,1.06C320,83.65,312.86,80.82,310,76a5.91,5.91,0,0,1-.66-4.27,5.65,5.65,0,0,1,2.46-3.61,5.2,5.2,0,0,1,2.78-.84,5.36,5.36,0,0,1,4.66,2.67c1,1.11,4.63,2.31,8.6,2.29a15.55,15.55,0,0,0,5.62-1c3.5-1.36,4-3.45,4-5.17,0-2.07-3.13-3.2-10-4.88-7.27-1.8-18.25-4.51-18.25-15.91C309.24,37.26,314,31.06,322,28.7Z"/><path class="cls-27" d="M321.76,28.5a26.48,26.48,0,0,1,7.38-1,28.94,28.94,0,0,1,6.74.78c4.79,1.15,8.75,3.55,10.69,6.88a6,6,0,0,1,.67,4.26,5.68,5.68,0,0,1-2.46,3.6,5.21,5.21,0,0,1-2.78.85,5.37,5.37,0,0,1-4.66-2.69c-.9-1.09-4.45-2.29-8.29-2.27a14.6,14.6,0,0,0-5.16.89c-3.52,1.33-4,3.49-4,5.28,0,2.15,4.15,3.35,9.87,4.76,7.3,1.8,18.35,4.52,18.35,16,0,8-4.8,14.14-12.84,16.52a28.06,28.06,0,0,1-7.77,1.07c-7.76,0-14.86-2.85-17.67-7.68a5.88,5.88,0,0,1-.66-4.26,5.68,5.68,0,0,1,2.45-3.6,5.2,5.2,0,0,1,2.78-.84,5.33,5.33,0,0,1,4.65,2.67c1,1.11,4.63,2.31,8.6,2.3a15.78,15.78,0,0,0,5.63-1c3.51-1.37,4-3.46,4-5.19,0-2.08-3.12-3.2-10-4.89-7.27-1.79-18.25-4.5-18.25-15.89C309.05,37.06,313.8,30.87,321.76,28.5Z"/><path class="cls-28" d="M321.56,28.31a26.14,26.14,0,0,1,7.39-1,28.92,28.92,0,0,1,6.73.77c4.79,1.16,8.75,3.56,10.68,6.88a5.94,5.94,0,0,1,.67,4.26,5.69,5.69,0,0,1-2.46,3.59,5.2,5.2,0,0,1-2.78.84A5.32,5.32,0,0,1,337.15,41c-.9-1.1-4.46-2.29-8.3-2.28a14.92,14.92,0,0,0-5.17.89c-3.52,1.34-4,3.5-4,5.29,0,2.17,4.15,3.36,9.87,4.77,7.31,1.8,18.35,4.53,18.35,16,0,8-4.8,14.13-12.84,16.52a27.93,27.93,0,0,1-7.76,1.06c-7.78,0-14.87-2.86-17.66-7.67a5.88,5.88,0,0,1-.66-4.26,5.61,5.61,0,0,1,2.45-3.58,5.21,5.21,0,0,1,2.78-.85,5.37,5.37,0,0,1,4.64,2.67c.95,1.12,4.63,2.32,8.59,2.3a15.63,15.63,0,0,0,5.65-1c3.51-1.37,4-3.47,4-5.2,0-2.08-3.12-3.2-10-4.9-7.27-1.79-18.24-4.5-18.24-15.88C308.86,36.86,313.61,30.67,321.56,28.31Z"/><path class="cls-29" d="M321.37,28.11a26.38,26.38,0,0,1,7.38-1,28.85,28.85,0,0,1,6.73.78c4.8,1.16,8.75,3.56,10.68,6.87a5.93,5.93,0,0,1,.65,4.26,5.62,5.62,0,0,1-2.44,3.57,5.11,5.11,0,0,1-2.78.84A5.31,5.31,0,0,1,337,40.75c-.91-1.11-4.46-2.3-8.3-2.28a14.45,14.45,0,0,0-5.18.89c-3.53,1.34-4,3.51-4,5.29,0,2.18,4.14,3.37,9.88,4.79,7.3,1.8,18.34,4.52,18.34,16,0,8-4.8,14.12-12.83,16.5A27.57,27.57,0,0,1,327.12,83c-7.8,0-14.87-2.87-17.65-7.66a5.88,5.88,0,0,1-.66-4.26,5.62,5.62,0,0,1,2.44-3.57,5.2,5.2,0,0,1,2.78-.84,5.34,5.34,0,0,1,4.63,2.66c1,1.12,4.63,2.32,8.59,2.31a15.87,15.87,0,0,0,5.66-1c3.52-1.38,4-3.48,4-5.21,0-2.09-3.12-3.22-10-4.91-7.26-1.79-18.23-4.5-18.23-15.88C308.67,36.66,313.41,30.47,321.37,28.11Z"/><path class="cls-30" d="M321.17,27.92a26,26,0,0,1,7.38-1,29.34,29.34,0,0,1,6.73.77c4.8,1.16,8.74,3.57,10.67,6.87a5.92,5.92,0,0,1,.65,4.26,5.63,5.63,0,0,1-2.44,3.56,5.17,5.17,0,0,1-2.78.84,5.35,5.35,0,0,1-4.62-2.67c-.91-1.11-4.45-2.3-8.29-2.29a14.56,14.56,0,0,0-5.2.89c-3.53,1.34-4,3.52-4,5.31,0,2.18,4.14,3.37,9.89,4.79,7.3,1.8,18.33,4.52,18.33,16,0,8-4.8,14.11-12.82,16.49a27.56,27.56,0,0,1-7.76,1.07c-7.83,0-14.87-2.89-17.65-7.66a5.91,5.91,0,0,1-.65-4.25,5.62,5.62,0,0,1,2.44-3.57,5.23,5.23,0,0,1,2.78-.84,5.33,5.33,0,0,1,4.61,2.66c1,1.12,4.64,2.32,8.6,2.31a15.57,15.57,0,0,0,5.66-1c3.53-1.38,4-3.49,4-5.22,0-2.1-3.12-3.22-10-4.92-7.26-1.79-18.22-4.5-18.22-15.86C308.48,36.46,313.22,30.28,321.17,27.92Z"/><path class="cls-31" d="M321,27.72a26.38,26.38,0,0,1,7.38-1,28.79,28.79,0,0,1,6.73.78c4.81,1.16,8.74,3.57,10.66,6.86a5.9,5.9,0,0,1,.65,4.25A5.65,5.65,0,0,1,344,42.15a5.11,5.11,0,0,1-2.78.84,5.34,5.34,0,0,1-4.61-2.66c-.91-1.12-4.46-2.31-8.29-2.3a15,15,0,0,0-5.21.89c-3.54,1.35-4,3.53-4,5.32,0,2.19,4.14,3.38,9.89,4.81,7.3,1.8,18.33,4.52,18.33,16,0,7.94-4.79,14.1-12.82,16.48a27.81,27.81,0,0,1-7.75,1.06c-7.85,0-14.88-2.91-17.64-7.65a5.9,5.9,0,0,1-.65-4.25,5.61,5.61,0,0,1,2.43-3.55,5.11,5.11,0,0,1,2.78-.84,5.33,5.33,0,0,1,4.6,2.65c1,1.13,4.64,2.33,8.6,2.32a15.68,15.68,0,0,0,5.68-1c3.53-1.38,4-3.5,4-5.22,0-2.11-3.11-3.24-10-4.94-7.25-1.79-18.21-4.49-18.21-15.85C308.29,36.26,313,30.08,321,27.72Z"/><path class="cls-32" d="M320.77,27.53a26,26,0,0,1,7.38-1,29.27,29.27,0,0,1,6.73.77c4.81,1.17,8.74,3.58,10.65,6.86a5.9,5.9,0,0,1,.65,4.25,5.65,5.65,0,0,1-2.43,3.54,5.14,5.14,0,0,1-2.78.83,5.3,5.3,0,0,1-4.59-2.65c-.92-1.12-4.46-2.31-8.3-2.3a14.5,14.5,0,0,0-5.21.89c-3.55,1.35-4,3.54-4,5.33,0,2.19,4.13,3.39,9.9,4.81,7.29,1.8,18.32,4.52,18.32,16,0,7.93-4.79,14.09-12.81,16.47a27.44,27.44,0,0,1-7.75,1.06c-7.87,0-14.88-2.92-17.63-7.64a5.9,5.9,0,0,1-.65-4.25,5.59,5.59,0,0,1,2.43-3.54,5.15,5.15,0,0,1,2.78-.84A5.32,5.32,0,0,1,318,68.73c1,1.13,4.64,2.33,8.6,2.32a15.7,15.7,0,0,0,5.69-1c3.54-1.38,4-3.51,4-5.24,0-2.11-3.11-3.24-10-4.94C319.05,58.09,308.1,55.39,308.1,44,308.1,36.05,312.84,29.88,320.77,27.53Z"/><path class="cls-33" d="M320.57,27.33a26.38,26.38,0,0,1,7.38-1,28.73,28.73,0,0,1,6.73.78c4.82,1.16,8.74,3.58,10.64,6.85A5.9,5.9,0,0,1,346,38.2a5.58,5.58,0,0,1-2.43,3.52,5.15,5.15,0,0,1-2.78.84,5.26,5.26,0,0,1-4.57-2.66c-.92-1.12-4.47-2.31-8.3-2.3a14.79,14.79,0,0,0-5.23.89c-3.55,1.35-4,3.55-4,5.34,0,2.21,4.13,3.4,9.91,4.82,7.29,1.8,18.3,4.52,18.3,16,0,7.92-4.78,14.08-12.79,16.46a27.86,27.86,0,0,1-7.75,1.06c-7.9,0-14.88-2.94-17.62-7.64a5.85,5.85,0,0,1-.65-4.25,5.66,5.66,0,0,1,2.42-3.53,5.16,5.16,0,0,1,2.78-.83,5.28,5.28,0,0,1,4.57,2.64c1,1.14,4.65,2.33,8.6,2.33a15.89,15.89,0,0,0,5.7-1c3.55-1.38,4-3.52,4-5.24,0-2.13-3.1-3.25-10-5-7.25-1.79-18.2-4.49-18.2-15.83C307.91,35.85,312.64,29.69,320.57,27.33Z"/><path class="cls-34" d="M320.38,27.14a25.9,25.9,0,0,1,7.37-1,29.21,29.21,0,0,1,6.73.77c4.82,1.17,8.73,3.59,10.63,6.85a5.88,5.88,0,0,1,.65,4.25,5.61,5.61,0,0,1-2.42,3.51,5.14,5.14,0,0,1-2.78.83A5.26,5.26,0,0,1,336,39.69c-.93-1.13-4.47-2.31-8.3-2.31a14.59,14.59,0,0,0-5.24.9c-3.56,1.35-4,3.56-4,5.35,0,2.21,4.13,3.4,9.92,4.83,7.28,1.8,18.29,4.51,18.29,15.95,0,7.92-4.78,14.07-12.79,16.45a27.74,27.74,0,0,1-7.74,1.06c-7.92,0-14.89-3-17.61-7.64a5.82,5.82,0,0,1-.65-4.24,5.59,5.59,0,0,1,2.42-3.51,5.14,5.14,0,0,1,2.77-.84,5.29,5.29,0,0,1,4.56,2.64c1,1.14,4.65,2.34,8.6,2.33a15.79,15.79,0,0,0,5.72-1c3.55-1.39,4-3.53,4-5.26,0-2.13-3.1-3.26-10-5-7.25-1.79-18.19-4.49-18.19-15.82C307.72,35.65,312.45,29.49,320.38,27.14Z"/><path class="cls-35" d="M320.18,26.94a26.26,26.26,0,0,1,7.37-1,28.6,28.6,0,0,1,6.73.78c4.83,1.17,8.73,3.59,10.62,6.84a5.83,5.83,0,0,1,.64,4.25,5.56,5.56,0,0,1-2.41,3.49,5.05,5.05,0,0,1-2.78.83,5.27,5.27,0,0,1-4.55-2.64c-.92-1.13-4.47-2.32-8.29-2.31a14.92,14.92,0,0,0-5.26.89c-3.57,1.36-4,3.57-4,5.36,0,2.22,4.12,3.41,9.92,4.84,7.29,1.8,18.29,4.52,18.29,15.94,0,7.92-4.77,14.07-12.78,16.44a27.42,27.42,0,0,1-7.74,1.06c-7.95,0-14.89-3-17.61-7.63a5.86,5.86,0,0,1-.64-4.24,5.59,5.59,0,0,1,2.41-3.5,5.14,5.14,0,0,1,2.78-.83,5.24,5.24,0,0,1,4.54,2.63c1,1.15,4.66,2.34,8.6,2.34a15.94,15.94,0,0,0,5.73-1c3.56-1.39,4-3.54,4-5.27,0-2.13-3.1-3.26-10-5-7.24-1.79-18.18-4.49-18.18-15.81C307.53,35.45,312.26,29.29,320.18,26.94Z"/><path class="cls-36" d="M320,26.74a26.26,26.26,0,0,1,7.37-1,29.15,29.15,0,0,1,6.73.77c4.84,1.18,8.73,3.6,10.61,6.84a5.81,5.81,0,0,1,.64,4.24,5.58,5.58,0,0,1-2.4,3.49,5.14,5.14,0,0,1-2.78.83,5.27,5.27,0,0,1-4.54-2.64c-.93-1.14-4.47-2.32-8.3-2.32a14.84,14.84,0,0,0-5.26.89c-3.58,1.36-4,3.58-4,5.37,0,2.23,4.12,3.42,9.93,4.86,7.28,1.79,18.28,4.51,18.28,15.93,0,7.91-4.77,14-12.77,16.43a27.79,27.79,0,0,1-7.74,1.06c-8,0-14.89-3-17.6-7.63a5.86,5.86,0,0,1-.64-4.24,5.6,5.6,0,0,1,2.41-3.49,5.13,5.13,0,0,1,2.77-.83,5.26,5.26,0,0,1,4.53,2.63c1,1.15,4.66,2.34,8.61,2.34a15.52,15.52,0,0,0,5.73-1c3.56-1.39,4-3.54,4-5.27,0-2.15-3.1-3.27-10-5-7.24-1.78-18.18-4.48-18.18-15.8C307.33,35.25,312.06,29.09,320,26.74Z"/><path class="Graphic-Style" d="M325.52,81.27c-8,0-14.9-3-17.59-7.62a5.85,5.85,0,0,1-.64-4.24,5.55,5.55,0,0,1,2.4-3.47,5.05,5.05,0,0,1,2.78-.83A5.25,5.25,0,0,1,317,67.73c1,1.15,4.66,2.35,8.61,2.35a15.74,15.74,0,0,0,5.74-1c3.57-1.4,4-3.56,4-5.29,0-2.15-3.1-3.28-10.05-5C318.08,57,307.14,54.32,307.14,43c0-8,4.73-14.11,12.64-16.46a26.26,26.26,0,0,1,7.37-1c7.84,0,14.64,3,17.33,7.61a5.8,5.8,0,0,1,.64,4.24,5.51,5.51,0,0,1-2.4,3.47,5.05,5.05,0,0,1-2.78.83,5.24,5.24,0,0,1-4.52-2.63c-.94-1.15-4.48-2.33-8.3-2.33a14.64,14.64,0,0,0-5.27.9C318.26,39,317.8,41.22,317.8,43c0,2.24,4.13,3.43,9.95,4.86C335,49.67,346,52.38,346,63.79c0,7.91-4.77,14.05-12.77,16.42a27.67,27.67,0,0,1-7.73,1.06Z"/></g><path class="cls-37" d="M325.52,81.6c-7.27,0-14.81-2.54-17.86-7.78a6.13,6.13,0,0,1,1.87-8.17,5.49,5.49,0,0,1,7.72,1.9c1.27,1.47,8.43,3.39,14,1.22,3.36-1.32,3.82-3.26,3.82-5,0-1.91-3.16-3-9.81-4.67-7.33-1.81-18.41-4.54-18.41-16.11,0-8.12,4.81-14.39,12.87-16.78,8.52-2.53,20.9-.38,25.05,6.75a6.13,6.13,0,0,1-1.86,8.17,5.5,5.5,0,0,1-7.74-1.92c-1.16-1.41-7.91-3.3-13.2-1.29-3.38,1.28-3.83,3.28-3.83,5.07,0,2,4.2,3.19,9.7,4.54,7.37,1.82,18.52,4.57,18.52,16.24,0,8.07-4.86,14.32-13,16.74A27.88,27.88,0,0,1,325.52,81.6Z"/><path class="cls-38" d="M325.52,80.28c-7.67,0-14.26-2.81-16.79-7.15a4.77,4.77,0,0,1-.52-3.49,4.55,4.55,0,0,1,2-2.86,4.17,4.17,0,0,1,2.29-.68,4.31,4.31,0,0,1,3.72,2.16l.06.09.07.09c1.27,1.47,5.34,2.63,9.27,2.63A16.66,16.66,0,0,0,331.66,70c4.16-1.63,4.64-4.33,4.64-6.22,0-3.08-4.07-4.3-10.77-6C318.17,56,308.09,53.53,308.09,43c0-7.49,4.46-13.29,12-15.51a25.51,25.51,0,0,1,7.11-1c7.52,0,14,2.8,16.53,7.14a4.82,4.82,0,0,1,.53,3.49,4.6,4.6,0,0,1-2,2.86,4.17,4.17,0,0,1-2.29.68,4.32,4.32,0,0,1-3.72-2.17l-.05-.08-.07-.08c-1.19-1.45-5.22-2.63-9-2.63a15.5,15.5,0,0,0-5.59,1c-4.18,1.59-4.67,4.36-4.67,6.31,0,3,4,4.19,10.67,5.83,7.41,1.82,17.55,4.33,17.55,14.95,0,7.44-4.51,13.22-12.08,15.47a26.62,26.62,0,0,1-7.48,1Z"/><path class="cls-3" d="M46.09,89.54a12.76,12.76,0,0,1-9.31-4.05l-10.44-11v1.19c0,7.65-5.91,13.86-13.17,13.86S0,83.33,0,75.68V31.13c0-7.64,5.91-13.86,13.17-13.86A13.28,13.28,0,0,1,26,27.77l6.12-6.44a12.72,12.72,0,0,1,18.63,0,14.4,14.4,0,0,1,0,19.6l-9.5,10L55.4,65.88a14.38,14.38,0,0,1,0,19.61A12.78,12.78,0,0,1,46.09,89.54Z"/><path class="cls-4" d="M46.09,88.22a11.55,11.55,0,0,1-8.43-3.67L25.08,71.31v4.37c0,6.92-5.34,12.54-11.91,12.54S1.25,82.6,1.25,75.68V31.13c0-6.92,5.35-12.54,11.92-12.54,6.39,0,11.62,5.32,11.9,12L33,22.26a11.51,11.51,0,0,1,16.85,0,13,13,0,0,1,0,17.74L39.42,50.93,54.51,66.82a13,13,0,0,1,0,17.73A11.53,11.53,0,0,1,46.09,88.22Z"/><g class="cls-5"><path class="cls-6" d="M56.29,77.86,36.77,57.31l14.82-15.6a6.15,6.15,0,0,0,0-8.4,5.44,5.44,0,0,0-8,0L25,52.87V37.51a5.8,5.8,0,0,0-5.65-5.94,5.8,5.8,0,0,0-5.64,5.94V82.06A5.8,5.8,0,0,0,19.38,88,5.8,5.8,0,0,0,25,82.06V61.75L48.31,86.26a5.44,5.44,0,0,0,8,0A6.15,6.15,0,0,0,56.29,77.86Z"/><path class="cls-7" d="M19.18,31.37a5.8,5.8,0,0,1,5.64,5.93V52.69L43.41,33.12c.12-.13.26-.26.39-.38a5.43,5.43,0,0,1,7.58.37,6.15,6.15,0,0,1,0,8.39L36.56,57.11,56.08,77.65l.29.34a6.17,6.17,0,0,1-.28,8.06,5.43,5.43,0,0,1-8,0L24.82,61.52V81.84a5.49,5.49,0,0,1,0,.58,5.76,5.76,0,0,1-5.61,5.37,5.79,5.79,0,0,1-5.63-5.93V37.3A5.79,5.79,0,0,1,19.18,31.37Z"/><path class="cls-8" d="M19,31.18a5.78,5.78,0,0,1,5.63,5.92V52.51L43.2,32.94c.12-.13.27-.27.39-.38a5.42,5.42,0,0,1,7.59.35,6.15,6.15,0,0,1,0,8.37L36.34,56.9,55.86,77.45a3,3,0,0,1,.29.33,6.15,6.15,0,0,1-.27,8.06,5.43,5.43,0,0,1-8,0L24.61,61.29V81.62a5.63,5.63,0,0,1,0,.58A5.74,5.74,0,0,1,19,87.57a5.78,5.78,0,0,1-5.62-5.92V37.1A5.78,5.78,0,0,1,19,31.18Z"/><path class="cls-9" d="M18.78,31a5.78,5.78,0,0,1,5.62,5.91V52.33L43,32.75a4.68,4.68,0,0,1,.39-.38,5.42,5.42,0,0,1,7.58.34,6.14,6.14,0,0,1,0,8.36L36.13,56.69,55.64,77.24l.3.33a6.14,6.14,0,0,1-.27,8.05,5.42,5.42,0,0,1-7.94,0L24.4,61.06V81.39a5.49,5.49,0,0,1,0,.58,5.73,5.73,0,0,1-5.59,5.38,5.76,5.76,0,0,1-5.61-5.9V36.89A5.77,5.77,0,0,1,18.78,31Z"/><path class="cls-10" d="M18.58,30.79a5.76,5.76,0,0,1,5.61,5.9V52.15l18.6-19.59c.11-.11.27-.27.39-.37a5.38,5.38,0,0,1,7.58.33,6.11,6.11,0,0,1,0,8.34L35.91,56.49,55.43,77c.09.09.21.23.29.33a6.12,6.12,0,0,1-.26,8,5.4,5.4,0,0,1-7.92,0L24.19,60.83V81.17a5.63,5.63,0,0,1,0,.58,5.72,5.72,0,0,1-5.58,5.39,5.76,5.76,0,0,1-5.6-5.9V36.69A5.76,5.76,0,0,1,18.58,30.79Z"/><path class="cls-11" d="M18.38,30.59A5.75,5.75,0,0,1,24,36.48V52L42.59,32.38c.1-.11.27-.28.38-.38a5.39,5.39,0,0,1,7.58.32,6.09,6.09,0,0,1,0,8.32L35.7,56.28,55.21,76.82c.09.09.21.24.29.33a6.12,6.12,0,0,1-.24,8,5.41,5.41,0,0,1-7.91,0L24,60.59V81a5.89,5.89,0,0,1-5.59,6A5.74,5.74,0,0,1,12.79,81V36.48A5.75,5.75,0,0,1,18.38,30.59Z"/><path class="cls-12" d="M18.18,30.4a5.73,5.73,0,0,1,5.58,5.87V51.79l18.62-19.6c.1-.11.28-.28.39-.38a5.38,5.38,0,0,1,7.58.31,6,6,0,0,1,1.63,4,6,6,0,0,1-1.63,4.34L35.48,56.08,55,76.61l.3.33A6.06,6.06,0,0,1,56.68,81a6,6,0,0,1-1.63,4,5.37,5.37,0,0,1-7.9,0L23.76,60.36V80.72a5.52,5.52,0,0,1,0,.58,5.71,5.71,0,0,1-5.56,5.41,5.74,5.74,0,0,1-5.58-5.88V36.27A5.73,5.73,0,0,1,18.18,30.4Z"/><path class="cls-13" d="M18,30.2a5.72,5.72,0,0,1,5.57,5.87V51.61L42.18,32c.1-.11.28-.29.38-.38a5.38,5.38,0,0,1,7.58.29,6,6,0,0,1,1.63,4,6.06,6.06,0,0,1-1.63,4.33L35.27,55.87,54.78,76.41c.07.08.22.23.29.32a6.07,6.07,0,0,1,1.4,4.06,6,6,0,0,1-1.63,4,5.37,5.37,0,0,1-7.88,0L23.55,60.13V80.5a5.62,5.62,0,0,1,0,.58A5.69,5.69,0,0,1,18,86.49a5.72,5.72,0,0,1-5.57-5.87V36.07A5.72,5.72,0,0,1,18,30.2Z"/><path class="cls-14" d="M17.78,30a5.71,5.71,0,0,1,5.56,5.85V51.43L42,31.82l.39-.38a5.35,5.35,0,0,1,7.57.28,6.07,6.07,0,0,1,0,8.28L35.05,55.66,54.56,76.2l.29.32a6.08,6.08,0,0,1-.22,8,5.37,5.37,0,0,1-7.86,0L23.34,59.9V80.28a5.43,5.43,0,0,1,0,.57,5.68,5.68,0,0,1-5.54,5.42,5.71,5.71,0,0,1-5.56-5.85V35.86A5.71,5.71,0,0,1,17.78,30Z"/><path class="cls-15" d="M17.58,29.81a5.71,5.71,0,0,1,5.55,5.85V51.25L41.77,31.63c.09-.09.28-.29.38-.37A5.32,5.32,0,0,1,46,29.82a5.38,5.38,0,0,1,3.75,1.7,6.05,6.05,0,0,1,0,8.27L34.84,55.46,54.34,76c.07.08.23.24.29.32a6,6,0,0,1,1.42,4,6,6,0,0,1-1.62,4,5.35,5.35,0,0,1-7.86,0L23.13,59.67V80.05a5.94,5.94,0,0,1-5.55,6A5.7,5.7,0,0,1,12,80.21V35.66A5.7,5.7,0,0,1,17.58,29.81Z"/><path class="cls-16" d="M17.38,29.62a5.69,5.69,0,0,1,5.54,5.83V51.07L41.56,31.45l.38-.38a5.34,5.34,0,0,1,7.58.26,6.06,6.06,0,0,1,0,8.25L34.62,55.25l19.5,20.53.3.33a6.05,6.05,0,0,1-.2,8,5.35,5.35,0,0,1-7.84,0L22.92,59.44V79.83a5.43,5.43,0,0,1,0,.57,5.66,5.66,0,0,1-5.52,5.44A5.69,5.69,0,0,1,11.84,80V35.45A5.69,5.69,0,0,1,17.38,29.62Z"/><path class="cls-17" d="M17.18,29.42a5.69,5.69,0,0,1,5.53,5.83V50.89L41.36,31.26c.08-.09.29-.3.38-.38a5.34,5.34,0,0,1,7.57.25,6,6,0,0,1,0,8.23L34.41,55.05l19.5,20.52c.06.07.23.25.29.33a6,6,0,0,1,1.43,4,5.93,5.93,0,0,1-1.62,4,5.35,5.35,0,0,1-7.82,0L22.71,59.21V79.6c0,.13,0,.45,0,.58a5.65,5.65,0,0,1-5.51,5.44,5.68,5.68,0,0,1-5.53-5.82V35.25A5.68,5.68,0,0,1,17.18,29.42Z"/><path class="cls-18" d="M17,29.23A5.67,5.67,0,0,1,22.5,35V50.71L41.15,31.07l.38-.37a5.3,5.3,0,0,1,3.82-1.47,5.38,5.38,0,0,1,3.75,1.7,6,6,0,0,1,0,8.22L34.19,54.84l19.5,20.52c.06.07.24.26.29.33a6,6,0,0,1-.18,8,5.31,5.31,0,0,1-7.81,0L22.5,59V79.38c0,.12,0,.45,0,.57A5.65,5.65,0,0,1,17,85.41a5.68,5.68,0,0,1-5.52-5.82V35A5.67,5.67,0,0,1,17,29.23Z"/><path class="cls-19" d="M16.78,29a5.66,5.66,0,0,1,5.51,5.8v15.7L41,30.89c.07-.08.3-.31.38-.38a5.29,5.29,0,0,1,7.56.22,6,6,0,0,1,0,8.21L34,54.64,53.47,75.16l.3.32a6,6,0,0,1-.17,8,5.32,5.32,0,0,1-7.8,0L22.29,58.74V79.16c0,.11,0,.46,0,.57a5.63,5.63,0,0,1-5.49,5.46,5.66,5.66,0,0,1-5.51-5.8V34.83A5.66,5.66,0,0,1,16.78,29Z"/><path class="cls-20" d="M16.58,28.84a5.65,5.65,0,0,1,5.5,5.79V50.35L40.74,30.7l.38-.37a5.29,5.29,0,0,1,7.56.2,6,6,0,0,1,0,8.19L33.76,54.43,53.26,75l.29.32a6,6,0,0,1-.16,8,5.32,5.32,0,0,1-7.78,0L22.08,58.51V78.93c0,.11,0,.47,0,.57A5.62,5.62,0,0,1,16.58,85a5.66,5.66,0,0,1-5.51-5.79V34.63A5.66,5.66,0,0,1,16.58,28.84Z"/><path class="cls-21" d="M16.38,28.64a5.64,5.64,0,0,1,5.49,5.78V50.17L40.54,30.52c.06-.07.3-.32.37-.38a5.34,5.34,0,0,1,3.81-1.5,5.41,5.41,0,0,1,3.76,1.69,6,6,0,0,1,0,8.18L33.55,54.22,53,74.74l.29.32a6,6,0,0,1,1.46,4,5.9,5.9,0,0,1-1.61,4,5.29,5.29,0,0,1-7.77,0L21.87,58.28V78.71c0,.1,0,.47,0,.57a5.61,5.61,0,0,1-5.47,5.48A5.65,5.65,0,0,1,10.88,79V34.42A5.65,5.65,0,0,1,16.38,28.64Z"/><path class="cls-22" d="M16.18,28.45a5.63,5.63,0,0,1,5.48,5.77V50L40.33,30.33l.38-.38a5.28,5.28,0,0,1,7.56.19,5.83,5.83,0,0,1,1.6,4,5.91,5.91,0,0,1-1.6,4.19L33.33,54,52.82,74.53l.29.32a6,6,0,0,1-.14,8,5.29,5.29,0,0,1-7.75,0L21.66,58.05V78.49c0,.09,0,.47,0,.56a5.61,5.61,0,0,1-5.46,5.49,5.64,5.64,0,0,1-5.49-5.77V34.22A5.63,5.63,0,0,1,16.18,28.45Z"/><path class="cls-23" d="M16,28.25A5.63,5.63,0,0,1,21.45,34v15.8L40.13,30.14c.06-.06.31-.32.37-.37a5.26,5.26,0,0,1,7.56.17,6,6,0,0,1,0,8.14L33.12,53.81,52.6,74.32l.3.32a6,6,0,0,1-.14,8,5.29,5.29,0,0,1-7.73,0L21.45,57.82V78.26c0,.09,0,.48,0,.57A5.59,5.59,0,0,1,16,84.32a5.63,5.63,0,0,1-5.48-5.76V34A5.63,5.63,0,0,1,16,28.25Z"/><path class="cls-24" d="M15.77,28.06a5.61,5.61,0,0,1,5.47,5.74V49.63L39.92,30l.38-.38a5.25,5.25,0,0,1,7.55.16,6,6,0,0,1,0,8.13l-15,15.74,19.49,20.5.29.32a5.94,5.94,0,0,1,1.48,4,5.85,5.85,0,0,1-1.6,4,5.26,5.26,0,0,1-7.73,0L21.24,57.58V78c0,.08,0,.48,0,.56a5.6,5.6,0,0,1-5.46,5.51,5.62,5.62,0,0,1-5.46-5.75V33.8A5.61,5.61,0,0,1,15.77,28.06Z"/><path class="cls-25" d="M15.57,27.86A5.61,5.61,0,0,1,21,33.6V49.45L39.72,29.77l.37-.38a5.26,5.26,0,0,1,7.56.15,6,6,0,0,1,0,8.12l-15,15.74L52.17,73.91l.29.31a5.94,5.94,0,0,1-.11,8,5.26,5.26,0,0,1-7.71,0L21,57.35V77.82c0,.07,0,.48,0,.56a5.59,5.59,0,0,1-5.45,5.51,5.61,5.61,0,0,1-5.45-5.74V33.6A5.61,5.61,0,0,1,15.57,27.86Z"/><path class="cls-26" d="M15.37,27.67a5.59,5.59,0,0,1,5.45,5.72V49.27L39.51,29.58c.05,0,.33-.33.37-.37a5.25,5.25,0,0,1,7.56.13,6,6,0,0,1,0,8.1l-15,15.75L52,73.7l.3.32a6,6,0,0,1-.11,8,5.26,5.26,0,0,1-7.69,0L20.82,57.12V77.59c0,.07,0,.5,0,.56a5.57,5.57,0,0,1-5.44,5.52A5.59,5.59,0,0,1,9.93,78V33.39A5.59,5.59,0,0,1,15.37,27.67Z"/><path class="cls-27" d="M15.17,27.47a5.58,5.58,0,0,1,5.43,5.72v15.9L39.31,29.4s.32-.34.37-.38a5.23,5.23,0,0,1,7.55.12,5.94,5.94,0,0,1,0,8.09L32.26,53l19.48,20.5.29.32a5.81,5.81,0,0,1,1.49,4,5.75,5.75,0,0,1-1.59,4,5.23,5.23,0,0,1-7.68,0L20.6,56.89v21a5.57,5.57,0,0,1-5.43,5.53,5.59,5.59,0,0,1-5.43-5.72V33.19A5.59,5.59,0,0,1,15.17,27.47Z"/><path class="cls-28" d="M15,27.27A5.58,5.58,0,0,1,20.39,33V48.91l18.72-19.7s.32-.34.36-.37A5.22,5.22,0,0,1,47,29a5.77,5.77,0,0,1,1.59,4A5.85,5.85,0,0,1,47,37l-15,15.76,19.47,20.5.29.32a5.93,5.93,0,0,1-.08,8,5.24,5.24,0,0,1-7.67,0L20.39,56.66v21A5.56,5.56,0,0,1,15,83.24a5.57,5.57,0,0,1-5.42-5.7V33A5.58,5.58,0,0,1,15,27.27Z"/><path class="cls-29" d="M14.77,27.08a5.56,5.56,0,0,1,5.41,5.7V48.73L38.9,29s.33-.35.37-.38a5.21,5.21,0,0,1,7.55.1,5.92,5.92,0,0,1,0,8l-15,15.78L51.3,73.07l.29.32a5.91,5.91,0,0,1-.07,8,5.22,5.22,0,0,1-7.65,0L20.18,56.43V77.48A5.56,5.56,0,0,1,14.77,83a5.57,5.57,0,0,1-5.41-5.7V32.78A5.56,5.56,0,0,1,14.77,27.08Z"/><path class="cls-30" d="M14.57,26.88A5.55,5.55,0,0,1,20,32.57v16L38.7,28.84l.36-.38a5.22,5.22,0,0,1,7.55.09,5.9,5.9,0,0,1,0,8l-15,15.78L51.08,72.86l.3.32a5.9,5.9,0,0,1-.07,8,5.2,5.2,0,0,1-7.64,0L20,56.2V77.26a5.55,5.55,0,0,1-5.4,5.55,5.55,5.55,0,0,1-5.4-5.69V32.57A5.55,5.55,0,0,1,14.57,26.88Z"/><path class="cls-31" d="M14.37,26.69a5.54,5.54,0,0,1,5.39,5.67v16L38.49,28.65s.34-.35.36-.37a5.2,5.2,0,0,1,7.55.07,5.89,5.89,0,0,1,0,8l-15,15.79L50.87,72.66l.29.31a5.89,5.89,0,0,1-.06,8,5.2,5.2,0,0,1-7.62,0L19.76,56V77a5.53,5.53,0,0,1-5.39,5.56A5.54,5.54,0,0,1,9,76.92V32.36A5.54,5.54,0,0,1,14.37,26.69Z"/><path class="cls-32" d="M14.17,26.49a5.53,5.53,0,0,1,5.38,5.67v16L38.29,28.47l.36-.38a5.2,5.2,0,0,1,7.54.06,5.87,5.87,0,0,1,0,8L31.19,52,50.65,72.45l.29.31a5.88,5.88,0,0,1,0,8,5.19,5.19,0,0,1-7.61,0l-23.74-25V76.81a5.53,5.53,0,0,1-5.38,5.57,5.53,5.53,0,0,1-5.38-5.67V32.16A5.53,5.53,0,0,1,14.17,26.49Z"/><path class="cls-33" d="M14,26.3A5.52,5.52,0,0,1,19.34,32V48L38.08,28.28s.34-.36.36-.37A5.19,5.19,0,0,1,46,28a5.88,5.88,0,0,1,0,8L31,51.75,50.43,72.24s.28.3.3.31a5.87,5.87,0,0,1,0,8,5.18,5.18,0,0,1-7.6,0l-23.75-25V76.58A5.52,5.52,0,0,1,14,82.16,5.53,5.53,0,0,1,8.6,76.51V32A5.52,5.52,0,0,1,14,26.3Z"/><path class="cls-34" d="M13.77,26.1a5.51,5.51,0,0,1,5.36,5.65V47.83L37.88,28.09s.34-.36.36-.37a5.15,5.15,0,0,1,7.54,0,5.85,5.85,0,0,1,0,8l-15,15.81L50.22,72l.29.31a5.86,5.86,0,0,1,0,8,5.18,5.18,0,0,1-7.58,0l-23.77-25V76.36a5.51,5.51,0,0,1-5.36,5.58A5.51,5.51,0,0,1,8.41,76.3V31.75A5.51,5.51,0,0,1,13.77,26.1Z"/><path class="cls-35" d="M13.57,25.91a5.5,5.5,0,0,1,5.35,5.63V47.65L37.67,27.91l.36-.38a5.16,5.16,0,0,1,7.54,0,5.83,5.83,0,0,1,0,8l-15,15.82L50,71.82l.29.31a5.84,5.84,0,0,1,0,8,5.15,5.15,0,0,1-7.56,0L18.92,55V76.13a5.5,5.5,0,0,1-5.35,5.6,5.51,5.51,0,0,1-5.35-5.64V31.54A5.5,5.5,0,0,1,13.57,25.91Z"/><path class="cls-36" d="M13.37,25.71a5.49,5.49,0,0,1,5.34,5.62V47.47L37.47,27.72l.35-.37a5.14,5.14,0,0,1,7.54,0,5.82,5.82,0,0,1,0,8l-15,15.83L49.78,71.62l.29.3a5.83,5.83,0,0,1,0,7.94,5.15,5.15,0,0,1-7.56,0l-23.8-25v21.1a5.49,5.49,0,0,1-5.34,5.6A5.49,5.49,0,0,1,8,75.89V31.33A5.49,5.49,0,0,1,13.37,25.71Z"/><path class="Graphic-Style" d="M46.09,81.29a5.17,5.17,0,0,1-3.77-1.64L18.5,54.57V75.68a5.48,5.48,0,0,1-5.33,5.61,5.48,5.48,0,0,1-5.33-5.61V31.13a5.48,5.48,0,0,1,5.33-5.61,5.48,5.48,0,0,1,5.33,5.61V47.29L37.62,27.16a5.14,5.14,0,0,1,7.53,0,5.8,5.8,0,0,1,0,7.94l-15,15.83L49.86,71.72a5.82,5.82,0,0,1,0,7.93A5.17,5.17,0,0,1,46.09,81.29Z"/></g><path class="cls-39" d="M50.08,71.48,30.56,50.93l14.82-15.6a6.17,6.17,0,0,0,0-8.4,5.44,5.44,0,0,0-8,0L18.81,46.49V31.13a5.8,5.8,0,0,0-5.64-5.94,5.8,5.8,0,0,0-5.65,5.94V75.68a5.8,5.8,0,0,0,5.65,5.94,5.8,5.8,0,0,0,5.64-5.94V55.37L42.1,79.88a5.44,5.44,0,0,0,8,0A6.17,6.17,0,0,0,50.08,71.48Z"/><path class="cls-40" d="M46.09,80.3A4.24,4.24,0,0,1,43,79L17.56,52.18v23.5a4.51,4.51,0,0,1-4.39,4.62,4.51,4.51,0,0,1-4.39-4.62V31.13a4.51,4.51,0,0,1,4.39-4.62,4.51,4.51,0,0,1,4.39,4.62V49.68L38.28,27.86a4.25,4.25,0,0,1,6.21,0,4.79,4.79,0,0,1,0,6.54L28.78,50.93,49.19,72.42a4.78,4.78,0,0,1,0,6.53A4.26,4.26,0,0,1,46.09,80.3Z"/><path class="cls-3" d="M73.88,89.54c-7.26,0-13.17-6.21-13.17-13.86V31.13c0-7.64,5.91-13.86,13.17-13.86s13.17,6.22,13.17,13.86V75.68C87.05,83.33,81.14,89.54,73.88,89.54Z"/><path class="cls-4" d="M73.88,88.22C67.31,88.22,62,82.6,62,75.68V31.13c0-6.92,5.34-12.54,11.91-12.54S85.8,24.21,85.8,31.13V75.68C85.8,82.6,80.45,88.22,73.88,88.22Z"/><g class="cls-5"><path class="cls-6" d="M80.1,88a5.8,5.8,0,0,1-5.65-5.94V37.51a5.65,5.65,0,1,1,11.29,0V82.06A5.8,5.8,0,0,1,80.1,88Z"/><path class="cls-7" d="M79.9,87.79a5.8,5.8,0,0,1-5.64-5.93V37.3a5.64,5.64,0,1,1,11.27,0V81.86A5.79,5.79,0,0,1,79.9,87.79Z"/><path class="cls-8" d="M79.7,87.57a5.78,5.78,0,0,1-5.63-5.92V37.1a5.63,5.63,0,1,1,11.25,0V81.65A5.78,5.78,0,0,1,79.7,87.57Z"/><path class="cls-9" d="M79.5,87.35a5.77,5.77,0,0,1-5.62-5.9V36.89a5.62,5.62,0,1,1,11.23,0V81.45A5.76,5.76,0,0,1,79.5,87.35Z"/><path class="cls-10" d="M79.3,87.14a5.76,5.76,0,0,1-5.61-5.9V36.69a5.61,5.61,0,1,1,11.21,0V81.24A5.76,5.76,0,0,1,79.3,87.14Z"/><path class="cls-11" d="M79.09,86.92A5.75,5.75,0,0,1,73.5,81V36.48a5.6,5.6,0,1,1,11.19,0V81A5.75,5.75,0,0,1,79.09,86.92Z"/><path class="cls-12" d="M78.89,86.71a5.74,5.74,0,0,1-5.58-5.88V36.27a5.59,5.59,0,1,1,11.17,0V80.83A5.74,5.74,0,0,1,78.89,86.71Z"/><path class="cls-13" d="M78.69,86.49a5.73,5.73,0,0,1-5.57-5.87V36.07a5.58,5.58,0,1,1,11.15,0V80.62A5.73,5.73,0,0,1,78.69,86.49Z"/><path class="cls-14" d="M78.49,86.27a5.71,5.71,0,0,1-5.56-5.85V35.86a5.57,5.57,0,1,1,11.13,0V80.42A5.72,5.72,0,0,1,78.49,86.27Z"/><path class="cls-15" d="M78.29,86.06a5.71,5.71,0,0,1-5.55-5.85V35.66a5.56,5.56,0,1,1,11.11,0V80.21A5.71,5.71,0,0,1,78.29,86.06Z"/><path class="cls-16" d="M78.09,85.84A5.69,5.69,0,0,1,72.55,80V35.45a5.55,5.55,0,1,1,11.08,0V80A5.69,5.69,0,0,1,78.09,85.84Z"/><path class="cls-17" d="M77.89,85.62a5.69,5.69,0,0,1-5.53-5.82V35.25a5.54,5.54,0,1,1,11.06,0V79.8A5.68,5.68,0,0,1,77.89,85.62Z"/><path class="cls-18" d="M77.69,85.41a5.68,5.68,0,0,1-5.52-5.82V35a5.53,5.53,0,1,1,11,0V79.59A5.68,5.68,0,0,1,77.69,85.41Z"/><path class="cls-19" d="M77.49,85.19A5.66,5.66,0,0,1,72,79.39V34.83a5.52,5.52,0,1,1,11,0V79.39A5.66,5.66,0,0,1,77.49,85.19Z"/><path class="cls-20" d="M77.29,85a5.65,5.65,0,0,1-5.5-5.79V34.63a5.51,5.51,0,1,1,11,0V79.18A5.65,5.65,0,0,1,77.29,85Z"/><path class="cls-21" d="M77.09,84.76A5.64,5.64,0,0,1,71.6,79V34.42a5.5,5.5,0,1,1,11,0V79A5.64,5.64,0,0,1,77.09,84.76Z"/><path class="cls-22" d="M76.89,84.54a5.63,5.63,0,0,1-5.48-5.77V34.22a5.49,5.49,0,1,1,11,0V78.77A5.64,5.64,0,0,1,76.89,84.54Z"/><path class="cls-23" d="M76.69,84.32a5.62,5.62,0,0,1-5.47-5.76V34a5.48,5.48,0,1,1,10.94,0V78.56A5.62,5.62,0,0,1,76.69,84.32Z"/><path class="cls-24" d="M76.49,84.11A5.61,5.61,0,0,1,71,78.36V33.8A5.47,5.47,0,1,1,82,33.8V78.36A5.62,5.62,0,0,1,76.49,84.11Z"/><path class="cls-25" d="M76.29,83.89a5.6,5.6,0,0,1-5.45-5.74V33.6a5.46,5.46,0,1,1,10.9,0V78.15A5.6,5.6,0,0,1,76.29,83.89Z"/><path class="cls-26" d="M76.09,83.67A5.59,5.59,0,0,1,70.65,78V33.39a5.45,5.45,0,1,1,10.88,0V78A5.59,5.59,0,0,1,76.09,83.67Z"/><path class="cls-27" d="M75.89,83.46a5.58,5.58,0,0,1-5.43-5.72V33.19a5.44,5.44,0,1,1,10.86,0V77.74A5.59,5.59,0,0,1,75.89,83.46Z"/><path class="cls-28" d="M75.69,83.24a5.57,5.57,0,0,1-5.42-5.7V33a5.43,5.43,0,1,1,10.84,0V77.54A5.57,5.57,0,0,1,75.69,83.24Z"/><path class="cls-29" d="M75.49,83a5.57,5.57,0,0,1-5.42-5.7V32.78a5.42,5.42,0,1,1,10.83,0V77.33A5.57,5.57,0,0,1,75.49,83Z"/><path class="cls-30" d="M75.29,82.81a5.56,5.56,0,0,1-5.41-5.69V32.57a5.41,5.41,0,1,1,10.81,0V77.12A5.56,5.56,0,0,1,75.29,82.81Z"/><path class="cls-31" d="M75.08,82.59a5.54,5.54,0,0,1-5.39-5.67V32.36a5.4,5.4,0,1,1,10.79,0V76.92A5.54,5.54,0,0,1,75.08,82.59Z"/><path class="cls-32" d="M74.88,82.38a5.54,5.54,0,0,1-5.38-5.67V32.16a5.39,5.39,0,1,1,10.76,0V76.71A5.53,5.53,0,0,1,74.88,82.38Z"/><path class="cls-33" d="M74.68,82.16a5.53,5.53,0,0,1-5.37-5.65V32a5.38,5.38,0,1,1,10.74,0V76.51A5.52,5.52,0,0,1,74.68,82.16Z"/><path class="cls-34" d="M74.48,81.94a5.52,5.52,0,0,1-5.36-5.64V31.75a5.37,5.37,0,1,1,10.72,0V76.3A5.51,5.51,0,0,1,74.48,81.94Z"/><path class="cls-35" d="M74.28,81.73a5.51,5.51,0,0,1-5.35-5.64V31.54a5.36,5.36,0,1,1,10.7,0V76.09A5.51,5.51,0,0,1,74.28,81.73Z"/><path class="cls-36" d="M74.08,81.51a5.49,5.49,0,0,1-5.34-5.62V31.33a5.35,5.35,0,1,1,10.68,0V75.89A5.49,5.49,0,0,1,74.08,81.51Z"/><path class="Graphic-Style" d="M73.88,81.29a5.48,5.48,0,0,1-5.33-5.61V31.13a5.34,5.34,0,1,1,10.66,0V75.68A5.48,5.48,0,0,1,73.88,81.29Z"/></g><path class="cls-41" d="M73.88,81.62a5.79,5.79,0,0,1-5.64-5.94V31.13a5.65,5.65,0,1,1,11.29,0V75.68A5.8,5.8,0,0,1,73.88,81.62Z"/><path class="cls-42" d="M73.88,80.3a4.51,4.51,0,0,1-4.39-4.62V31.13a4.4,4.4,0,1,1,8.78,0V75.68A4.51,4.51,0,0,1,73.88,80.3Z"/><path class="cls-3" d="M226.19,89.54c-7.26,0-13.16-6.21-13.16-13.86V31.13c0-7.64,5.9-13.86,13.16-13.86s13.17,6.22,13.17,13.86V75.68C239.36,83.33,233.46,89.54,226.19,89.54Z"/><path class="cls-4" d="M226.19,88.22c-6.57,0-11.91-5.62-11.91-12.54V31.13c0-6.92,5.34-12.54,11.91-12.54s11.92,5.62,11.92,12.54V75.68C238.11,82.6,232.76,88.22,226.19,88.22Z"/><g class="cls-5"><path class="cls-6" d="M232.41,88a5.79,5.79,0,0,1-5.64-5.94V37.51a5.65,5.65,0,1,1,11.28,0V82.06A5.79,5.79,0,0,1,232.41,88Z"/><path class="cls-7" d="M232.21,87.79a5.79,5.79,0,0,1-5.63-5.93V37.3a5.64,5.64,0,1,1,11.26,0V81.86A5.79,5.79,0,0,1,232.21,87.79Z"/><path class="cls-8" d="M232,87.57a5.77,5.77,0,0,1-5.62-5.92V37.1a5.63,5.63,0,1,1,11.24,0V81.65A5.78,5.78,0,0,1,232,87.57Z"/><path class="cls-9" d="M231.81,87.35a5.77,5.77,0,0,1-5.62-5.9V36.89a5.62,5.62,0,1,1,11.23,0V81.45A5.76,5.76,0,0,1,231.81,87.35Z"/><path class="cls-10" d="M231.61,87.14a5.76,5.76,0,0,1-5.61-5.9V36.69a5.61,5.61,0,1,1,11.21,0V81.24A5.76,5.76,0,0,1,231.61,87.14Z"/><path class="cls-11" d="M231.41,86.92a5.75,5.75,0,0,1-5.6-5.89V36.48a5.6,5.6,0,1,1,11.19,0V81A5.74,5.74,0,0,1,231.41,86.92Z"/><path class="cls-12" d="M231.21,86.71a5.74,5.74,0,0,1-5.59-5.88V36.27a5.59,5.59,0,1,1,11.17,0V80.83A5.74,5.74,0,0,1,231.21,86.71Z"/><path class="cls-13" d="M231,86.49a5.73,5.73,0,0,1-5.58-5.87V36.07a5.58,5.58,0,1,1,11.15,0V80.62A5.73,5.73,0,0,1,231,86.49Z"/><path class="cls-14" d="M230.81,86.27a5.71,5.71,0,0,1-5.57-5.85V35.86a5.57,5.57,0,1,1,11.13,0V80.42A5.71,5.71,0,0,1,230.81,86.27Z"/><path class="cls-15" d="M230.61,86.06a5.71,5.71,0,0,1-5.56-5.85V35.66a5.56,5.56,0,1,1,11.11,0V80.21A5.71,5.71,0,0,1,230.61,86.06Z"/><path class="cls-16" d="M230.4,85.84A5.7,5.7,0,0,1,224.86,80V35.45a5.55,5.55,0,1,1,11.09,0V80A5.7,5.7,0,0,1,230.4,85.84Z"/><path class="cls-17" d="M230.2,85.62a5.69,5.69,0,0,1-5.53-5.82V35.25a5.54,5.54,0,1,1,11.07,0V79.8A5.69,5.69,0,0,1,230.2,85.62Z"/><path class="cls-18" d="M230,85.41a5.68,5.68,0,0,1-5.52-5.82V35a5.53,5.53,0,1,1,11.05,0V79.59A5.69,5.69,0,0,1,230,85.41Z"/><path class="cls-19" d="M229.8,85.19a5.66,5.66,0,0,1-5.51-5.8V34.83a5.52,5.52,0,1,1,11,0V79.39A5.67,5.67,0,0,1,229.8,85.19Z"/><path class="cls-20" d="M229.6,85a5.65,5.65,0,0,1-5.5-5.79V34.63a5.51,5.51,0,1,1,11,0V79.18A5.65,5.65,0,0,1,229.6,85Z"/><path class="cls-21" d="M229.4,84.76A5.64,5.64,0,0,1,223.91,79V34.42a5.5,5.5,0,1,1,11,0V79A5.64,5.64,0,0,1,229.4,84.76Z"/><path class="cls-22" d="M229.2,84.54a5.64,5.64,0,0,1-5.48-5.77V34.22a5.49,5.49,0,1,1,11,0V78.77A5.63,5.63,0,0,1,229.2,84.54Z"/><path class="cls-23" d="M229,84.32a5.62,5.62,0,0,1-5.47-5.76V34a5.48,5.48,0,1,1,10.94,0V78.56A5.62,5.62,0,0,1,229,84.32Z"/><path class="cls-24" d="M228.8,84.11a5.62,5.62,0,0,1-5.46-5.75V33.8a5.47,5.47,0,1,1,10.92,0V78.36A5.62,5.62,0,0,1,228.8,84.11Z"/><path class="cls-25" d="M228.6,83.89a5.6,5.6,0,0,1-5.45-5.74V33.6a5.46,5.46,0,1,1,10.9,0V78.15A5.6,5.6,0,0,1,228.6,83.89Z"/><path class="cls-26" d="M228.4,83.67A5.59,5.59,0,0,1,223,78V33.39a5.45,5.45,0,1,1,10.88,0V78A5.59,5.59,0,0,1,228.4,83.67Z"/><path class="cls-27" d="M228.2,83.46a5.58,5.58,0,0,1-5.43-5.72V33.19a5.44,5.44,0,1,1,10.86,0V77.74A5.58,5.58,0,0,1,228.2,83.46Z"/><path class="cls-28" d="M228,83.24a5.57,5.57,0,0,1-5.42-5.7V33a5.43,5.43,0,1,1,10.84,0V77.54A5.57,5.57,0,0,1,228,83.24Z"/><path class="cls-29" d="M227.8,83a5.56,5.56,0,0,1-5.41-5.7V32.78a5.42,5.42,0,1,1,10.82,0V77.33A5.57,5.57,0,0,1,227.8,83Z"/><path class="cls-30" d="M227.6,82.81a5.55,5.55,0,0,1-5.4-5.69V32.57a5.41,5.41,0,1,1,10.8,0V77.12A5.55,5.55,0,0,1,227.6,82.81Z"/><path class="cls-31" d="M227.4,82.59A5.53,5.53,0,0,1,222,76.92V32.36a5.4,5.4,0,1,1,10.78,0V76.92A5.54,5.54,0,0,1,227.4,82.59Z"/><path class="cls-32" d="M227.2,82.38a5.53,5.53,0,0,1-5.38-5.67V32.16a5.39,5.39,0,1,1,10.76,0V76.71A5.54,5.54,0,0,1,227.2,82.38Z"/><path class="cls-33" d="M227,82.16a5.52,5.52,0,0,1-5.37-5.65V32a5.38,5.38,0,1,1,10.74,0V76.51A5.53,5.53,0,0,1,227,82.16Z"/><path class="cls-34" d="M226.8,81.94a5.51,5.51,0,0,1-5.36-5.64V31.75a5.37,5.37,0,1,1,10.72,0V76.3A5.52,5.52,0,0,1,226.8,81.94Z"/><path class="cls-35" d="M226.6,81.73a5.51,5.51,0,0,1-5.36-5.64V31.54a5.36,5.36,0,1,1,10.71,0V76.09A5.51,5.51,0,0,1,226.6,81.73Z"/><path class="cls-36" d="M226.39,81.51a5.49,5.49,0,0,1-5.34-5.62V31.33a5.35,5.35,0,1,1,10.68,0V75.89A5.49,5.49,0,0,1,226.39,81.51Z"/><path class="Graphic-Style" d="M226.19,81.29a5.48,5.48,0,0,1-5.33-5.61V31.13a5.34,5.34,0,1,1,10.66,0V75.68A5.48,5.48,0,0,1,226.19,81.29Z"/></g><path class="cls-43" d="M226.19,81.62a5.8,5.8,0,0,1-5.64-5.94V31.13a5.65,5.65,0,1,1,11.29,0V75.68A5.8,5.8,0,0,1,226.19,81.62Z"/><path class="cls-44" d="M226.19,80.3a4.51,4.51,0,0,1-4.39-4.62V31.13a4.4,4.4,0,1,1,8.78,0V75.68A4.51,4.51,0,0,1,226.19,80.3Z"/><path class="cls-3" d="M255.9,89.54c-7.26,0-13.17-6.21-13.17-13.86V31.13c0-7.64,5.91-13.86,13.17-13.86h28.22c7.26,0,13.16,6.22,13.16,13.86a13.67,13.67,0,0,1-10,13.47,14.42,14.42,0,0,1,0,17.61,13.67,13.67,0,0,1,10,13.47c0,7.65-5.9,13.86-13.16,13.86Z"/><path class="cls-4" d="M255.9,88.22c-6.57,0-11.92-5.62-11.92-12.54V31.13c0-6.92,5.35-12.54,11.92-12.54h28.22c6.57,0,11.91,5.62,11.91,12.54,0,6.76-5.11,12.29-11.48,12.53a12.93,12.93,0,0,1,0,19.49c6.37.24,11.48,5.77,11.48,12.53,0,6.92-5.34,12.54-11.91,12.54Z"/><g class="cls-5"><path class="cls-6" d="M290.33,76.12H267.76V65.73h15.52a5.95,5.95,0,0,0,0-11.88H267.76V43.45h22.57a5.95,5.95,0,0,0,0-11.88H262.11a5.8,5.8,0,0,0-5.64,5.94V82.06A5.8,5.8,0,0,0,262.11,88h28.22a5.95,5.95,0,0,0,0-11.88Z"/><path class="cls-7" d="M261.91,87.79a5.79,5.79,0,0,1-5.63-5.93V37.3a5.79,5.79,0,0,1,5.63-5.93h28.22a5.94,5.94,0,0,1,0,11.86H267.55V53.65h15.53a5.94,5.94,0,0,1,0,11.86H267.55V75.93h22.58a5.94,5.94,0,0,1,0,11.86Z"/><path class="cls-8" d="M261.71,87.57a5.78,5.78,0,0,1-5.62-5.92V37.1a5.78,5.78,0,0,1,5.62-5.92h28.22a5.93,5.93,0,0,1,0,11.84H267.34V53.46h15.54a5.92,5.92,0,0,1,0,11.83H267.34V75.73h22.59a5.93,5.93,0,0,1,0,11.84Z"/><path class="cls-9" d="M261.51,87.35a5.76,5.76,0,0,1-5.61-5.9V36.89A5.77,5.77,0,0,1,261.51,31h28.22a5.92,5.92,0,0,1,0,11.82h-22.6V53.26h15.55a5.92,5.92,0,0,1,0,11.82H267.13V75.54h22.6a5.91,5.91,0,0,1,0,11.81Z"/><path class="cls-10" d="M261.31,87.14a5.76,5.76,0,0,1-5.6-5.9V36.69a5.76,5.76,0,0,1,5.6-5.9h28.22a5.9,5.9,0,0,1,0,11.79H266.91V53.07h15.56a5.9,5.9,0,0,1,0,11.79H266.91V75.34h22.62a5.91,5.91,0,0,1,0,11.8Z"/><path class="cls-11" d="M261.11,86.92A5.74,5.74,0,0,1,255.52,81V36.48a5.75,5.75,0,0,1,5.59-5.89h28.22a5.9,5.9,0,0,1,0,11.78H266.7v10.5h15.57a5.89,5.89,0,0,1,0,11.77H266.7V75.15h22.63a5.89,5.89,0,0,1,0,11.77Z"/><path class="cls-12" d="M260.91,86.71a5.74,5.74,0,0,1-5.58-5.88V36.27a5.73,5.73,0,0,1,5.58-5.87h28.22a5.88,5.88,0,0,1,0,11.75H266.49V52.67h15.58a5.89,5.89,0,0,1,0,11.76H266.49V75h22.64a5.89,5.89,0,0,1,0,11.76Z"/><path class="cls-13" d="M260.71,86.49a5.72,5.72,0,0,1-5.57-5.87V36.07a5.72,5.72,0,0,1,5.57-5.87h28.22a5.87,5.87,0,0,1,0,11.73H266.28V52.48h15.59a5.87,5.87,0,0,1,0,11.73H266.28V74.76h22.65a5.87,5.87,0,0,1,0,11.73Z"/><path class="cls-14" d="M260.51,86.27A5.71,5.71,0,0,1,255,80.42V35.86A5.71,5.71,0,0,1,260.51,30h28.22a5.86,5.86,0,0,1,0,11.71H266.07V52.28h15.6a5.87,5.87,0,0,1,0,11.72h-15.6V74.56h22.66a5.86,5.86,0,0,1,0,11.71Z"/><path class="cls-15" d="M260.31,86.06a5.7,5.7,0,0,1-5.55-5.85V35.66a5.7,5.7,0,0,1,5.55-5.85h28.22a5.85,5.85,0,0,1,0,11.69H265.86V52.09h15.61a5.85,5.85,0,0,1,0,11.69H265.86V74.37h22.67a5.85,5.85,0,0,1,0,11.69Z"/><path class="cls-16" d="M260.11,85.84A5.69,5.69,0,0,1,254.57,80V35.45a5.69,5.69,0,0,1,5.54-5.83h28.22a5.84,5.84,0,0,1,0,11.67H265.65v10.6h15.62a5.84,5.84,0,0,1,0,11.67H265.65V74.17h22.68a5.84,5.84,0,0,1,0,11.67Z"/><path class="cls-17" d="M259.91,85.62a5.68,5.68,0,0,1-5.53-5.82V35.25a5.68,5.68,0,0,1,5.53-5.83h28.22a5.83,5.83,0,0,1,0,11.65H265.44V51.7h15.63a5.83,5.83,0,0,1,0,11.65H265.44V74h22.69a5.83,5.83,0,0,1,0,11.64Z"/><path class="cls-18" d="M259.71,85.41a5.68,5.68,0,0,1-5.52-5.82V35a5.67,5.67,0,0,1,5.52-5.81h28.22a5.82,5.82,0,0,1,0,11.62h-22.7V51.5h15.64a5.82,5.82,0,0,1,0,11.63H265.23V73.78h22.7a5.82,5.82,0,0,1,0,11.63Z"/><path class="cls-19" d="M259.51,85.19a5.66,5.66,0,0,1-5.51-5.8V34.83a5.66,5.66,0,0,1,5.51-5.8h28.21a5.81,5.81,0,0,1,0,11.61H265V51.31h15.65a5.81,5.81,0,0,1,0,11.6H265V73.59h22.7a5.81,5.81,0,0,1,0,11.6Z"/><path class="cls-20" d="M259.31,85a5.66,5.66,0,0,1-5.51-5.79V34.63a5.66,5.66,0,0,1,5.51-5.79h28.21a5.8,5.8,0,0,1,0,11.58H264.81V51.11h15.66a5.8,5.8,0,0,1,0,11.59H264.81V73.39h22.71a5.8,5.8,0,0,1,0,11.58Z"/><path class="cls-21" d="M259.11,84.76a5.65,5.65,0,0,1-5.5-5.78V34.42a5.65,5.65,0,0,1,5.5-5.78h28.21a5.79,5.79,0,0,1,0,11.56H264.6V50.92h15.67a5.79,5.79,0,0,1,0,11.56H264.6V73.2h22.72a5.79,5.79,0,0,1,0,11.56Z"/><path class="cls-22" d="M258.91,84.54a5.64,5.64,0,0,1-5.49-5.77V34.22a5.63,5.63,0,0,1,5.49-5.77h28.21a5.78,5.78,0,0,1,0,11.54H264.39V50.72h15.68a5.78,5.78,0,0,1,0,11.54H264.39V73h22.73a5.78,5.78,0,0,1,0,11.54Z"/><path class="cls-23" d="M258.71,84.32a5.63,5.63,0,0,1-5.48-5.76V34a5.63,5.63,0,0,1,5.48-5.76h28.21a5.77,5.77,0,0,1,0,11.52H264.18V50.53h15.69a5.77,5.77,0,0,1,0,11.52H264.18V72.81h22.74a5.76,5.76,0,0,1,0,11.51Z"/><path class="cls-24" d="M258.5,84.11A5.62,5.62,0,0,1,253,78.36V33.8a5.61,5.61,0,0,1,5.46-5.74h28.22a5.75,5.75,0,0,1,0,11.49H264V50.33h15.7a5.76,5.76,0,0,1,0,11.5H264V72.61h22.75a5.76,5.76,0,0,1,0,11.5Z"/><path class="cls-25" d="M258.3,83.89a5.61,5.61,0,0,1-5.45-5.74V33.6a5.61,5.61,0,0,1,5.45-5.74h28.22a5.75,5.75,0,0,1,0,11.48H263.76v10.8h15.71a5.74,5.74,0,0,1,0,11.47H263.76v10.8h22.76a5.75,5.75,0,0,1,0,11.48Z"/><path class="cls-26" d="M258.1,83.67A5.59,5.59,0,0,1,252.66,78V33.39a5.59,5.59,0,0,1,5.44-5.72h28.22a5.73,5.73,0,0,1,0,11.45H263.54V49.94h15.73a5.74,5.74,0,0,1,0,11.46H263.54V72.22h22.78a5.73,5.73,0,0,1,0,11.45Z"/><path class="cls-27" d="M257.9,83.46a5.59,5.59,0,0,1-5.43-5.72V33.19a5.59,5.59,0,0,1,5.43-5.72h28.22a5.72,5.72,0,0,1,0,11.43H263.33V49.75h15.74a5.72,5.72,0,0,1,0,11.43H263.33V72h22.79a5.73,5.73,0,0,1,0,11.44Z"/><path class="cls-28" d="M257.7,83.24a5.57,5.57,0,0,1-5.42-5.7V33a5.58,5.58,0,0,1,5.42-5.71h28.22a5.72,5.72,0,0,1,0,11.42h-22.8V49.55h15.75a5.71,5.71,0,0,1,0,11.41H263.12V71.83h22.8a5.71,5.71,0,0,1,0,11.41Z"/><path class="cls-29" d="M257.5,83a5.57,5.57,0,0,1-5.41-5.7V32.78a5.56,5.56,0,0,1,5.41-5.7h28.22a5.7,5.7,0,0,1,0,11.39H262.91V49.36h15.76a5.7,5.7,0,0,1,0,11.39H262.91V71.63h22.81a5.71,5.71,0,0,1,0,11.4Z"/><path class="cls-30" d="M257.3,82.81a5.55,5.55,0,0,1-5.4-5.69V32.57a5.55,5.55,0,0,1,5.4-5.69h28.22a5.69,5.69,0,0,1,0,11.37H262.7V49.16h15.77a5.69,5.69,0,0,1,0,11.37H262.7V71.44h22.82a5.69,5.69,0,0,1,0,11.37Z"/><path class="cls-31" d="M257.1,82.59a5.54,5.54,0,0,1-5.39-5.67V32.36a5.54,5.54,0,0,1,5.39-5.67h28.22a5.68,5.68,0,0,1,0,11.35H262.49V49h15.77a5.68,5.68,0,0,1,0,11.35H262.49V71.24h22.83a5.68,5.68,0,0,1,0,11.35Z"/><path class="cls-32" d="M256.9,82.38a5.53,5.53,0,0,1-5.38-5.67V32.16a5.53,5.53,0,0,1,5.38-5.67h28.22a5.67,5.67,0,0,1,0,11.33H262.28v11h15.78a5.67,5.67,0,0,1,0,11.33H262.28V71.05h22.84a5.67,5.67,0,0,1,0,11.33Z"/><path class="cls-33" d="M256.7,82.16a5.53,5.53,0,0,1-5.37-5.65V32a5.52,5.52,0,0,1,5.37-5.65h28.22a5.66,5.66,0,0,1,0,11.31H262.07v11h15.79a5.66,5.66,0,0,1,0,11.3H262.07v11h22.85a5.66,5.66,0,0,1,0,11.31Z"/><path class="cls-34" d="M256.5,81.94a5.51,5.51,0,0,1-5.36-5.64V31.75a5.51,5.51,0,0,1,5.36-5.65h28.22a5.65,5.65,0,0,1,0,11.29H261.86v11h15.8a5.65,5.65,0,0,1,0,11.29h-15.8v11h22.86a5.65,5.65,0,0,1,0,11.28Z"/><path class="cls-35" d="M256.3,81.73A5.51,5.51,0,0,1,251,76.09V31.54a5.5,5.5,0,0,1,5.35-5.63h28.22a5.64,5.64,0,0,1,0,11.26H261.65v11h15.81a5.64,5.64,0,0,1,0,11.26H261.65v11h22.87a5.64,5.64,0,0,1,0,11.27Z"/><path class="cls-36" d="M256.1,81.51a5.49,5.49,0,0,1-5.34-5.62V31.33a5.49,5.49,0,0,1,5.34-5.62h28.22a5.63,5.63,0,0,1,0,11.25H261.44V48h15.82a5.63,5.63,0,0,1,0,11.24H261.44v11h22.88a5.63,5.63,0,0,1,0,11.24Z"/><path class="Graphic-Style" d="M255.9,81.29a5.48,5.48,0,0,1-5.33-5.61V31.13a5.48,5.48,0,0,1,5.33-5.61h28.22a5.62,5.62,0,0,1,0,11.22H261.23V47.8h15.83a5.62,5.62,0,0,1,0,11.22H261.23v11h22.89a5.62,5.62,0,0,1,0,11.22Z"/></g><path class="cls-45" d="M284.12,69.74H261.54V59.35h15.52a5.95,5.95,0,0,0,0-11.88H261.54V37.07h22.58a5.95,5.95,0,0,0,0-11.88H255.9a5.8,5.8,0,0,0-5.65,5.94V75.68a5.8,5.8,0,0,0,5.65,5.94h28.22a5.95,5.95,0,0,0,0-11.88Z"/><path class="cls-46" d="M255.9,80.3a4.51,4.51,0,0,1-4.39-4.62V31.13a4.51,4.51,0,0,1,4.39-4.62h28.22a4.63,4.63,0,0,1,0,9.24H260.29v13h16.77a4.63,4.63,0,0,1,0,9.24H260.29v13h23.83a4.63,4.63,0,0,1,0,9.24Z"/><path class="cls-3" d="M102.79,89.54c-7.26,0-13.17-6.21-13.17-13.86V31.13c0-7.64,5.91-13.86,13.17-13.86H116.9c18.26,0,31.51,15.2,31.51,36.14S135.16,89.54,116.9,89.54ZM116.9,61.82c4.5,0,5.17-5.27,5.17-8.41S121.4,45,116.9,45H116V61.82Z"/><path class="cls-4" d="M102.79,88.22c-6.57,0-11.91-5.62-11.91-12.54V31.13c0-6.92,5.34-12.54,11.91-12.54H116.9c17.53,0,30.25,14.64,30.25,34.82S134.43,88.22,116.9,88.22ZM116.9,63.14c5.8,0,6.43-6.81,6.43-9.73s-.63-9.74-6.43-9.74h-2.2V63.14Z"/><g class="cls-5"><path class="cls-6" d="M114.65,76.12h8.46c9.38,0,12.7-8.8,12.7-16.33s-3.32-16.34-12.7-16.34h-8.46ZM123.11,88H109a5.8,5.8,0,0,1-5.65-5.94V37.51A5.8,5.8,0,0,1,109,31.57h14.1c14.13,0,24,11.6,24,28.22S137.24,88,123.11,88Z"/><path class="cls-7" d="M114.44,75.93h8.47c9.38,0,12.71-8.81,12.71-16.35s-3.33-16.35-12.71-16.35h-8.47ZM108.8,87.79a5.79,5.79,0,0,1-5.63-5.93V37.3a5.79,5.79,0,0,1,5.63-5.93h14.11c14.12,0,24,11.6,24,28.21s-9.86,28.21-24,28.21Z"/><path class="cls-8" d="M114.23,75.73h8.48c9.39,0,12.72-8.81,12.72-16.36S132.1,43,122.71,43h-8.48ZM108.6,87.57A5.78,5.78,0,0,1,103,81.65V37.1a5.78,5.78,0,0,1,5.62-5.92h14.11c14.11,0,24,11.59,24,28.19s-9.86,28.2-24,28.2Z"/><path class="cls-9" d="M114,75.54h8.49c9.4,0,12.73-8.82,12.73-16.37S131.91,42.8,122.51,42.8H114ZM108.4,87.35a5.76,5.76,0,0,1-5.61-5.9V36.89A5.77,5.77,0,0,1,108.4,31h14.11c14.11,0,24,11.59,24,28.19s-9.85,28.18-24,28.18Z"/><path class="cls-10" d="M113.81,75.34h8.5c9.4,0,12.74-8.82,12.74-16.38s-3.34-16.38-12.74-16.38h-8.5Zm-5.61,11.8a5.76,5.76,0,0,1-5.6-5.9V36.69a5.76,5.76,0,0,1,5.6-5.9h14.11c14.1,0,23.95,11.58,23.95,28.17s-9.85,28.18-23.95,28.18Z"/><path class="cls-11" d="M113.6,75.15h8.51c9.41,0,12.75-8.83,12.75-16.39s-3.34-16.39-12.75-16.39H113.6ZM108,86.92A5.74,5.74,0,0,1,102.41,81V36.48A5.75,5.75,0,0,1,108,30.59h14.11c14.09,0,23.94,11.58,23.94,28.17s-9.85,28.16-23.94,28.16Z"/><path class="cls-12" d="M113.38,75h8.53c9.42,0,12.76-8.83,12.76-16.4s-3.34-16.4-12.76-16.4h-8.53ZM107.8,86.71a5.74,5.74,0,0,1-5.58-5.88V36.27a5.73,5.73,0,0,1,5.58-5.87h14.11C136,30.4,145.84,42,145.84,58.55S136,86.71,121.91,86.71Z"/><path class="cls-13" d="M113.17,74.76h8.54c9.43,0,12.77-8.84,12.77-16.41s-3.34-16.42-12.77-16.42h-8.54ZM107.6,86.49A5.72,5.72,0,0,1,102,80.62V36.07a5.72,5.72,0,0,1,5.57-5.87h14.11c14.08,0,23.91,11.58,23.91,28.15s-9.83,28.14-23.91,28.14Z"/><path class="cls-14" d="M113,74.56h8.55c9.43,0,12.78-8.84,12.78-16.42s-3.35-16.42-12.78-16.42H113ZM107.4,86.27a5.71,5.71,0,0,1-5.56-5.85V35.86A5.71,5.71,0,0,1,107.4,30h14.11c14.07,0,23.9,11.57,23.9,28.13s-9.83,28.13-23.9,28.13Z"/><path class="cls-15" d="M112.75,74.37h8.56c9.44,0,12.79-8.86,12.79-16.44S130.75,41.5,121.31,41.5h-8.56ZM107.2,86.06a5.71,5.71,0,0,1-5.55-5.85V35.66a5.71,5.71,0,0,1,5.55-5.85h14.11c14.07,0,23.89,11.57,23.89,28.12s-9.82,28.13-23.89,28.13Z"/><path class="cls-16" d="M112.54,74.17h8.57c9.45,0,12.8-8.86,12.8-16.44s-3.35-16.44-12.8-16.44h-8.57ZM107,85.84A5.69,5.69,0,0,1,101.46,80V35.45A5.69,5.69,0,0,1,107,29.62h14.11c14.06,0,23.88,11.56,23.88,28.11s-9.82,28.11-23.88,28.11Z"/><path class="cls-17" d="M112.33,74h8.58c9.45,0,12.81-8.87,12.81-16.46s-3.36-16.45-12.81-16.45h-8.58ZM106.8,85.62a5.69,5.69,0,0,1-5.53-5.82V35.25a5.69,5.69,0,0,1,5.53-5.83h14.11c14.05,0,23.87,11.56,23.87,28.1s-9.82,28.1-23.87,28.1Z"/><path class="cls-18" d="M112.12,73.78h8.59c9.46,0,12.82-8.87,12.82-16.46s-3.36-16.47-12.82-16.47h-8.59ZM106.6,85.41a5.68,5.68,0,0,1-5.52-5.82V35a5.67,5.67,0,0,1,5.52-5.81h14.11c14,0,23.86,11.55,23.86,28.09s-9.81,28.09-23.86,28.09Z"/><path class="cls-19" d="M111.91,73.59h8.6c9.47,0,12.83-8.88,12.83-16.48S130,40.64,120.51,40.64h-8.6Zm-5.51,11.6a5.66,5.66,0,0,1-5.51-5.8V34.83A5.66,5.66,0,0,1,106.4,29h14.11c14,0,23.85,11.55,23.85,28.08s-9.81,28.08-23.85,28.08Z"/><path class="cls-20" d="M111.7,73.39h8.61c9.47,0,12.84-8.88,12.84-16.49s-3.37-16.48-12.84-16.48H111.7ZM106.2,85a5.65,5.65,0,0,1-5.5-5.79V34.63a5.65,5.65,0,0,1,5.5-5.79h14.11c14,0,23.84,11.54,23.84,28.06S134.35,85,120.31,85Z"/><path class="cls-21" d="M111.49,73.2h8.62c9.48,0,12.85-8.89,12.85-16.5s-3.37-16.5-12.85-16.5h-8.62ZM106,84.76A5.64,5.64,0,0,1,100.51,79V34.42A5.64,5.64,0,0,1,106,28.64h14.11c14,0,23.83,11.54,23.83,28.06s-9.8,28.06-23.83,28.06Z"/><path class="cls-22" d="M111.28,73h8.63c9.49,0,12.86-8.89,12.86-16.51S129.4,40,119.91,40h-8.63ZM105.8,84.54a5.63,5.63,0,0,1-5.48-5.77V34.22a5.63,5.63,0,0,1,5.48-5.77h14.11c14,0,23.82,11.53,23.82,28s-9.8,28.05-23.82,28.05Z"/><path class="cls-23" d="M111.07,72.81h8.64c9.49,0,12.87-8.9,12.87-16.52s-3.38-16.52-12.87-16.52h-8.64ZM105.6,84.32a5.63,5.63,0,0,1-5.48-5.76V34a5.63,5.63,0,0,1,5.48-5.76h14.11c14,0,23.81,11.53,23.81,28s-9.79,28-23.81,28Z"/><path class="cls-24" d="M110.86,72.61h8.64c9.51,0,12.89-8.9,12.89-16.53S129,39.55,119.5,39.55h-8.64Zm-5.46,11.5a5.62,5.62,0,0,1-5.47-5.75V33.8a5.61,5.61,0,0,1,5.47-5.74h14.1c14,0,23.81,11.52,23.81,28s-9.79,28-23.81,28Z"/><path class="cls-25" d="M110.65,72.41h8.65c9.52,0,12.89-8.9,12.89-16.53s-3.37-16.54-12.89-16.54h-8.65ZM105.2,83.89a5.61,5.61,0,0,1-5.46-5.74V33.6a5.61,5.61,0,0,1,5.46-5.74h14.1c14,0,23.8,11.52,23.8,28s-9.79,28-23.8,28Z"/><path class="cls-26" d="M110.44,72.22h8.66c9.53,0,12.9-8.92,12.9-16.55s-3.37-16.55-12.9-16.55h-8.66ZM105,83.67A5.59,5.59,0,0,1,99.55,78V33.39A5.59,5.59,0,0,1,105,27.67H119.1c14,0,23.79,11.51,23.79,28s-9.78,28-23.79,28Z"/><path class="cls-27" d="M110.23,72h8.67c9.53,0,12.91-8.92,12.91-16.56S128.43,38.9,118.9,38.9h-8.67Zm-5.44,11.44a5.59,5.59,0,0,1-5.43-5.72V33.19a5.59,5.59,0,0,1,5.43-5.72H118.9c14,0,23.78,11.51,23.78,28s-9.78,28-23.78,28Z"/><path class="cls-28" d="M110,71.83h8.69c9.54,0,12.92-8.93,12.92-16.57s-3.38-16.57-12.92-16.57H110Zm-5.42,11.41a5.57,5.57,0,0,1-5.42-5.7V33a5.58,5.58,0,0,1,5.42-5.71H118.7c14,0,23.77,11.51,23.77,28s-9.78,28-23.77,28Z"/><path class="cls-29" d="M109.8,71.63h8.7c9.55,0,12.93-8.93,12.93-16.58s-3.38-16.58-12.93-16.58h-8.7ZM104.39,83A5.57,5.57,0,0,1,99,77.33V32.78a5.56,5.56,0,0,1,5.41-5.7H118.5c14,0,23.76,11.5,23.76,28s-9.77,28-23.76,28Z"/><path class="cls-30" d="M109.59,71.44h8.71c9.55,0,12.94-8.94,12.94-16.59s-3.39-16.6-12.94-16.6h-8.71Zm-5.4,11.37a5.55,5.55,0,0,1-5.4-5.69V32.57a5.55,5.55,0,0,1,5.4-5.69H118.3c14,0,23.74,11.5,23.74,28s-9.76,28-23.74,28Z"/><path class="cls-31" d="M109.38,71.24h8.72c9.56,0,13-8.94,13-16.6S127.66,38,118.1,38h-8.72ZM104,82.59a5.54,5.54,0,0,1-5.39-5.67V32.36A5.54,5.54,0,0,1,104,26.69H118.1c14,0,23.73,11.49,23.73,28s-9.76,28-23.73,28Z"/><path class="cls-32" d="M109.17,71.05h8.73c9.57,0,13-8.95,13-16.61s-3.39-16.62-13-16.62h-8.73Zm-5.38,11.33a5.53,5.53,0,0,1-5.38-5.67V32.16a5.53,5.53,0,0,1,5.38-5.67H117.9c14,0,23.72,11.49,23.72,28s-9.75,27.94-23.72,27.94Z"/><path class="cls-33" d="M109,70.85h8.74c9.57,0,13-8.95,13-16.62s-3.4-16.62-13-16.62H109Zm-5.37,11.31a5.53,5.53,0,0,1-5.37-5.65V32a5.52,5.52,0,0,1,5.37-5.65H117.7c14,0,23.71,11.48,23.71,27.93s-9.75,27.93-23.71,27.93Z"/><path class="cls-34" d="M108.75,70.66h8.75c9.58,0,13-9,13-16.64s-3.4-16.63-13-16.63h-8.75Zm-5.36,11.28A5.51,5.51,0,0,1,98,76.3V31.75a5.51,5.51,0,0,1,5.36-5.65H117.5c14,0,23.7,11.48,23.7,27.92s-9.74,27.92-23.7,27.92Z"/><path class="cls-35" d="M108.54,70.46h8.76c9.59,0,13-9,13-16.64s-3.4-16.65-13-16.65h-8.76Zm-5.35,11.27a5.51,5.51,0,0,1-5.35-5.64V31.54a5.5,5.5,0,0,1,5.35-5.63H117.3c14,0,23.69,11.48,23.69,27.91s-9.74,27.91-23.69,27.91Z"/><path class="cls-36" d="M108.33,70.27h8.77c9.6,0,13-9,13-16.66S126.7,37,117.1,37h-8.77ZM103,81.51a5.49,5.49,0,0,1-5.34-5.62V31.33A5.49,5.49,0,0,1,103,25.71H117.1c13.94,0,23.68,11.48,23.68,27.9S131,81.51,117.1,81.51Z"/><path class="Graphic-Style" d="M108.12,70.07h8.78c9.6,0,13-9,13-16.66s-3.41-16.67-13-16.67h-8.78Zm-5.33,11.22a5.48,5.48,0,0,1-5.33-5.61V31.13a5.48,5.48,0,0,1,5.33-5.61H116.9c13.94,0,23.67,11.47,23.67,27.89s-9.73,27.88-23.67,27.88Z"/></g><path class="cls-47" d="M116.9,81.62H102.79a5.79,5.79,0,0,1-5.64-5.94V31.13a5.79,5.79,0,0,1,5.64-5.94H116.9c14.12,0,24,11.6,24,28.22S131,81.62,116.9,81.62Zm-8.47-11.88h8.47c9.37,0,12.7-8.8,12.7-16.33s-3.33-16.34-12.7-16.34h-8.47Z"/><path class="cls-48" d="M102.79,80.3a4.51,4.51,0,0,1-4.39-4.62V31.13a4.51,4.51,0,0,1,4.39-4.62H116.9c13.38,0,22.73,11.06,22.73,26.9S130.28,80.3,116.9,80.3Zm4.39-9.24h9.72c10.3,0,13.95-9.51,13.95-17.65S127.2,35.75,116.9,35.75h-9.72Z"/><path class="cls-3" d="M164.4,89.54c-7.27,0-13.17-6.21-13.17-13.86V31.13c0-7.64,5.9-13.86,13.17-13.86h14.1c18.26,0,31.51,15.2,31.51,36.14S196.76,89.54,178.5,89.54Zm14.1-27.72c4.51,0,5.18-5.27,5.18-8.41S183,45,178.5,45h-.94V61.82Z"/><path class="cls-4" d="M164.4,88.22c-6.57,0-11.92-5.62-11.92-12.54V31.13c0-6.92,5.35-12.54,11.92-12.54h14.1c17.54,0,30.26,14.64,30.26,34.82S196,88.22,178.5,88.22Zm14.1-25.08c5.81,0,6.43-6.81,6.43-9.73s-.62-9.74-6.43-9.74h-2.19V63.14Z"/><g class="cls-5"><path class="cls-6" d="M176.25,76.12h8.47c9.37,0,12.7-8.8,12.7-16.33s-3.33-16.34-12.7-16.34h-8.47ZM184.72,88H170.61A5.79,5.79,0,0,1,165,82.06V37.51a5.79,5.79,0,0,1,5.64-5.94h14.11c14.12,0,24,11.6,24,28.22S198.84,88,184.72,88Z"/><path class="cls-7" d="M176,75.93h8.48c9.38,0,12.71-8.81,12.71-16.35s-3.33-16.35-12.71-16.35H176Zm-5.63,11.86a5.79,5.79,0,0,1-5.63-5.93V37.3a5.79,5.79,0,0,1,5.63-5.93h14.11c14.12,0,24,11.6,24,28.21s-9.85,28.21-24,28.21Z"/><path class="cls-8" d="M175.83,75.73h8.49c9.39,0,12.72-8.81,12.72-16.36S193.71,43,184.32,43h-8.49Zm-5.62,11.84a5.78,5.78,0,0,1-5.62-5.92V37.1a5.78,5.78,0,0,1,5.62-5.92h14.11c14.11,0,24,11.59,24,28.19s-9.85,28.2-24,28.2Z"/><path class="cls-9" d="M175.62,75.54h8.5c9.39,0,12.73-8.82,12.73-16.37S193.51,42.8,184.12,42.8h-8.5ZM170,87.35a5.76,5.76,0,0,1-5.61-5.9V36.89A5.77,5.77,0,0,1,170,31h14.11c14.1,0,23.95,11.59,23.95,28.19s-9.85,28.18-23.95,28.18Z"/><path class="cls-10" d="M175.41,75.34h8.51c9.4,0,12.74-8.82,12.74-16.38s-3.34-16.38-12.74-16.38h-8.51Zm-5.6,11.8a5.76,5.76,0,0,1-5.6-5.9V36.69a5.76,5.76,0,0,1,5.6-5.9h14.11c14.1,0,23.94,11.58,23.94,28.17S198,87.14,183.92,87.14Z"/><path class="cls-11" d="M175.2,75.15h8.52c9.41,0,12.75-8.83,12.75-16.39s-3.34-16.39-12.75-16.39H175.2Zm-5.59,11.77A5.74,5.74,0,0,1,164,81V36.48a5.75,5.75,0,0,1,5.59-5.89h14.11c14.09,0,23.93,11.58,23.93,28.17s-9.84,28.16-23.93,28.16Z"/><path class="cls-12" d="M175,75h8.53c9.41,0,12.76-8.83,12.76-16.4s-3.35-16.4-12.76-16.4H175Zm-5.58,11.76a5.74,5.74,0,0,1-5.58-5.88V36.27a5.73,5.73,0,0,1,5.58-5.87h14.11c14.08,0,23.92,11.58,23.92,28.15s-9.84,28.16-23.92,28.16Z"/><path class="cls-13" d="M174.78,74.76h8.54c9.42,0,12.77-8.84,12.77-16.41s-3.35-16.42-12.77-16.42h-8.54Zm-5.57,11.73a5.72,5.72,0,0,1-5.57-5.87V36.07a5.72,5.72,0,0,1,5.57-5.87h14.11c14.08,0,23.91,11.58,23.91,28.15s-9.83,28.14-23.91,28.14Z"/><path class="cls-14" d="M174.57,74.56h8.55c9.43,0,12.78-8.84,12.78-16.42s-3.35-16.42-12.78-16.42h-8.55ZM169,86.27a5.72,5.72,0,0,1-5.57-5.85V35.86A5.72,5.72,0,0,1,169,30h14.11C197.19,30,207,41.58,207,58.14s-9.83,28.13-23.9,28.13Z"/><path class="cls-15" d="M174.36,74.37h8.56c9.44,0,12.78-8.86,12.78-16.44S192.36,41.5,182.92,41.5h-8.56Zm-5.55,11.69a5.71,5.71,0,0,1-5.56-5.85V35.66a5.71,5.71,0,0,1,5.56-5.85h14.11c14.06,0,23.89,11.57,23.89,28.12S197,86.06,182.92,86.06Z"/><path class="cls-16" d="M174.15,74.17h8.57c9.44,0,12.79-8.86,12.79-16.44s-3.35-16.44-12.79-16.44h-8.57Zm-5.54,11.67A5.7,5.7,0,0,1,163.06,80V35.45a5.7,5.7,0,0,1,5.55-5.83h14.11c14.06,0,23.88,11.56,23.88,28.11s-9.82,28.11-23.88,28.11Z"/><path class="cls-17" d="M173.94,74h8.57c9.46,0,12.81-8.87,12.81-16.46S192,41.07,182.51,41.07h-8.57Zm-5.53,11.64a5.69,5.69,0,0,1-5.54-5.82V35.25a5.69,5.69,0,0,1,5.54-5.83h14.1c14.06,0,23.88,11.56,23.88,28.1s-9.82,28.1-23.88,28.1Z"/><path class="cls-18" d="M173.73,73.78h8.58c9.47,0,12.82-8.87,12.82-16.46s-3.35-16.47-12.82-16.47h-8.58Zm-5.52,11.63a5.69,5.69,0,0,1-5.53-5.82V35a5.68,5.68,0,0,1,5.53-5.81h14.1c14.05,0,23.87,11.55,23.87,28.09s-9.82,28.09-23.87,28.09Z"/><path class="cls-19" d="M173.52,73.59h8.59c9.47,0,12.83-8.88,12.83-16.48s-3.36-16.47-12.83-16.47h-8.59ZM168,85.19a5.66,5.66,0,0,1-5.51-5.8V34.83A5.66,5.66,0,0,1,168,29h14.11c14,0,23.86,11.55,23.86,28.08s-9.81,28.08-23.86,28.08Z"/><path class="cls-20" d="M173.31,73.39h8.6c9.48,0,12.84-8.88,12.84-16.49s-3.36-16.48-12.84-16.48h-8.6ZM167.8,85a5.65,5.65,0,0,1-5.5-5.79V34.63a5.65,5.65,0,0,1,5.5-5.79h14.11c14,0,23.85,11.54,23.85,28.06S196,85,181.91,85Z"/><path class="cls-21" d="M173.1,73.2h8.61c9.49,0,12.85-8.89,12.85-16.5s-3.36-16.5-12.85-16.5H173.1Zm-5.5,11.56A5.64,5.64,0,0,1,162.11,79V34.42a5.64,5.64,0,0,1,5.49-5.78h14.11c14,0,23.84,11.54,23.84,28.06s-9.8,28.06-23.84,28.06Z"/><path class="cls-22" d="M172.88,73h8.63c9.49,0,12.86-8.89,12.86-16.51S191,40,181.51,40h-8.63ZM167.4,84.54a5.64,5.64,0,0,1-5.48-5.77V34.22a5.63,5.63,0,0,1,5.48-5.77h14.11c14,0,23.83,11.53,23.83,28s-9.8,28.05-23.83,28.05Z"/><path class="cls-23" d="M172.67,72.81h8.64c9.5,0,12.87-8.9,12.87-16.52s-3.37-16.52-12.87-16.52h-8.64ZM167.2,84.32a5.62,5.62,0,0,1-5.47-5.76V34a5.62,5.62,0,0,1,5.47-5.76h14.11c14,0,23.82,11.53,23.82,28s-9.8,28-23.82,28Z"/><path class="cls-24" d="M172.46,72.61h8.65c9.51,0,12.88-8.9,12.88-16.53s-3.37-16.53-12.88-16.53h-8.65ZM167,84.11a5.62,5.62,0,0,1-5.46-5.75V33.8A5.61,5.61,0,0,1,167,28.06h14.11c14,0,23.8,11.52,23.8,28s-9.78,28-23.8,28Z"/><path class="cls-25" d="M172.25,72.41h8.66c9.52,0,12.89-8.9,12.89-16.53s-3.37-16.54-12.89-16.54h-8.66ZM166.8,83.89a5.6,5.6,0,0,1-5.45-5.74V33.6a5.6,5.6,0,0,1,5.45-5.74h14.11c14,0,23.79,11.52,23.79,28s-9.78,28-23.79,28Z"/><path class="cls-26" d="M172,72.22h8.67c9.52,0,12.9-8.92,12.9-16.55s-3.38-16.55-12.9-16.55H172ZM166.6,83.67A5.59,5.59,0,0,1,161.16,78V33.39a5.59,5.59,0,0,1,5.44-5.72h14.11c14,0,23.78,11.51,23.78,28s-9.78,28-23.78,28Z"/><path class="cls-27" d="M171.83,72h8.68c9.53,0,12.91-8.92,12.91-16.56S190,38.9,180.51,38.9h-8.68ZM166.4,83.46A5.58,5.58,0,0,1,161,77.74V33.19a5.58,5.58,0,0,1,5.43-5.72h14.11c14,0,23.77,11.51,23.77,28s-9.77,28-23.77,28Z"/><path class="cls-28" d="M171.62,71.83h8.69c9.54,0,12.92-8.93,12.92-16.57s-3.38-16.57-12.92-16.57h-8.69ZM166.2,83.24a5.57,5.57,0,0,1-5.42-5.7V33a5.58,5.58,0,0,1,5.42-5.71h14.11c14,0,23.76,11.51,23.76,28s-9.77,28-23.76,28Z"/><path class="cls-29" d="M171.41,71.63h8.7c9.54,0,12.93-8.93,12.93-16.58s-3.39-16.58-12.93-16.58h-8.7ZM166,83a5.56,5.56,0,0,1-5.41-5.7V32.78a5.56,5.56,0,0,1,5.41-5.7h14.11c14,0,23.75,11.5,23.75,28s-9.77,28-23.75,28Z"/><path class="cls-30" d="M171.2,71.44h8.71c9.55,0,12.94-8.94,12.94-16.59s-3.39-16.6-12.94-16.6H171.2Zm-5.4,11.37a5.55,5.55,0,0,1-5.4-5.69V32.57a5.55,5.55,0,0,1,5.4-5.69h14.11c14,0,23.74,11.5,23.74,28s-9.76,28-23.74,28Z"/><path class="cls-31" d="M171,71.24h8.72c9.56,0,12.95-8.94,12.95-16.6S189.27,38,179.71,38H171ZM165.6,82.59a5.54,5.54,0,0,1-5.39-5.67V32.36a5.54,5.54,0,0,1,5.39-5.67h14.11c14,0,23.73,11.49,23.73,28s-9.76,28-23.73,28Z"/><path class="cls-32" d="M170.78,71.05h8.73c9.56,0,13-8.95,13-16.61s-3.4-16.62-13-16.62h-8.73ZM165.4,82.38A5.53,5.53,0,0,1,160,76.71V32.16a5.53,5.53,0,0,1,5.38-5.67h14.11c14,0,23.72,11.49,23.72,28s-9.76,27.94-23.72,27.94Z"/><path class="cls-33" d="M170.57,70.85h8.74c9.57,0,13-8.95,13-16.62s-3.4-16.62-13-16.62h-8.74ZM165.2,82.16a5.53,5.53,0,0,1-5.37-5.65V32a5.52,5.52,0,0,1,5.37-5.65h14.11c14,0,23.71,11.48,23.71,27.93s-9.75,27.93-23.71,27.93Z"/><path class="cls-34" d="M170.36,70.66h8.75c9.58,0,13-9,13-16.64s-3.4-16.63-13-16.63h-8.75ZM165,81.94a5.51,5.51,0,0,1-5.36-5.64V31.75A5.51,5.51,0,0,1,165,26.1h14.11c13.95,0,23.7,11.48,23.7,27.92s-9.75,27.92-23.7,27.92Z"/><path class="cls-35" d="M170.15,70.46h8.76c9.58,0,13-9,13-16.64s-3.41-16.65-13-16.65h-8.76ZM164.8,81.73a5.51,5.51,0,0,1-5.35-5.64V31.54a5.5,5.5,0,0,1,5.35-5.63h14.11c14,0,23.69,11.48,23.69,27.91s-9.74,27.91-23.69,27.91Z"/><path class="cls-36" d="M169.94,70.27h8.77c9.59,0,13-9,13-16.66S188.3,37,178.71,37h-8.77ZM164.6,81.51a5.49,5.49,0,0,1-5.34-5.62V31.33a5.49,5.49,0,0,1,5.34-5.62h14.11c13.94,0,23.68,11.48,23.68,27.9s-9.74,27.9-23.68,27.9Z"/><path class="Graphic-Style" d="M169.73,70.07h8.77c9.61,0,13-9,13-16.66s-3.41-16.67-13-16.67h-8.77ZM164.4,81.29a5.48,5.48,0,0,1-5.33-5.61V31.13a5.48,5.48,0,0,1,5.33-5.61h14.1c13.94,0,23.68,11.47,23.68,27.89s-9.74,27.88-23.68,27.88Z"/></g><path class="cls-49" d="M178.5,81.62H164.4a5.8,5.8,0,0,1-5.65-5.94V31.13a5.8,5.8,0,0,1,5.65-5.94h14.1c14.13,0,24,11.6,24,28.22S192.63,81.62,178.5,81.62ZM170,69.74h8.46c9.38,0,12.7-8.8,12.7-16.33s-3.32-16.34-12.7-16.34H170Z"/><path class="cls-50" d="M164.4,80.3A4.51,4.51,0,0,1,160,75.68V31.13a4.51,4.51,0,0,1,4.39-4.62h14.1c13.39,0,22.74,11.06,22.74,26.9S191.89,80.3,178.5,80.3Zm4.39-9.24h9.71c10.3,0,14-9.51,14-17.65s-3.66-17.66-14-17.66h-9.71Z"/><path class="cls-2" d="M88.73,131.17a4.44,4.44,0,0,1,2.89-1A3.5,3.5,0,0,1,94,131a2.93,2.93,0,0,1,1,2.3,5.83,5.83,0,0,1-.38,1.63,39.31,39.31,0,0,1-2.81,3.78A20.48,20.48,0,0,1,88.4,142a16.73,16.73,0,0,1-4.19,2.26,14.43,14.43,0,0,1-5,.85,17.12,17.12,0,0,1-7.49-1.63A17.62,17.62,0,0,1,65.82,139,20.33,20.33,0,0,1,62,132.32a24.7,24.7,0,0,1-1.33-8.2,19.6,19.6,0,0,1,.81-5.71,33.85,33.85,0,0,1,2.6-6.23,20.41,20.41,0,0,1,3.56-4.71,25.25,25.25,0,0,1,4.75-3.63,45.25,45.25,0,0,1,6.15-3H78.5a30.72,30.72,0,0,1,4.11-1.49,14.65,14.65,0,0,1,3.82-.52,8.61,8.61,0,0,1,5,1.56,14.42,14.42,0,0,1,4.15,5.34,4.85,4.85,0,0,1,.15,1.19,3,3,0,0,1-1,2.3,3.54,3.54,0,0,1-2.41.89,4.55,4.55,0,0,1-3.27-1.49,23.1,23.1,0,0,0-1.63-2.52,1.72,1.72,0,0,0-1.33-.74,4.64,4.64,0,0,0-1.34.3l-1.93.66-1.18.45a28.38,28.38,0,0,0-5.2,2.6,19.34,19.34,0,0,0-4.33,3.74,17,17,0,0,0-3,5A18.1,18.1,0,0,0,68,124.72a17.84,17.84,0,0,0,.74,5.08A14.44,14.44,0,0,0,71,134.25a11.27,11.27,0,0,0,3.52,3.15,9.44,9.44,0,0,0,4.75,1.19,6.69,6.69,0,0,0,2.93-.67,10.88,10.88,0,0,0,2.52-1.71,17.78,17.78,0,0,0,2.15-2.33,20.68,20.68,0,0,0,1.74-2.64Z"/><path class="cls-2" d="M111.05,141.18a3.51,3.51,0,0,1-1.22,2.82,4,4,0,0,1-2.48.89A3.67,3.67,0,0,1,105,144a3.72,3.72,0,0,1-1.3-2.56V106.83a4.31,4.31,0,0,1-1.78-1.19,2.69,2.69,0,0,1-.74-1.85,3.43,3.43,0,0,1,1.33-2.74,30.48,30.48,0,0,1,7.35-3.4A27,27,0,0,1,118,96.39a22.9,22.9,0,0,1,6.53.89,15.51,15.51,0,0,1,5.56,3,15,15,0,0,1,4.45,5.25,13.39,13.39,0,0,1,1.34,5.78,14.9,14.9,0,0,1-.74,4.63,17,17,0,0,1-2.12,4.26,18.92,18.92,0,0,1-3.3,3.66,18,18,0,0,1-4.37,2.78l11.79,13a4.24,4.24,0,0,1,1,2.37,2.81,2.81,0,0,1-1,2.26,3.59,3.59,0,0,1-2.41.85,5.44,5.44,0,0,1-1.63-.26,3.31,3.31,0,0,1-1.48-1c-.45-.54-1.31-1.53-2.6-3s-2.69-3-4.23-4.59-3-3.17-4.26-4.6-2.16-2.4-2.56-2.89a47.92,47.92,0,0,1-6.9.66Zm14.39-36a10.23,10.23,0,0,0-3.67-1.74,16.49,16.49,0,0,0-4-.49,18.63,18.63,0,0,0-6.68,1.19v18.76c1.68-.1,3.38-.24,5.08-.44a18.82,18.82,0,0,0,5.08-1.34,9.07,9.07,0,0,0,2.9-1.59,14.6,14.6,0,0,0,2.37-2.41,11.48,11.48,0,0,0,1.63-2.89,8.45,8.45,0,0,0,.59-3,7.18,7.18,0,0,0-.74-3.23A7.5,7.5,0,0,0,125.44,105.14Z"/><path class="cls-2" d="M184.55,124.42a39,39,0,0,1-1.89,5.45,37.58,37.58,0,0,1-2.93,5.49,27.12,27.12,0,0,1-3.93,4.78,15.87,15.87,0,0,1-4.9,3.27c-1.53.59-3,1.08-4.48,1.48a17.35,17.35,0,0,1-4.49.59,13.62,13.62,0,0,1-3.9-.59q-2-.6-4-1.26a13.82,13.82,0,0,1-5.23-3.23,17.74,17.74,0,0,1-3.41-4.74,22.41,22.41,0,0,1-1.89-5.6,29.93,29.93,0,0,1-.6-5.94c0-.69,0-1.41.08-2.15s.12-1.45.22-2.15a26.83,26.83,0,0,1,1.37-5,37.32,37.32,0,0,1,2.45-5.31,33.11,33.11,0,0,1,3.26-4.82,19.58,19.58,0,0,1,3.82-3.63,21.17,21.17,0,0,1,5.6-2.6,21.8,21.8,0,0,1,6.19-.89,19.49,19.49,0,0,1,9.64,2.52,17.82,17.82,0,0,1,9,12.24,25.19,25.19,0,0,1,.56,5.27c0,1.14,0,2.27-.15,3.41S184.74,123.28,184.55,124.42Zm-16.81,13.2a15.13,15.13,0,0,0,4.59-3.71,22.77,22.77,0,0,0,3.18-5,26.05,26.05,0,0,0,1.85-5.64,28.61,28.61,0,0,0,.59-5.6,20.43,20.43,0,0,0-.37-3.82,14.7,14.7,0,0,0-1.19-3.59,11.6,11.6,0,0,0-4.69-4.75,13,13,0,0,0-6.33-1.63,11,11,0,0,0-3.7.63,15,15,0,0,0-3.4,1.74,16.36,16.36,0,0,0-3.44,3.67,25.86,25.86,0,0,0-2.55,4.64,28.19,28.19,0,0,0-1.59,5,23,23,0,0,0-.55,4.86,20.12,20.12,0,0,0,.74,5.53,13.22,13.22,0,0,0,2.29,4.63,11.28,11.28,0,0,0,3.88,3.19,12.23,12.23,0,0,0,5.59,1.19,10.34,10.34,0,0,0,2.62-.37A11.75,11.75,0,0,0,167.74,137.62Z"/><path class="cls-2" d="M244.69,101.36A4.25,4.25,0,0,1,246.14,99a3.81,3.81,0,0,1,4.75.19,3.39,3.39,0,0,1,1.07,2.7,69.9,69.9,0,0,1-2.63,11.24q-1.82,5.67-3.82,11c-1.39,3.37-2.63,6.7-3.75,10a69.07,69.07,0,0,1-4.11,9.71,4,4,0,0,1-3.12,1.56,3.34,3.34,0,0,1-3.34-1.93l-5-13.35c-.45-1.28-.87-2.46-1.26-3.52s-.78-2.1-1.15-3.12-.76-2.06-1.15-3.15-.87-2.27-1.41-3.56q-.82,2.22-1.71,4.64t-1.7,4.56q-2.16,5.85-3.82,10.2a75,75,0,0,1-3.38,7.6,4,4,0,0,1-3.11,1.55,3.85,3.85,0,0,1-3.64-2.44q-2.07-8-4.56-15.35T194,113q-.89-2.37-1.82-4.82a48.83,48.83,0,0,0-2.19-4.9,4.74,4.74,0,0,1-.51-1.92,3,3,0,0,1,1-2.3,3.44,3.44,0,0,1,2.45-.89,4.14,4.14,0,0,1,1.85.48,4.72,4.72,0,0,1,1.78,1.74c.69,1.48,1.43,3.23,2.23,5.23s1.58,4,2.37,6.12c.89,2.37,1.67,4.44,2.34,6.19s1.27,3.36,1.81,4.82,1,2.87,1.49,4.23.89,2.83,1.33,4.41q2.67-7,5.08-13.76a124,124,0,0,0,4-13.9,3.88,3.88,0,0,1,6.75-.22c1,2.62,1.9,5.09,2.75,7.41s1.68,4.63,2.52,6.9c.49,1.43.95,2.76,1.37,4s.84,2.4,1.26,3.56.86,2.36,1.33,3.59,1,2.55,1.6,3.93q1.41-4,2.89-7.93t2.82-7.82q1.34-3.9,2.41-7.83A77.36,77.36,0,0,0,244.69,101.36Z"/><path class="cls-2" d="M288.3,100.39A4.06,4.06,0,0,1,289.67,98a3.59,3.59,0,0,1,2.26-.78,4,4,0,0,1,2.27.74,3.72,3.72,0,0,1,1.44,2.23q0,10.45-.15,20.36T294.75,141a3,3,0,0,0-.07.55v.34a4.39,4.39,0,0,1-1.49,2.11,3.35,3.35,0,0,1-2,.71,4.6,4.6,0,0,1-3.26-1.56l-.52-.89q-2.52-4.23-5.15-8.16t-5.42-7.64q-2.77-3.7-5.67-7.38t-5.86-7.38v12.46q0,3.85,0,8t0,9.05a3.51,3.51,0,0,1-1.22,2.82,3.91,3.91,0,0,1-2.41.89,3.83,3.83,0,0,1-2.41-.85,3.72,3.72,0,0,1-1.3-2.56q0-4.9,0-9.9c0-3.34,0-6.71,0-10.13V101.36a4.06,4.06,0,0,1,1.33-2.27,3.53,3.53,0,0,1,2.3-.77,5.61,5.61,0,0,1,2.82,1.11l2.3,2.67q5.7,6.83,11,13.38t10.16,14q.22-7.49.34-14.42t.11-14.57Z"/></g></g></g></svg>