<svg xmlns="http://www.w3.org/2000/svg" viewBox="0 0 125.86 124.06"><defs><style>.cls-1{fill:#e6e6e6;}.cls-2{fill:#fff;}</style></defs><title>Asset 3</title><g id="Layer_2" data-name="Layer 2"><g id="ëÎÓÈ_1" data-name="ëÎÓÈ 1"><path class="cls-1" d="M125.86,62c0,3.56-6,6.55-6.61,9.93s4,8.35,2.83,11.6-7.88,4.06-9.62,7.06.92,9.19-1.32,11.86-8.78,1.11-11.45,3.36-2.25,8.94-5.29,10.7-8.6-2-11.91-.76-5.15,7.62-8.63,8.23-7.37-4.8-10.93-4.8S55.39,124.61,52,124s-5.38-7.05-8.63-8.23-8.9,2.5-11.91.76-2.62-8.46-5.29-10.7-9.2-.68-11.45-3.36.43-8.82-1.32-11.86S5,86.87,3.78,83.56,7.22,75.45,6.61,72,0,65.59,0,62s6-6.55,6.61-9.94-4-8.34-2.83-11.59,7.88-4.06,9.62-7.06-.92-9.19,1.32-11.86,8.78-1.11,11.45-3.36,2.25-8.94,5.29-10.7,8.6,2,11.91.76S48.52.66,52,.05s7.37,4.8,10.93,4.8S70.47-.55,73.86.05s5.38,7.05,8.63,8.23,8.9-2.5,11.91-.76S97,16,99.69,18.22s9.2.68,11.45,3.36-.43,8.82,1.32,11.86,8.41,3.75,9.62,7.06-3.44,8.11-2.83,11.59S125.86,58.47,125.86,62Z"/><path class="cls-2" d="M88.24,37.52a6,6,0,0,0-8.39,1.39l-23,32.2-10.75-16a6,6,0,1,0-10,6.73L51.73,85a6,6,0,0,0,4.9,2.65h.08a6,6,0,0,0,4.89-2.52l28-39.24A6,6,0,0,0,88.24,37.52Z"/></g></g></svg>