<svg xmlns="http://www.w3.org/2000/svg" viewBox="0 0 15.42 10.72"><defs><style>.cls-1{fill:#fff;}</style></defs><title>Asset 11</title><g id="Layer_2" data-name="Layer 2"><g id="Layer_1-2" data-name="Layer 1"><path class="cls-1" d="M14.94,10.72H.48A.48.48,0,0,1,0,10.24V.48A.47.47,0,0,1,.48,0H14.94a.48.48,0,0,1,.48.48v9.76A.49.49,0,0,1,14.94,10.72Zm-14-1h13.5V1H1Z"/><path class="cls-1" d="M7.71,6.86A2.09,2.09,0,0,1,6.3,6.32L.16.84A.49.49,0,0,1,0,.31.48.48,0,0,1,.48,0H14.94a.46.46,0,0,1,.44.31.48.48,0,0,1-.12.53L9.12,6.32A2.11,2.11,0,0,1,7.71,6.86ZM1.73,1l5.2,4.65a1.17,1.17,0,0,0,1.55,0h0L13.68,1Z"/><path class="cls-1" d="M14.94,10.65H.48a.48.48,0,0,1-.32-.84L5.54,5a.48.48,0,0,1,.68,0,.47.47,0,0,1,0,.67l-4.45,4h12l-4.45-4A.47.47,0,0,1,9.2,5a.47.47,0,0,1,.67,0l5.39,4.81a.47.47,0,0,1,.12.53A.46.46,0,0,1,14.94,10.65Z"/></g></g></svg>