<svg xmlns="http://www.w3.org/2000/svg" viewBox="0 0 11.92 11.92"><defs><style>.cls-1{fill:#fff;}</style></defs><title>Asset 13</title><g id="Layer_2" data-name="Layer 2"><g id="Layer_1-2" data-name="Layer 1"><path class="cls-1" d="M10.68,7.25A6.41,6.41,0,0,1,9.45,7a1.4,1.4,0,0,0-1.4.35l-.76.76A8.78,8.78,0,0,1,3.82,4.63l.76-.76a1.41,1.41,0,0,0,.34-1.41,7.14,7.14,0,0,1-.25-1.22A1.4,1.4,0,0,0,3.28,0H1.4a1.39,1.39,0,0,0-1,.46A1.38,1.38,0,0,0,0,1.4a.53.53,0,0,0,0,.13A11.32,11.32,0,0,0,1.07,5.4,11.32,11.32,0,0,0,3.32,8.59a11.54,11.54,0,0,0,3.2,2.26,11.26,11.26,0,0,0,3.87,1.06,1.37,1.37,0,0,0,1.07-.36,1.39,1.39,0,0,0,.46-1V8.64A1.39,1.39,0,0,0,10.68,7.25Z"/></g></g></svg>