<svg xmlns="http://www.w3.org/2000/svg" viewBox="0 0 14.88 14.95"><defs><style>.cls-1{fill:#fff;fill-rule:evenodd;}</style></defs><title>Asset 15</title><g id="Layer_2" data-name="Layer 2"><g id="Layer_1-2" data-name="Layer 1"><g id="WA_Logo" data-name="WA Logo"><path class="cls-1" d="M12.71,2.17A7.41,7.41,0,0,0,1.05,11.11L0,15l3.93-1a7.39,7.39,0,0,0,3.54.9h0A7.41,7.41,0,0,0,12.71,2.17ZM7.47,13.57h0a6.18,6.18,0,0,1-3.14-.86l-.22-.13-2.33.61.62-2.28-.15-.23A6.16,6.16,0,0,1,7.47,1.25a6.16,6.16,0,1,1,0,12.32ZM10.85,9c-.19-.1-1.1-.54-1.27-.61s-.29-.09-.41.1-.48.6-.59.72-.22.14-.4.05A5,5,0,0,1,6.69,8.3,5.75,5.75,0,0,1,5.66,7c-.11-.19,0-.29.08-.38s.19-.22.28-.32A2,2,0,0,0,6.21,6a.35.35,0,0,0,0-.33c-.05-.09-.42-1-.57-1.37S5.32,4,5.2,4H4.85a.66.66,0,0,0-.5.23,2.06,2.06,0,0,0-.64,1.54,3.6,3.6,0,0,0,.75,1.91,8.2,8.2,0,0,0,3.16,2.8c.45.19.79.3,1.06.39a2.53,2.53,0,0,0,1.17.07,1.89,1.89,0,0,0,1.24-.88,1.47,1.47,0,0,0,.11-.88C11.16,9.1,11,9.05,10.85,9Z"/></g></g></g></svg>